/* XPM */
static char * Rack_menutitle2_xpm[] = {
"110 23 4 1",
" 	c None",
".	c #4D657F",
"+	c #587491",
"@	c #2E3D4C",
"..............................................................................................................",
"..............................................................................................................",
"..............................................................................................................",
"...+++++++++++++++++++++++++++++++++++++++++++++++++++++++++++++++++++++++++++++++++++........................",
"...+++++++++++++++++++++++++++++++++++++++++++++++++++++++++++++++++++++++++++++++++++........................",
"....@@@@@@@@@@@@@@@@@@@@@@@@@@@@@@@@@@@@@@@@@@@@@@@@@@@@@@@@@@@@@@@@@@@@@@@@@@@@@@@@@.........................",
"..............................................................................................................",
"..............................................................................................................",
"..............................................................................................................",
"...+++++++++++++++++++++++++++++++++++++++++++++++++++++++++++++++++++++++++++++++++++........................",
"...+++++++++++++++++++++++++++++++++++++++++++++++++++++++++++++++++++++++++++++++++++........................",
"....@@@@@@@@@@@@@@@@@@@@@@@@@@@@@@@@@@@@@@@@@@@@@@@@@@@@@@@@@@@@@@@@@@@@@@@@@@@@@@@@@.........................",
"..............................................................................................................",
"..............................................................................................................",
"..............................................................................................................",
"...+++++++++++++++++++++++++++++++++++++++++++++++++++++++++++++++++++++++++++++++++++........................",
"...+++++++++++++++++++++++++++++++++++++++++++++++++++++++++++++++++++++++++++++++++++........................",
"....@@@@@@@@@@@@@@@@@@@@@@@@@@@@@@@@@@@@@@@@@@@@@@@@@@@@@@@@@@@@@@@@@@@@@@@@@@@@@@@@@.........................",
"..............................................................................................................",
"..............................................................................................................",
"..............................................................................................................",
"..............................................................................................................",
".............................................................................................................."};
