/* XPM */
static char *image[] = {
"64 64 225 2",
"   c None",
"00 c #040404",
"10 c #131313",
"20 c #151515",
"30 c #1d1d1d",
"40 c #020202",
"50 c #030303",
"60 c #000000",
"70 c #050505",
"80 c #181818",
"90 c #e0e0e0",
":0 c #bfbfbf",
";0 c #9d9d9d",
"A0 c #9f9f9f",
"B0 c #989898",
"C0 c #999999",
"D0 c #b7b7b7",
"E0 c #bbbbbb",
"F0 c #dedede",
"G0 c #b8b8b8",
"H0 c #b0b0b0",
"I0 c #bababa",
"J0 c #dddddd",
"K0 c #d1d1d1",
"L0 c #ececec",
"M0 c #fdfdfd",
"N0 c #ebebeb",
"O0 c #e1e1e1",
"P0 c #d8d8d8",
"Q0 c #e3e3e3",
"R0 c #e4e4e4",
"S0 c #383838",
"T0 c #dfdfdf",
"U0 c #e2e2e2",
"V0 c #adadad",
"W0 c #9e9e9e",
"X0 c #959595",
"Y0 c #e6e6e6",
"Z0 c #cecece",
"a0 c #d2d2d2",
"b0 c #bebebe",
"c0 c #d6d6d6",
"d0 c #d9d9d9",
"e0 c #f0f0f0",
"f0 c #c0c0c0",
"g0 c #cccccc",
"h0 c #f3f3f3",
"i0 c #ededed",
"j0 c #b3b3b3",
"k0 c #b1b1b1",
"l0 c #f6f6f6",
"m0 c #8c8c8c",
"n0 c #aaaaaa",
"o0 c #fcfcfc",
"p0 c #dbdbdb",
"q0 c #a9a9a9",
"r0 c #d0d0d0",
"s0 c #909090",
"t0 c #cdcdcd",
"u0 c #f5f5f5",
"v0 c #f4f4f4",
"w0 c #898989",
"x0 c #fafafa",
"y0 c #c8c8c8",
"z0 c #c6c6c6",
"01 c #fbfbfb",
"11 c #878787",
"21 c #f1f1f1",
"31 c #eaeaea",
"41 c #ababab",
"51 c #8e8e8e",
"61 c #acacac",
"71 c #cacaca",
"81 c #e9e9e9",
"91 c #f2f2f2",
":1 c #2d2d2d",
";1 c #323232",
"A1 c #c3c3c3",
"B1 c #fefefe",
"C1 c #c5c5c5",
"D1 c #474747",
"E1 c #e7e7e7",
"F1 c #939393",
"G1 c #595959",
"H1 c #aeaeae",
"I1 c #e8e8e8",
"J1 c #afafaf",
"K1 c #252525",
"L1 c #545454",
"M1 c #616161",
"N1 c #d7d7d7",
"O1 c #ffffff",
"P1 c #f8f8f8",
"Q1 c #d5d5d5",
"R1 c #a0a0a0",
"S1 c #575757",
"T1 c #a3a3a3",
"U1 c #c4c4c4",
"V1 c #efefef",
"W1 c #f9f9f9",
"X1 c #f7f7f7",
"Y1 c #eeeeee",
"Z1 c #e5e5e5",
"a1 c #dadada",
"b1 c #c1c1c1",
"c1 c #a2a2a2",
"d1 c #858585",
"e1 c #888888",
"f1 c #8b8b8b",
"g1 c #8f8f8f",
"h1 c #929292",
"i1 c #969696",
"j1 c #9a9a9a",
"k1 c #9b9b9b",
"l1 c #979797",
"m1 c #949494",
"n1 c #919191",
"o1 c #8d8d8d",
"p1 c #8a8a8a",
"q1 c #696969",
"r1 c #272727",
"s1 c #393939",
"t1 c #262626",
"u1 c #222222",
"v1 c #212121",
"w1 c #333333",
"x1 c #1b1b1b",
"y1 c #0e0e0e",
"z1 c #0b0b0b",
"02 c #070707",
"12 c #060606",
"22 c #090909",
"32 c #0d0d0d",
"42 c #121212",
"52 c #161616",
"62 c #1a1a1a",
"72 c #1f1f1f",
"82 c #232323",
"92 c #303030",
":2 c #3a3a3a",
";2 c #4a4a4a",
"A2 c #505050",
"B2 c #494949",
"C2 c #2e2e2e",
"D2 c #6e6e6e",
"E2 c #7b7b7b",
"F2 c #767676",
"G2 c #5c5c5c",
"H2 c #1c1c1c",
"I2 c #1e1e1e",
"J2 c #202020",
"K2 c #242424",
"L2 c #282828",
"M2 c #2c2c2c",
"N2 c #2b2b2b",
"O2 c #2a2a2a",
"P2 c #292929",
"Q2 c #2f2f2f",
"R2 c #4d4d4d",
"S2 c #464646",
"T2 c #3d3d3d",
"U2 c #353535",
"V2 c #313131",
"W2 c #343434",
"X2 c #666666",
"Y2 c #838383",
"Z2 c #868686",
"a2 c #797979",
"b2 c #747474",
"c2 c #717171",
"d2 c #6c6c6c",
"e2 c #646464",
"f2 c #5f5f5f",
"g2 c #525252",
"h2 c #4f4f4f",
"i2 c #4c4c4c",
"j2 c #454545",
"k2 c #424242",
"l2 c #3e3e3e",
"m2 c #3b3b3b",
"n2 c #373737",
"o2 c #363636",
"p2 c #3c3c3c",
"q2 c #7e7e7e",
"r2 c #818181",
"s2 c #848484",
"t2 c #828282",
"u2 c #808080",
"v2 c #7f7f7f",
"w2 c #7d7d7d",
"x2 c #7c7c7c",
"y2 c #7a7a7a",
"z2 c #787878",
"03 c #777777",
"13 c #757575",
"23 c #737373",
"33 c #727272",
"43 c #707070",
"53 c #6f6f6f",
"63 c #6d6d6d",
"73 c #6b6b6b",
"83 c #6a6a6a",
"93 c #686868",
":3 c #676767",
";3 c #656565",
"A3 c #636363",
"B3 c #626262",
"C3 c #606060",
"D3 c #5e5e5e",
"E3 c #5d5d5d",
"F3 c #5b5b5b",
"G3 c #5a5a5a",
"H3 c #585858",
"I3 c #565656",
"J3 c #555555",
"K3 c #535353",
"L3 c #515151",
"M3 c #4e4e4e",
"N3 c #4b4b4b",
"O3 c #484848",
"P3 c #444444",
"Q3 c #434343",
"R3 c #414141",
"S3 c #404040",
"T3 c #3f3f3f",
"                    T3S3R3Q3P3O3N3M3L3K3J3I3H3G3F3E3D3C3B3A3;3:393837363534333231303z2y2x2w2v2u2t2s2r2q223:3                    ",
"                p2o2n2m2l2k2j2O3i2h2g2K3J3I3H3G3F3E3f2C3B3e2;3:39383d26353c233b21303a2y2x2q2v2r2t2s2Z2Z2Y2u203X2                ",
"              W2V2U2T2S2R2h2R2S2T3n2Q2P2O2O2O2N2N2N2M2L2K2J2I2H2H2I2J2K2L2M2N2N2N2O2O2O2P2Q2n2T3S2M3I3G293F2E2z2D2              ",
"            C2C2n2B2L3L3A2;2R3:292P2O2O2N2N2M2L2827262524232221202z1y14252x1J282L2M2N2N2O2O2P292:2R3;2A2L3L3E3c2b263            ",
"          N2M2:2A2L3i2j2:2w1P2v1v1v1u1u1v1J2t1L2N2C2V2U2s1T2P3B2O3Q3l2s1W2V2C2N2L2r1J2v1u1u1v1v1v1P2w1:2j2i2L3K3q143q1          ",
"        M2P2n2L3;2k2T2o292M2Q2s1P3M3H3A353E2w2u2Y2Z2p1o1n1m1l1k1j1i1h1g1f1e1d1t2v2E2a2D2B3H3M3Q3s1Q2M292o2T2k2;2L3X273D3        ",
"      U2t1Q2R2Q3S3T2O3H3C3e2937353c22303a2E2q2t2d1e1c1b1a1Z1Y1X1W1V1Z1a1U1T1e1Y2u2q2E203F223435373:3e2f2S1O3T2S3Q3L3;3f2L3      ",
"      P2r1Q3k2S3T2J3B3C3A3X273d253c22303z2E2u2R1Q1P1O1O1O1O1O1O1O1O1O1O1O1O1P1N1c1v2E203F22343D273q1;3B3f2M1L1p2S3k2J3D3g2      ",
"    o2K1Q2k2S3T2O3C3E3C3e2:3837353432313E2J1I1O1O1O1O1O1O1O1O1O1O1O1O1O1O1O1O1O1O1I1H1y2133343D273q1:3e2C3G2f2O3T2S3k2G1L3B2    ",
"    V2K1o2S3T2U2K3F3E3M1e2:39373D25333F1E1O1O1O1O1O1O1O1O1O1O1O1O1O1O1O1O1O1O1O1O1O1O1I1m1c253d283:3X2e2C3E3G3K3U2T2S3M3A2D1    ",
"    M2K1m2l2n2C2I3F3D3C3e2;3:3837313C1B1O1O1O1O1O1O1O1O1O1O1O1O1O1O1O1O1O1O1O1O1O1O1O1O1B1A1b273q1:3e2A3C3D3G3J3C2n2l2j2M3j2    ",
"    P2K1l2s1Q2P2S1F3D3C3M1A3;393x2Z1O1O1O1O1O1O1O1O1O1O1O1O1O1O1O1O1O1O1O1O1O1O1O1O1O1O1O1O1E1x2:3e2A3C3f2E3G3S1P2Q2s1k2R2Q3    ",
"    K1t1p2;1r1:1I3G1F3G2C3M1e2e191O1O1O1O1O1O1O1O1O1817161l151s2Y2o1l1417131O1O1O1O1O1O1O1O1O121s2e2C3f2G2G3H3J3:1r1;1p2N3R3    ",
"    K1r1U2O2v1W2J3S1G1G2E3C31101O1O1O1O1O1O1O1P1z05113F20303030303030303F213o1y0x0O1O1O1O1O1O1O1x0w0f2E3F3H3I3J3W2v1O2U2;2T3    ",
"    K1r1Q2u1v1:2K3J3S1G1F313v0O1O1O1O1O1O1O171E25343c233232323232323232333c24353y271O1O1O1O1O1O1O1u013G3H3I3L1g2s1v1u1Q2O3T2    ",
"    K1L2L2v1u1l2A2K3J3I3X281O1O1O1O1O1O1v0g1q17373d263535353535353535353D263d2738393g191O1O1O1O1O1O1I1;3I3L1g2A2T2u1v1L2S2p2    ",
"    K1L2v1v1v1k2M3h2g2L1t0O1O1O1O1O1O1E1y2e2X2:3:393q1837343d1s0h1d1c27383q193:3:3;3e2z2I1O1O1O1O1O1O1r0L1L3h2R2R3v1v1v1P3:2    ",
"    K1P2v1u1v1j2i2R2h2f1O1O1O1O1O1O18173C3C3B3A3e2e253q0p001O1O1O1O1o0a1n053e2e2A3M1C3f273E1O1O1O1O1O1O1m0M3R2N3j2v1u1v1k2s1    ",
"    t1P2v1v1u1S2O3;2S1Y1O1O1O1O1O1l0b2F3G2E3D3C3X2k0W1O1O1O1O1O1O1O1O1O1O1W1j0X2C3E3G2G2F333l0O1O1O1O1O1i0J3;2O3S2u1v1v1R3n2    ",
"    r1O2u1v1t1P3j2O341O1O1O1O1O1O1p1J3H3G1G3F3F281O1O1O1O1O1O1O1O1O1O1O1O1O1O1I113F3G1H3H3J3p1O1O1O1O1O1O1n0D1P3P3t1v1u1T3U2    ",
"    r1O2u1v1P2S3Q3N3h0O1O1O1O1O1g0L3K3L1L1J3y2u0O1O1O1O1O1O1O1O1O1O1O1O1O1O1O1O1v0y2J3L1L1K3A2g0O1O1O1O1O1h0N3Q3S3P2v1u1T2W2    ",
"    L2N2u1v1M2T2S311O1O1O1O1O101X2R2h2A2L3:3V1O1O1O1O1O1O1O1O1O1O1O1O1O1O1O1O1O1O1V1:3L3A2h2M3:3o0O1O1O1O1O1Z2S3T2M2v1u1p2;1    ",
"    L2M2v1v1:1:2p2Q1O1O1O1O1O1f0O3;2i2i2M3Q1O1O1O1O1O1O1O1O1e0d0d091O1O1O1O1O1O1O1O1c0M3i2i2;2O3b0O1O1O1O1O1a0p2:2C2v1v1:292    ",
"    P2M2v1v1Q2n2O3O1O1O1O1O1O1b2P3D1O3O3g1O1O1O1O1O1O1O1g043A2A2A2A253Z0O1O1O1O1O1O1O1m0O3O3D1j2b2O1O1O1O1O1O1N3n2Q2v1v1s1C2    ",
"    P2:1v1v1Q2w1c2O1O1O1O1O1Y0R3R3Q3P3D1E1O1O1O1O1O1O1i1i2N3N3N3N3N3N3i2X0O1O1O1O1O1O1E1S2P3Q3R3R3E1O1O1O1O1O133w1Q2v1v1n2:1    ",
"    O2:1v1v1:1V2W0O1O1O1O1O1k0T2l2S3S3z2O1O1O1O1O1O1i1D1D1S2S2S2S2S2D1D1D1m1O1O1O1O1O1O103S3T3l2T2k0O1O1O1O1O1k1V2C2v1v1U2N2    ",
"    O2C2v1v1t1:1y0O1O1O1O1O1u2s1m2p2T2V0O1O1O1O1O1U0P3k2k2R3O33333O3R3k2k2Q3T0O1O1O1O1O1V0T2p2m2s1r2O1O1O1O1O1C1:1t1v1v1W2P2    ",
"    N2C2v1v1v1K1c0O1O1O1O1O1A2U2o2S0s1N1O1O1O1O1O1w0l2l2T2S1R0O1O1Q0I3T2l2T2e1O1O1O1O1O1Q1s1S0o2o2L3O1O1O1O1O1P0K1v1v1v1;1r1    ",
"    M2Q2v1v1v1v1O0O1O1O1O1O1S0V2W2U2U2i0O1O1O1O1O1G3s1s1s1U1O1O1O1O1A1s1s1s1G1O1O1O1O1O1N0U2U2W2V2o2O1O1O1O1O1O0v1v1v1v192t1    ",
"    M2Q2v1v1v1v1i0O1O1O1O1P1:1C292V2;1W1O1O1O1O1M0:2U2W2w1V1O1O1O1O1V1w1W2U2m2B1O1O1O1O1v0;1V2V2C2:1W1O1O1O1O131v1v1v1v1C2K2    ",
"    :192v1v1v1v1e0O1O1O1O1L0P2O2M2:1:191O1O1O1O1O1Q3V292Q2K0O1O1O1O1K0Q292V2k2O1O1O1O1O1e0:1:1M2O2P2i0O1O1O1O191v1v1v1v1:182    ",
"    :1V2v1v1v1v1p0O1O1O1O1x0t1t1L2P2N2T0O1O1O1O1O1:3:1M2O2E3X1O1O1X1E3O2M2:193O1O1O1O1O1p0N2P2L2t1t1x0O1O1O1O1J0v1v1v1v1N2v1    ",
"    C2V2v1v1v1u1A1O1O1O1O1O1Q2K2K2K1r1I0O1O1O1O1O1J1P2L2r1t1j2o1o1j2t1r1L2P2H0O1O1O1O1O1G0r1K1K2K2w1O1O1O1O1O1U1u1v1v1v1P272    ",
"    C2;1v1u1v1u1V0O1O1O1O1O1R2K1K1K1K1s2O1O1O1O1O1o0P3K2K282u1v1v1u182K2K2D1M0O1O1O1O1O1v2K1K1K1K1h2O1O1O1O1O1n0u1v1u1v1r1I2    ",
"    Q2;1v1u1u1u111O1O1O1O1O1t2K1K1K1K1p201O1O1O1O1O1J0S3N2:1Q29292Q2:1N2k2F0O1O1O1O1O1x0m2K1K1K1K1s2O1O1O1O1O1p1u1u1u1v1t1I2    ",
"    Q2w1u1u1u1u1h2O1O1O1O1O1I0K1K1K1t1t1H1O1O1O1O1O1O1Y0h2S0:2m2m2:2S0K3I1O1O1O1O1O1O161t1t1t1K1K1b0O1O1O1O1O1A2u1u1u1u1K2I2    ",
"    92W2v1u1u1u1K191O1O1O1O1X1U2K1t1t1r1p291O1O1O1O1O1O1O0Q3j2D1O3S2D1I1O1O1O1O1O1O191p2r1r1t1K1W2X1O1O1O1O1e0K1u1u1u1v182I2    ",
"    V2W2v1v182u1u1E0O1O1O1O1O1m0t1t1t1r1L2F2O1O1O1O1O1O1O1c2K3L1L1K3v2O1O1O1O1O1O1O113L2r1t1t1t1m0O1O1O1O1O1D0u1u182v1v1v1I2    ",
"    V2U2u1v1u18282X2O1O1O1O1O181Q2r1r1r1L2P2C0O1O1O1O1O1O113f2e2e2C3e1O1O1O1O1O1O1B0P2L2r1r1r1C231O1O1O1O1O1838282u1v1u172I2    ",
"    ;1U2u1u1u1u182t1Q0O1O1O1O1O1A0t1r1r1r1:1w1k1O1O1O1O1N1B383332373X2L0O1O1O1O1;0W2:1L2r1r1t1W0O1O1O1O1O1Q0t182u1u1u1u1I2I2    ",
"    ;1o2v1u1u182828211O1O1O1O1O1B1S1r1L2O292U2m2E2P031:083:343y2E23393F2K0l0J0q2m2U292O2L2r1S1B1O1O1O1O1O1s2828282u1u1v1I2I2    ",
"    w1o2u1u1u182828292L0O1O1O1O1O1N0k2r1M2;1n2l2P3N3K3F3B37323z2z22373A3G2L1N3P3l2n2;1M2r1R3I1O1O1O1O1O1V1Q2828282u1u1u1I2I2    ",
"    W2n2u1u1u1u18282K2b2O1O1O1O1O1O190m2:1w1s1S3S2R2L1G2A38343b2b2c273e2G2J3R2D1S3s1w1:1p2O0O1O1O1O1O1O1b2K28282u1u1u1u1I2I2    ",
"    W2n2u1u1u18282K2K2K1y0O1O1O1O1O1O190A2W2:2S3D1R2J3G2B39363434363q1A3G2I3M3O3R3:2W2A290O1O1O1O1O1O1C1K1K2K28282u1u1u1I2I2    ",
"    U2S0u1u1u1u1u18282K2S2u0O1O1O1O1O1O1v043m2R3D1M3L1F3M1;3q17373q1X2M1G3L1R2O3R3p2F2u0O1O1O1O1O1O1l0Q3K28282u1u1u1u1u1I2I2    ",
"    U2S0v1u1u1u18282K2K2K2A3o0O1O1O1O1O1O1M0b2R3D1i2K3H3D3B3;3:3:3;3B3f2H3L1M3O3R3d1O1O1O1O1O1O1O1o0A3K2K2K28282u1u1u1v1I2I2    ",
"    o2s1v1u1u1u1u1u182K2K2K2w2O1O1O1O1O1O1O1p0R3S2i2L3I3F3D3M1B3A3B3f2F3S1L3i2D1O3h0O1O1O1O1O1O1O1z2K2K2K282u1u1u1u1u1v1I2I2    ",
"    o2:2v1v1u1u1u1u1u182K1K1K2m0O1O1O1O1O1O191S3P3;2h2L1H3F3E3D3D3E3F3H3L1h2N3P3H3O1O1O1O1O1O1O1f1K2K1K182u1u1u1u1u1v1v1I2I2    ",
"    n2:2O2v1u18282828282K2K1K1K1D2X1O1O1O1O1f0T3Q3O3i2A2L1S1G1G1G1G1S1L1L3R2O3P3j2e0O1O1O1O1l063K1K1K1K28282828282u1v1r1I2v1    ",
"    n2m2;1u1v1u1u1u1828282K2K1K1K1L3R0O1O190h2T2R3D1N3R2L3K3J3J3J3J3L1L3R2N3D1R3T2y2o0O1O1Z1R2K1K1K1K2828282u1u1u1v1u1N2I282    ",
"    ;1m2:2O2v1v1u1u1u1828282K2K1K1K1P2f2f2W2n2p2T3P3O3N3R2A2L3g2g2g2A2R2N3O3P3T3p2S0i2Y233:1K1K1K1K2828282u1u1u1v1v1O2O2I282    ",
"    72p2l2;1r1v1v1u1u1u1828282K2K1K1K1O2:1V2U2s1T2R3P3D1B2i2R2M3M3R2i2B2D1P3R3T2s1o2V2:1O2K1K1K1K2828282u1u1u1v1v1r1;1K2I280    ",
"    70T2S3p2Q2K2v1u18282u1828282K2K1K1P2:192W2S0p2l2R3P3S2O3B2;2N3B2O3S2P3R3l2p2S0W292:1P2K1K1K2828282u18282u1v1K2Q2V2I2v170    ",
"    60N2S3Q3S0:1u1v1u18282u18282K282K2L2M2C2;1U2s1m2l2R3Q3j2j2S2S2j2j2Q3R3l2m2s1U2w1C2M2L2K282K28282u18282u1v1u1:1o282I27260    ",
"      50S3P3j2U2M2v1v1u182u1828282K2K2K1P2:1V2W2U2s1m2l2S3R3k2k2k2k2R3S3l2p2s1U2W2V2:1P2K1K2K2828282u182u1v1v1M2U2N2I28240      ",
"      6042P3O3D1o2O2v1v1u1u1u182828282K2K1r1N292W2n2s1m2T2l2l2T3T3l2l2T2m2s1n2W2V2N2r1K1K282828282u1u1u1v1v1O2U2V2v1v13260      ",
"        6030O3i2R2T2N2v1v1v1u182828282K282K2K2K2K1r1N2C292;1W2o2o2W2;1V2C2N2L2K1K2K2K282K282828282u1v1v1v1N2n2U2P2v12060        ",
"          6010B2A2g2M3S3Q2r1u1u182u182K282K2K2K2K2K2K1K2K2K2K2K2K2K2K2K2K2K1K2K2K2K2K282K282u182u1u1L292T2Q3p2;1O23260          ",
"          606050W2A2L1I3S1G1F3G2D3C3M1A3e2X293q173d2D243c22313F2z2a2E2w2q2u2t2Y2d1Z2d1r2q2y2032343d2A3G1M3P3:2t1506060          ",
"              606070r1P3A2J3G3G2D3C3M1A3;3X293q17363D24333231303z2y2E2w2v2u2t2Y2d111s2r2w2y2F2235383G2h2T3u1006060              ",
"                606060606060606060606060606060606060606060606060606060606060606060606060606060606060606060606060                ",
"                    6060606060606060606060606060606060606060606060606060606060606060606060606060606060606060                    ",
"                                                                                                                                ",
"                                                                                                                                "};
