/* XPM */
static char * Canvas_menutitle_xpm[] = {
"23 23 45 1",
" 	c None",
".	c #3B80AA",
"+	c #3C81AB",
"@	c #3D82AC",
"#	c #3F84AE",
"$	c #458AB4",
"%	c #4489B3",
"&	c #357AA4",
"*	c #4388B2",
"=	c #387DA7",
"-	c #4287B1",
";	c #4186B0",
">	c #468BB5",
",	c #4B90BA",
"'	c #377CA6",
")	c #4A8FB9",
"!	c #3E83AD",
"~	c #4085AF",
"{	c #488DB7",
"]	c #478CB6",
"^	c #5095BF",
"/	c #397EA8",
"(	c #4F94BE",
"_	c #4C91BB",
":	c #5297C1",
"<	c #498EB8",
"[	c #3A7FA9",
"}	c #3479A3",
"|	c #3378A2",
"1	c #367BA5",
"2	c #4E93BD",
"3	c #4D92BC",
"4	c #3176A0",
"5	c #3277A1",
"6	c #5398C2",
"7	c #559AC4",
"8	c #579CC6",
"9	c #5BA0CA",
"0	c #5196C0",
"a	c #569BC5",
"b	c #599EC8",
"c	c #2E739D",
"d	c #5499C3",
"e	c #5DA2CC",
"f	c #589DC7",
".+.@#@#$%##.&+$#@*#+#*=",
"-;.+#+@*%>,$'=%$$)%#*-&",
";%#!~@!%~;),-!*;;{]-]^{",
";-;*~/+$;!*%;#~+.~~..*;",
"^(_::{>)$$,,)__$*<)-#+'",
"~-*<,$-$~!%-.~<*+-{{)(,",
"['}/#~#;+=@@|}./|}&1.%-",
"$%!~%${2<${{;;>%-*@'=/|",
"$$~-%!!%**)3]%*~-{];;]-",
"<];>,$$>;#%>-%];#**!.!+",
"><%><*%,<*],{{,]-<_,{#'",
"/[1/+=&//1[!..%-/=[@>:,",
"%%~-]>*%~@##/';$-;!145|",
"{)$*),<_,]<2)*;*]26(]!!",
"/.'|=[[+.'=[[++/&=#%<78",
"-$;#;-*{>@.!@!~#/1'1|'.",
"673<),_7970:0^6:233)%.[",
"@%$%-.1[-$<_<{,<%<0(2ab",
"'.@-$!=/&c|[+!-#[[+#;2^",
"$;[~),{,].=='#)]#~#!*-/",
">$@!>]$))%~/c4;$~-#/~2{",
"3:_>{>]^^,3,@&.~~>$+[#!",
",30263]d:$0e0>);|]f$.>,"};
