/* XPM */
static char * Canvas_menuback_xpm[] = {
"20 16 3 1",
" 	c None",
".	c #BABABA",
"+	c #6D6D6D",
".....++++++++++.....",
".....++++++++++.....",
".....++++++++++.....",
".....++++++++++.....",
".....++++++++++.....",
".....++++++++++.....",
".....++++++++++.....",
".....++++++++++.....",
"+++++..........+++++",
"+++++..........+++++",
"+++++..........+++++",
"+++++..........+++++",
"+++++..........+++++",
"+++++..........+++++",
"+++++..........+++++",
"+++++..........+++++"};
