/* XPM */
static char * Canvas_background_xpm[] = {
"20 16 24 1",
" 	c None",
".	c #555555",
"+	c #535353",
"@	c #505050",
"#	c #4F4F4F",
"$	c #4E4E4E",
"%	c #434A4F",
"&	c #5B5B5B",
"*	c #595959",
"=	c #4D4D4D",
"-	c #565656",
";	c #515151",
">	c #585858",
",	c #4A4A4A",
"'	c #545454",
")	c #575757",
"!	c #5A5A5A",
"~	c #5C5C5C",
"{	c #525252",
"]	c #4C4C4C",
"^	c #4B4B4B",
"/	c #484848",
"(	c #494949",
"_	c #454545",
".+@#$%%%%%%%%%%.&*#=",
"+-+#=%%%%%%%%%%;>&>,",
"'.-;$%%%%%%%%%%;->*)",
"-.-+$%%%%%%%%%%;+!..",
"''''#%%%%%%%%%%.@+~{",
"{#;;#%%%%%%%%%%+{={~",
";$];@%%%%%%%%%%]$@,=",
"=$]$+%%%%%%%%%%]^=$/",
"%%%%%-*.'*-'.'#%%%%%",
"%%%%%+--+.-{++#%%%%%",
"%%%%%'''+'-+@{#%%%%%",
"%%%%%')-+{.-@$$%%%%%",
"%%%%%.-).++.-#]%%%%%",
"%%%%%#..{+;#+'$%%%%%",
"%%%%%(,.{=@$^;;%%%%%",
"%%%%%;_/.#,#,(@%%%%%"};
