/* XPM */
static char * Canvas_tile_xpm[] = {
"64 64 97 2",
"  	c None",
". 	c #498EB8",
"+ 	c #4287B1",
"@ 	c #357AA4",
"# 	c #3B80AA",
"$ 	c #3A7FA9",
"% 	c #367BA5",
"& 	c #4186B0",
"* 	c #4489B3",
"= 	c #377CA6",
"- 	c #458AB4",
"; 	c #5BA0CA",
"> 	c #4D92BC",
", 	c #2C719B",
"' 	c #2A6F99",
") 	c #3F84AE",
"! 	c #4388B2",
"~ 	c #488DB7",
"{ 	c #3D82AC",
"] 	c #4A8FB9",
"^ 	c #4085AF",
"/ 	c #387DA7",
"( 	c #3C81AB",
"_ 	c #478CB6",
": 	c #4B90BA",
"< 	c #468BB5",
"[ 	c #30759F",
"} 	c #4E93BD",
"| 	c #3378A2",
"1 	c #296E98",
"2 	c #2B709A",
"3 	c #397EA8",
"4 	c #3479A3",
"5 	c #3277A1",
"6 	c #569BC5",
"7 	c #60A5CF",
"8 	c #5095BF",
"9 	c #5196C0",
"0 	c #5398C2",
"a 	c #63A8D2",
"b 	c #5297C1",
"c 	c #4C91BB",
"d 	c #599EC8",
"e 	c #276C96",
"f 	c #3E83AD",
"g 	c #1E638D",
"h 	c #3176A0",
"i 	c #5A9FC9",
"j 	c #6CB1DB",
"k 	c #4F94BE",
"l 	c #2F749E",
"m 	c #559AC4",
"n 	c #5499C3",
"o 	c #246993",
"p 	c #2D729C",
"q 	c #70B5DF",
"r 	c #5EA3CD",
"s 	c #5DA2CC",
"t 	c #256A94",
"u 	c #579CC6",
"v 	c #5CA1CB",
"w 	c #286D97",
"x 	c #64A9D3",
"y 	c #3A7EA8",
"z 	c #2E739D",
"A 	c #377BA5",
"B 	c #6EB3DD",
"C 	c #5FA4CE",
"D 	c #62A7D1",
"E 	c #226791",
"F 	c #6BB0DA",
"G 	c #3377A1",
"H 	c #589DC7",
"I 	c #488CB6",
"J 	c #266B95",
"K 	c #3C80AA",
"L 	c #61A6D0",
"M 	c #1F648E",
"N 	c #1C618B",
"O 	c #1B608A",
"P 	c #236892",
"Q 	c #296C96",
"R 	c #266A94",
"S 	c #3578A2",
"T 	c #2B6F99",
"U 	c #20658F",
"V 	c #65AAD4",
"W 	c #165B85",
"X 	c #66ABD5",
"Y 	c #67ACD6",
"Z 	c #6DB2DC",
"` 	c #68ADD7",
" .	c #6AAFD9",
"..	c #72B7E1",
"+.	c #73B8E2",
"@.	c #195E88",
"#.	c #00456F",
". + @ # $ % & * = - ; > , ' ) ! - ~ $ { ] ^ / * ( @ _ : ^ < < [ @ } : | 1 2 3 ! ^ & _ ! 4 5 ( + < ) / ^ ! # + ] ^ | = { * : 6 7 ",
"_ 8 - & ! 4 $ 9 & 4 0 a < [ # ) * b < / c } $ + ^ % ! : ^ ~ d ( e + 6 _ f , g { ] $ + 8 ) = f 5 ) > 4 % > ) = c c , h < / { i j ",
") ~ k > ] ( l - > $ $ } m _ # % f k k ! - 8 c ] ^ / & + f * m 9 3 % _ n i ] o , c < $ ] : + c ^ % b c = ] k ^ . i + p < < 2 ^ q ",
"# ( ^ k k ! % / ) ~ & h # 8 . , , * - ^ < { ^ b < [ $ 3 | < c * * ^ h { r s 3 t @ ! ) f ) ! > * 3 + ] * * ! { < 9 : # # ~ + 5 s ",
"- & ( : u k c . / ! 6 ^ 2 & v < 1 / _ ( : > / : m ^ f $ ' ) b ) $ ] @ w > x b y p l ( + 3 ( k - # & % 3 } - | ^ > & ( - $ + ~ ) ",
". f @ & : _ c 0 f 3 0 m 5 p ] 0 + 5 # f f } < + 9 8 n ~ , 4 } ] f ~ ^ o h 9 r ; ! z # _ f $ } c { > - 2 - u ^ f > : + ~ - = > r ",
"< < 4 3 _ ) ) } < @ ! u + l / f _ & p 4 ( = f - { { 6 ; 3 [ ^ f ^ . - z w [ { ; i A 4 * 3 = * ~ { + > $ / c . - * ) - - + & . B ",
"* > * f - - f ~ > + ! m b * ) # & 6 ~ 4 _ ! | _ . @ _ 7 k f & # ) } 0 - { = 1 ^ C ~ = - ( = & & + * ) $ & + { . } % @ : ( | ! 9 ",
"! - f + ) { ) & & & + < : } . $ 4 - b + ! } ( { c f # > 0 9 c { ( < } b 8 ~ | h : 9 _ : * + _ f + b . h + > / { m ~ @ ] . | # r ",
"^ . { ! > ) ) ~ f { ^ 3 $ ~ 0 ~ = % ^ * - * & { ( # $ # 3 ] 0 { @ 3 | * d : = @ 3 3 ! > & { ~ ( | & : 4 4 c + ( . * $ & * { { D ",
"^ + + * k ~ + ~ + ^ > < % { k b < * * & 8 : ^ : _ ^ . } / / 6 ] f _ [ ' b i ( f . / = > c ! < f 4 = ) 3 = * ! * : ^ | & f = $ ~ ",
"& # z @ < ^ ( ^ = l ) ] = p / ! ^ - _ $ + c ) * : f ) 0 . = ] > ^ > + E 3 i : # . ~ # < k 9 m * ) ] ! $ ) ) 3 * 0 > # f ! % ) 0 ",
"- : = p + c + < ^ h @ _ * @ @ 4 4 ) * / @ & ) # ! { / ! < ( ^ ! = ^ ~ [ e f _ ( % 3 @ # f - s } | - ~ $ ! + z = 8 ] & * ( @ { F ",
"> 9 ~ # { } d i b _ ! } 9 > > + = & k < ^ ] k c . + - : _ < c ] + < ~ + { % / - ! 3 4 $ ) f u C f 3 + f . } | 2 . : { } - 2 h 6 ",
"< : ^ ( 3 l ) 6 8 ! + < _ ] ] _ + f ~ ] ) { ~ m 9 { & : _ ] 6 6 c 8 : * k c % ) ] & & & ) ) 9 r 0 < { f k u _ @ & 8 * : m & 4 k ",
"{ 9 . & ! 5 2 & : f & * { ~ : / ( _ f & ! | z & 8 & f + % 3 c 9 - * & / ! 8 ( % ! % 4 ) 4 [ ] b : } ( , ! 0 _ & f f { & ~ } . d ",
"/ ] 0 n 9 ! # & . ) + k < . C c | : 0 ~ 8 } 3 @ - > k b ( p * d n > < = ( k . ) . ( p { ( p ) 0 ] } } l G c f $ ~ ( 4 - { / ~ s ",
"= 5 $ b v - $ _ * @ , = { & 6 i 3 5 . : < k k & / f k ; > z h : H s u f # > c . b ~ = f ) / # c 9 9 H ] 3 I + = c _ @ < c 4 ( j ",
": # z 3 u n ( . 0 & p J t [ . m - h h f + f - > ) 2 = k 9 ( z p 3 b i & % ^ $ ^ 8 < $ ^ = p / ( ) c > < ] ~ K = < < | { ] ) [ d ",
"9 > 3 | f n : < H s b ) , e ( c > ~ = = _ + @ - n ^ 4 - k c < 5 e ^ H < 3 + # { > - $ ] _ l % & % & 9 ^ : v + @ * . f & ^ { 5 | ",
"{ : + $ @ / * < * } C 0 3 z 4 / ^ 9 + z f _ % = ~ } - ) f c H * 1 @ } ] & < - _ 9 _ % < 0 - # & ! & : < * ; 6 & * _ - } ~ # + 6 ",
"^ < . - < # % : ~ $ b C . = ) = l ] n 3 # < 3 % @ = * _ = 3 H H % 4 * & f ^ 3 ^ n : 4 @ f + < 3 | f { % { c : < ! 3 @ : u { / L ",
"~ & # ^ k ] = ^ . 3 { i i _ . _ 4 { n } - _ ( { & $ f k . / ~ C c ^ ~ $ $ * @ 4 9 n f ( % 4 c 8 @ / ~ % 4 ] ! & k & [ ^ 0 . @ } ",
"- : { [ ( _ { 3 ( @ h { . ] > : # | { + - . { 4 ( { $ & < & ^ : k } b f 3 ] # [ ~ m . . ) z { m } & : < 4 + - f 8 8 ( ( ] . ~ 7 ",
"{ _ ] ^ % { * ] . f $ ( $ f c 8 < $ $ / ^ 8 ] # @ | 3 + # 4 ) ^ 3 . v } ) c ) , ^ ] ! : ! z | ) + ~ : & 3 { # | ^ _ { f ! f 4 ; ",
"{ 3 { < _ = % ] 6 > ~ < $ 5 * 8 b 9 c ) f } n n } { / : : / ) > { { n n c 6 c % ) < { ] 8 # { ^ | ) 6 > ^ ] < = ( ! # < - & % / ",
": . { 4 : > l | < _ : k ) 1 @ & & k m & @ $ $ ~ n ! 5 ) > & # ] < ( < + * m } { < ~ ( < c & - . / @ } H : > m } ~ _ # ) } _ b C ",
"9 i n / / k : ( % @ * s 0 = % ( = & 6 b - + 4 4 c c $ ( ~ + % { f ( < { % . _ = ~ : / ! _ 4 ^ > # h # * * ^ { ~ 9 _ $ { & ) ^ r ",
"- b 6 _ h 2 ( b - 2 z } d ] + $ | { > b 0 8 < = & n ] + ~ < + ! ^ + c ~ f c c 4 & 9 ( ) 8 ( / b : # { + . . @ l } u ( ^ - 4 $ & ",
"f . n } _ [ M & d ^ , / * . } ^ l | f f - ] - 3 @ & _ ~ - $ ! ~ 3 ( ~ * ( > n = [ ! & { ~ * # - : ~ < + } ; ~ w % i ~ / > * 4 D ",
". ~ m m v n 5 [ 9 s > * = $ 6 8 ( # - & ! 8 > f / @ @ . 9 / @ . / l < - 4 + n - = % @ ) * 3 f + 3 f ~ $ = 0 H % J { - = % * 4 { ",
". ~ + - H i + ' z * b H & 1 ! m ) 3 ~ * & k d n : ^ = & b } ) : . 4 + 8 + & 0 m 0 _ 4 ( : f ( > ^ = . . $ _ v > ( ( { & | e | @ ",
"( b ~ | _ i > $ w e f H b | h ~ f h ( # / $ ) b 6 & 5 | = f < c ~ 3 $ + * - < c ; n f { * f $ ~ ! / ) . ~ : } c > k * ~ ] 2 N f ",
"$ ~ d ) ( 6 d n . 4 / 0 ; } - _ - & ^ f + ! 5 $ d 6 ^ $ = , h c ] # ! # h ^ ( % 9 i + & ] ( % < + = $ | @ c > { ^ ~ - . } + O N ",
"( | * _ f ! ~ k 9 { h & c k 0 c ) _ ] ( ! 9 & 2 - a v k : # 2 f c * k k 3 & ~ $ - r b ! m b ) * . ^ * # 2 & 6 - { f 3 ~ m > z O ",
"f $ % 3 * - 3 + } + | | h / : : / f ] @ [ ~ c [ w f 8 8 > & | @ 4 / < > ! ^ ! $ 3 ~ } * ~ k ~ + f ( * ^ 4 % . > ] ~ / % b i ! ) ",
". k _ 3 * 9 _ _ n > ! . # [ < n ^ { n _ z ) 9 ~ $ h ( k n - = { @ w @ { % f + h 4 ) ( f - ! < c + 3 ^ $ | ( { # < } ) 5 @ : * ) ",
"$ _ c # { - ^ * 9 ] ) } 8 # { > < 3 } ; * { - } m ~ { > s u ~ < > ! { * 3 $ k + / ! & f _ ~ ~ u 0 _ c < @ * c ( ) c - & $ 5 # < ",
"@ $ > ( 5 f 4 = 9 > = { - f ( f # @ = * c _ % = ] ] $ ) b n k - ^ : } ! ) { + * * ) # - _ $ # c } - : c / # _ ! - : ^ { : # e : ",
"c ^ 8 9 ^ ! f 4 > i _ * & { ] > ) { ^ % ^ 6 _ h f * % / k k : 9 ( @ 8 : = + ! 5 & . h $ 8 # , f * ^ + - ^ f 3 4 ) . ( % & * 1 ' ",
"< * & _ k ] $ p $ } > 9 ] $ + k _ ) - f % ~ 9 ) * ] / h ! k > i 6 / ! d ! ) > f 3 > - = k 8 # ! . < > > . b k # f c < f f ) $ = ",
"$ ^ _ / + 6 . z h ( ^ c > 3 3 & ( ^ + 3 h = & ) < c { | [ 4 ) c b + $ } } * ~ * ) ! ~ + ] k ! ! - ) - c & ~ m ] - . & ^ _ f z : ",
"_ ) ~ & $ b a } f = = . 6 _ - : 3 f 9 - $ & & 3 + > ~ ~ & , , + c ^ $ & - : ] / @ f $ $ : _ & < f 4 $ ^ / ( - ! - : = % + { P J ",
"^ & { % % $ : m m f Q # b ] . n & % c > ) + * { f < * } 0 { z { > ~ & { ) c 0 ~ / = % 5 _ } . n . | & _ ( < _ ^ ~ d ] % f f | , ",
"/ ! : @ | # % { H d p R ) ) + 0 - / + & f * { / { # 5 ) n < 4 $ f ! > ( [ ! c k b ) 2 ' % f _ u 8 = f ] 3 + _ 3 { 8 b - + ^ { > ",
"< + 8 + 3 ~ - $ : C } 4 y ( f 6 ] ( ] ^ # 9 c $ * < / $ 9 9 { ) ) # k 9 4 3 _ ! b v ( t z 2 % b 8 { ) _ / # - @ | ) ^ * * % 2 @ ",
"< & & { | ) ! 3 + k > _ & S | c k { ] - @ _ 0 _ . > & # & c k < f & ~ m > { * _ _ H H 3 @ | l _ > # ^ : ! ! c + = ! & ^ < $ t p ",
"< : ~ { 4 % ( $ + : f ( : / T ^ < ) & f = ( & & ~ ! ( f $ | - } 5 5 + - ~ . ( ) . . } c - $ % ) + 3 $ + ) _ k < ) ! ^ ^ c - l @ ",
"~ b u : - + 3 f : 8 ] f k > / & * - } & $ _ & # k . $ < . / 4 0 : , f : ) : : 3 : u * & 8 ! # c _ / ( 3 l ! m + ) ~ @ % _ < ' U ",
"5 & 9 ] < > 3 p < } _ * * - ^ & & { ] . = + * % . 8 $ & > ! = + m ) l * < _ k ^ ^ n 9 + * - # : n ) ^ & 2 % 6 > & m . / & c f e ",
"h l < ~ + } ] 5 # > & + . ( # ! ) % = { $ & * = ) c # $ ] ^ # { ) * / z $ < - ( # { ) } ] # = ) 8 c + ^ z , ) * ! } k & + & & 9 ",
"* @ # ^ + : 9 - 3 & _ . 0 . { _ _ f + = l - } & - > f # : * ) c ! { ] ( 2 + ] f * ~ @ + i ] ( ! c } > < = $ f | 3 < ^ & ! f e p ",
"* { ) 4 [ { _ _ + 4 5 + : * ) ~ . f > . t , ! + ~ } { 3 & { f } k { ^ < | 3 : + ! 8 + 4 _ b - ^ _ - : ] { ! c $ 4 _ ^ f ~ . / O ",
"9 ~ } ] @ / & _ 0 ~ l = ] f # } 8 # ! n ^ ' 1 4 - > & # ( | % . 9 * # ^ # % & { / < ! / 4 = ) & & ( ! + | 3 ~ ) % + { % - } ^ - ",
"c 8 8 9 _ + + ^ n ; < ) > _ $ _ m c ! k ; 0 % , * 0 k 8 ] % | - n u k - ! * ] _ ^ < _ _ ~ ( # c > { ~ } $ / : ~ { - ( | = ~ = E ",
", { } - ^ * f z ( 9 - ) < & $ # { < ! $ < r 0 z 5 - - 9 H f p $ + c H : $ f ] : : ~ ) * k } ! : k ^ < n ] ) . b } 0 : ( { $ 3 [ ",
"/ h c : ( . ] = @ c . f ~ ) f ~ $ = * 3 ' * r ^ w | @ $ 0 8 4 | 4 l - 0 $ , = / * } $ | { f { ! + % # * ) { $ $ - > . # _ ! 1 ] ",
"8 % & ] 3 * 0 < ( . 9 ] k ~ & b b ^ ] k = % 6 s < / 3 # _ d 0 < ! 3 ( u m # $ % # d 9 3 f # 3 c . 3 f ! 3 ) < % 4 ! + # + } l P ",
"u ~ ( ) # % f ) ) ! f ~ k ! # ! } ! < : { @ ( 8 7 : [ % f ! m i ~ & f - b c - $ l - H : > _ 4 * 8 & * > ) { > c + < ] < ! c _ ( ",
"b s b ( + . { z { b $ @ b : ( ^ ! ^ _ _ ( f $ 4 : 7 { J 3 % # m c | f * ^ . : f , p ( < 0 9 / | ) { # ! f 3 ( & > < $ f ! ! $ 9 ",
"< H V 0 * 8 n 4 1 ~ m $ ) i k . * ) ~ c . * ] * $ m x & l $ = & v _ @ _ ~ _ } 8 < 5 [ $ _ u b f = f $ % { f { | { 9 f z / { e W ",
"4 - s v ~ + m : h p + 0 f # 8 H c ^ 9 } & _ * c ~ * u X } 4 { ) k ; ! / : u 6 m H b 3 % ] c i X c ^ > * 4 _ } $ | k i + 3 & ! 1 ",
"$ 4 0 s m 9 : ~ 9 ~ J | H $ J m H % ] L { @ ! z # . / ! Y < g = & ~ k 5 N ( n ] + b 8 ' ^ c l d Z ) & 0 p z d < 5 < 0 u m . ] a ",
"` ) k a H V  .# & ..m M < +.z z j * {  .` / 6 : N H 8 w < X l W : < : k @.#.f d ! < X ^ M 0 5 g +.6 w n < U ~ ; ' & . / d 0 w | "};
