/* XPM */
static char * sandstorm_titledark_xpm[] = {
"500 23 43 1",
" 	c None",
".	c #000000",
"+	c #030F1F",
"@	c #030E1F",
"#	c #030E1D",
"$	c #020E1D",
"%	c #020D1D",
"&	c #020D1B",
"*	c #020C1B",
"=	c #020C19",
"-	c #020B19",
";	c #020B17",
">	c #020A17",
",	c #010A17",
"'	c #010A15",
")	c #010915",
"!	c #010913",
"~	c #010813",
"{	c #010811",
"]	c #010711",
"^	c #01070F",
"/	c #00070F",
"(	c #00060F",
"_	c #00060E",
":	c #00050E",
"<	c #00050D",
"[	c #00050C",
"}	c #00050B",
"|	c #00040B",
"1	c #00040A",
"2	c #000409",
"3	c #000309",
"4	c #000308",
"5	c #000307",
"6	c #000207",
"7	c #000206",
"8	c #000205",
"9	c #000105",
"0	c #000104",
"a	c #000103",
"b	c #000003",
"c	c #000002",
"d	c #000001",
"....................................................................................................................................................................................................................................................................................................................................................................................................................................................................................................................",
"++++++++++++++++++++++++++++++++++++++++++++++++++++++++++++++++++++++++++++++++++++++++++++++++++++++++++++++++++++++++++++++++++++++++++++++++++++++++++++++++++++++++++++++++++++++++++@@@@@@@@@#####$%%%&&********===------------;;;>>>>>,,''')))))))))))))!!!!!!!!~~~~{{{{{{]]]]]]]^^^^^^//(____::::::<<<[[[[[[}}}}}}||||111111222222222233344444455555566667778888888889990000000000000aaaabbbbbccccccccccddddddddddddd.......................................................................................",
"....................................................................................................................................................................................................................................................................................................................................................................................................................................................................................................................",
"++++++++++++++++++++++++++++++++++++++++++++++++++++++++++++++++++++++++++++++++++++++++++++++++++++++++++++++++++++++++++++++++++++++++++++++++++++++++++++++++++++++++++++++++++++++++++@@@@@@@@@#####$%%%&&********===------------;;;>>>>>,,''')))))))))))))!!!!!!!!~~~~{{{{{{]]]]]]]^^^^^^//(____::::::<<<[[[[[[}}}}}}||||111111222222222233344444455555566667778888888889990000000000000aaaabbbbbccccccccccddddddddddddd.......................................................................................",
"....................................................................................................................................................................................................................................................................................................................................................................................................................................................................................................................",
"++++++++++++++++++++++++++++++++++++++++++++++++++++++++++++++++++++++++++++++++++++++++++++++++++++++++++++++++++++++++++++++++++++++++++++++++++++++++++++++++++++++++++++++++++++++++++@@@@@@@@@#####$%%%&&********==-------------;;;>>>>>,,''')))))))))))))!!!!!!!!~~~~{{{{{{]]]]]]]^^^^^^//(____::::::<<<[[[[[[}}}}}}||||111111222222222233344444455555566677778888888889990000000000000aaaabbbbbccccccccccddddddddddddd.......................................................................................",
"....................................................................................................................................................................................................................................................................................................................................................................................................................................................................................................................",
"++++++++++++++++++++++++++++++++++++++++++++++++++++++++++++++++++++++++++++++++++++++++++++++++++++++++++++++++++++++++++++++++++++++++++++++++++++++++++++++++++++++++++++++++++++++++++@@@@@@@@@#####$%%%&&*******===-------------;;;>>>>>,,''')))))))))))))!!!!!!!~~~~~{{{{{{]]]]]]]^^^^^^//(____::::::<<<[[[[[[}}}}}}||||111111222222222233344444455555566677778888888889990000000000000aaaabbbbbccccccccccdddddddddddd........................................................................................",
"....................................................................................................................................................................................................................................................................................................................................................................................................................................................................................................................",
"++++++++++++++++++++++++++++++++++++++++++++++++++++++++++++++++++++++++++++++++++++++++++++++++++++++++++++++++++++++++++++++++++++++++++++++++++++++++++++++++++++++++++++++++++++++++++@@@@@@@@######$%%%&&*******===-------------;;;>>>>>,,'''))))))))))))!!!!!!!!~~~~~{{{{{{]]]]]]]^^^^^^//(____::::::<<<[[[[[[}}}}}}||||111111222222222233344444455555566677778888888889990000000000000aaaabbbbbccccccccccdddddddddddd........................................................................................",
"....................................................................................................................................................................................................................................................................................................................................................................................................................................................................................................................",
"++++++++++++++++++++++++++++++++++++++++++++++++++++++++++++++++++++++++++++++++++++++++++++++++++++++++++++++++++++++++++++++++++++++++++++++++++++++++++++++++++++++++++++++++++++++++++@@@@@@@@######$%%%&&*******===-------------;;;>>>>>,,'''))))))))))))!!!!!!!!~~~~~{{{{{{]]]]]]]^^^^^///(____::::::<<<[[[[[[}}}}}|||||111111222222222233344444455555566677778888888889990000000000000aaaabbbbbccccccccccdddddddddddd........................................................................................",
"....................................................................................................................................................................................................................................................................................................................................................................................................................................................................................................................",
"++++++++++++++++++++++++++++++++++++++++++++++++++++++++++++++++++++++++++++++++++++++++++++++++++++++++++++++++++++++++++++++++++++++++++++++++++++++++++++++++++++++++++++++++++++++++++@@@@@@@@######$%%%&&*******===-------------;;;>>>>>,,'''))))))))))))!!!!!!!!~~~~~{{{{{{]]]]]]]^^^^^///(____::::::<<<[[[[[[}}}}}|||||111111222222222233344444455555566677788888888889990000000000000aaaabbbbbccccccccccdddddddddddd........................................................................................",
"....................................................................................................................................................................................................................................................................................................................................................................................................................................................................................................................",
"++++++++++++++++++++++++++++++++++++++++++++++++++++++++++++++++++++++++++++++++++++++++++++++++++++++++++++++++++++++++++++++++++++++++++++++++++++++++++++++++++++++++++++++++++++++++++@@@@@@@@######$%%%&&*******===-------------;;;>>>>>,,'''))))))))))))!!!!!!!!~~~~~{{{{{{]]]]]]]^^^^^///(____::::::<<<[[[[[[}}}}}|||||111111222222222233444444455555566677788888888889990000000000000aaaabbbbbccccccccccdddddddddddd........................................................................................",
"....................................................................................................................................................................................................................................................................................................................................................................................................................................................................................................................",
"++++++++++++++++++++++++++++++++++++++++++++++++++++++++++++++++++++++++++++++++++++++++++++++++++++++++++++++++++++++++++++++++++++++++++++++++++++++++++++++++++++++++++++++++++++++++++@@@@@@@@######$%%%&&*******===-------------;;;>>>>,,,'''))))))))))))!!!!!!!!~~~~~{{{{{]]]]]]]]^^^^^///(____::::::<<<[[[[[[}}}}}||||1111111222222222233444444455555566677788888888899990000000000000aaaabbbbbccccccccccdddddddddddd........................................................................................",
"....................................................................................................................................................................................................................................................................................................................................................................................................................................................................................................................",
"++++++++++++++++++++++++++++++++++++++++++++++++++++++++++++++++++++++++++++++++++++++++++++++++++++++++++++++++++++++++++++++++++++++++++++++++++++++++++++++++++++++++++++++++++++++++++@@@@@@@@######$%%%&&*******===-------------;;;>>>>,,''''))))))))))))!!!!!!!!~~~~~{{{{{]]]]]]]]^^^^^///(____:::::<<<<[[[[[[}}}}}||||1111111222222222233444444455555566677788888888899990000000000000aaaabbbbbccccccccccdddddddddddd........................................................................................",
"....................................................................................................................................................................................................................................................................................................................................................................................................................................................................................................................",
"+++++++++++++++++++++++++++++++++++++++++++++++++++++++++++++++++++++++++++++++++++++++++++++++++++++++++++++++++++++++++++++++++++++++++++++++++++++++++++++++++++++++++++++++++++++++++@@@@@@@@@######$%%%&&*******===-------------;;>>>>>,,''''))))))))))))!!!!!!!!~~~~~{{{{{]]]]]]]]^^^^^///(____:::::<<<<[[[[[[}}}}}||||1111111222222222233444444455555566677788888888899990000000000000aaaabbbbbccccccccccdddddddddddd........................................................................................",
"...................................................................................................................................................................................................................................................................................................................................................................................................................................................................................................................."};
