/* XPM */
static char * sandstorm_tile_xpm[] = {
"64 64 276 2",
"  	c None",
". 	c #000000",
"+ 	c #000001",
"@ 	c #000102",
"# 	c #000203",
"$ 	c #000204",
"% 	c #000304",
"& 	c #000305",
"* 	c #000306",
"= 	c #000406",
"- 	c #000407",
"; 	c #000508",
"> 	c #000509",
", 	c #000609",
"' 	c #00060A",
") 	c #00060B",
"! 	c #00070B",
"~ 	c #00070C",
"{ 	c #00080D",
"] 	c #00090E",
"^ 	c #00090F",
"/ 	c #000A10",
"( 	c #000A11",
"_ 	c #000B12",
": 	c #000C13",
"< 	c #000C14",
"[ 	c #000D15",
"} 	c #000D16",
"| 	c #000E16",
"1 	c #010E17",
"2 	c #010F18",
"3 	c #010F19",
"4 	c #01101A",
"5 	c #01101B",
"6 	c #01111B",
"7 	c #01111C",
"8 	c #01121D",
"9 	c #01121E",
"0 	c #02131F",
"a 	c #021420",
"b 	c #021421",
"c 	c #021522",
"d 	c #031523",
"e 	c #031624",
"f 	c #031725",
"g 	c #031726",
"h 	c #031826",
"i 	c #031827",
"j 	c #031828",
"k 	c #031929",
"l 	c #031A2A",
"m 	c #041A2B",
"n 	c #041B2B",
"o 	c #000910",
"p 	c #041B2C",
"q 	c #021320",
"r 	c #041B2D",
"s 	c #163758",
"t 	c #163658",
"u 	c #163557",
"v 	c #163455",
"w 	c #153454",
"x 	c #153352",
"y 	c #143251",
"z 	c #14314F",
"A 	c #14304E",
"B 	c #132F4C",
"C 	c #132E4B",
"D 	c #122D49",
"E 	c #122C47",
"F 	c #122B46",
"G 	c #112A44",
"H 	c #112943",
"I 	c #112841",
"J 	c #102740",
"K 	c #10263E",
"L 	c #0F253D",
"M 	c #0F243B",
"N 	c #0F243A",
"O 	c #0E2338",
"P 	c #0E2237",
"Q 	c #0D2135",
"R 	c #0D2034",
"S 	c #0D1F32",
"T 	c #0C1E31",
"U 	c #041C2D",
"V 	c #051C2E",
"W 	c #163657",
"X 	c #163556",
"Y 	c #153353",
"Z 	c #153251",
"` 	c #132D49",
" .	c #122C48",
"..	c #112A45",
"+.	c #112842",
"@.	c #102840",
"#.	c #10273F",
"$.	c #0F263D",
"%.	c #0F253C",
"&.	c #0E2339",
"*.	c #0D2136",
"=.	c #0D1F33",
"-.	c #0C1D30",
";.	c #0C1C2E",
">.	c #051D2F",
",.	c #051D30",
"'.	c #143150",
").	c #132F4D",
"!.	c #132D4A",
"~.	c #122B47",
"{.	c #122B45",
"].	c #112942",
"^.	c #102841",
"/.	c #0E2136",
"(.	c #0B1C2D",
"_.	c #0B1B2B",
":.	c #051E30",
"<.	c #051E31",
"[.	c #153252",
"}.	c #14304F",
"|.	c #142F4D",
"1.	c #132E4A",
"2.	c #0E2238",
"3.	c #0D2035",
"4.	c #0D2033",
"5.	c #0C1F32",
"6.	c #0C1E30",
"7.	c #0C1D2F",
"8.	c #0B1B2C",
"9.	c #0B1A2A",
"0.	c #0A1929",
"a.	c #051E32",
"b.	c #051F32",
"c.	c #061F32",
"d.	c #153354",
"e.	c #0F233A",
"f.	c #0B1C2E",
"g.	c #0B1A2B",
"h.	c #0A1827",
"i.	c #091726",
"j.	c #061F33",
"k.	c #062034",
"l.	c #0A1828",
"m.	c #0A1726",
"n.	c #091725",
"o.	c #091623",
"p.	c #062135",
"q.	c #112B45",
"r.	c #0B1B2D",
"s.	c #0A1A2A",
"t.	c #0A1928",
"u.	c #091624",
"v.	c #081522",
"w.	c #081421",
"x.	c #062035",
"y.	c #072136",
"z.	c #072237",
"A.	c #091523",
"B.	c #08131F",
"C.	c #07121E",
"D.	c #00080E",
"E.	c #072238",
"F.	c #14304D",
"G.	c #081320",
"H.	c #07131E",
"I.	c #07121D",
"J.	c #07111B",
"K.	c #072339",
"L.	c #163555",
"M.	c #081420",
"N.	c #07111C",
"O.	c #06101A",
"P.	c #060F19",
"Q.	c #08243A",
"R.	c #08243B",
"S.	c #10263D",
"T.	c #060E17",
"U.	c #050D16",
"V.	c #08253C",
"W.	c #000B13",
"X.	c #132E4C",
"Y.	c #122D48",
"Z.	c #091522",
"`.	c #07101B",
" +	c #060F18",
".+	c #050E16",
"++	c #050D15",
"@+	c #050C13",
"#+	c #08253D",
"$+	c #09263E",
"%+	c #143250",
"&+	c #050E17",
"*+	c #050C14",
"=+	c #040B12",
"-+	c #040A11",
";+	c #09273F",
">+	c #10263F",
",+	c #091625",
"'+	c #04090F",
")+	c #03080E",
"!+	c #092740",
"~+	c #092840",
"{+	c #040B13",
"]+	c #040A10",
"^+	c #03090E",
"/+	c #03080D",
"(+	c #03070B",
"_+	c #092841",
":+	c #0A2942",
"<+	c #010E18",
"[+	c #153455",
"}+	c #0C1E32",
"|+	c #060E18",
"1+	c #03090F",
"2+	c #03070C",
"3+	c #02060A",
"4+	c #020509",
"5+	c #0A2943",
"6+	c #020407",
"7+	c #010306",
"8+	c #0A2A44",
"9+	c #0A2A45",
"0+	c #0F253B",
"a+	c #02060B",
"b+	c #020609",
"c+	c #020508",
"d+	c #010406",
"e+	c #010305",
"f+	c #0C2B45",
"g+	c #0C2B46",
"h+	c #112A43",
"i+	c #010407",
"j+	c #010204",
"k+	c #0C2C47",
"l+	c #0C2C48",
"m+	c #0C2D49",
"n+	c #0E2137",
"o+	c #000101",
"p+	c #0D2D4A",
"q+	c #0D2E4A",
"r+	c #0D2E4B",
"s+	c #0D2F4C",
"t+	c #0A192A",
"u+	c #0D2F4D",
"v+	c #0F304D",
"w+	c #031623",
"x+	c #0C1D2E",
"y+	c #0F304E",
"z+	c #0F304F",
"A+	c #0E233A",
"B+	c #07111D",
"C+	c #000103",
"D+	c #0F314F",
"E+	c #0F3150",
"F+	c #08131E",
"G+	c #0F3251",
"H+	c #103251",
"I+	c #0A1826",
"J+	c #040910",
"K+	c #02070B",
"L+	c #010203",
"M+	c #103352",
"N+	c #031928",
"O+	c #103353",
"P+	c #103354",
"Q+	c #103454",
"R+	c #123455",
"S+	c #123556",
"T+	c #072338",
"U+	c #08263D",
"V+	c #0A2842",
"W+	c #0C2D48",
"X+	c #0D2D49",
"Y+	c #103252",
"Z+	c #123657",
"`+	c #123658",
". . + @ @ # $ % & * = - ; > , ' ) ! ~ { { ] ^ ^ / ( _ _ : < < [ } | 1 2 3 3 4 5 6 7 8 8 9 0 0 a b c c d e e f g h i j k k l m n ",
". + @ @ # $ % & * = - ; > , ' ) ! ~ { { ] ^ o / ( _ _ : < < [ } | 1 2 3 3 4 5 6 7 8 8 9 0 0 a b c c d e e f g h i j k k l m n p ",
"+ @ @ # $ % & * = - ; > , ' ) ! ~ { { ] ^ o / ( _ _ : < < [ } | 1 2 3 3 4 5 6 7 8 8 9 0 q a b c c d e e f g h i j k k l m n p r ",
"@ @ # s s s s s s s s s s s s s s s s s s s s s s s s s s s s s s s t u v w x y z A B C D E F G H I J K L M N O P Q R S T p r U ",
"@ # $ . . . . . . . . . . . . . . . . . . . . . . . . . . . . . . . . . . . . . . . . . . . . . . . . . . . . . . . . . . r U V ",
"# $ % s s s s s s s s s s s s s s s s s s s s s s s s s s s s s s W X w Y Z z A B C `  .F ..H +.@.#.$.%.N &.P *.R =.T -.;.U V >.",
"$ % & . . . . . . . . . . . . . . . . . . . . . . . . . . . . . . . . . . . . . . . . . . . . . . . . . . . . . . . . . . V >.,.",
"% & * s s s s s s s s s s s s s s s s s s s s s s s s s s s s W X w Y Z '.A ).C !. .~.{.G ].^.#.K %.M &.P /.R =.T -.;.(._.>.,.:.",
"& * - . . . . . . . . . . . . . . . . . . . . . . . . . . . . . . . . . . . . . . . . . . . . . . . . . . . . . . . . . . ,.:.<.",
"* - - s s s s s s s s s s s s s s s s s s s s s s s s s s t X v Y [.'.}.|.B 1.D E F G H ^.#.K %.M &.2./.3.4.5.6.7.(.8.9.0.:.<.a.",
"- - ; . . . . . . . . . . . . . . . . . . . . . . . . . . . . . . . . . . . . . . . . . . . . . . . . . . . . . . . . . . <.b.c.",
"- ; > s s s s s s s s s s s s s s s s s s s s s s s s t u v d.x y z A B 1.D E F G H I J K L M e.O P Q R S T 7.f.8.g.0.h.i.b.c.j.",
"; > , . . . . . . . . . . . . . . . . . . . . . . . . . . . . . . . . . . . . . . . . . . . . . . . . . . . . . . . . . . c.j.k.",
"> , ' s s s s s s s s s s s s s s s s s s s s s s s W X w x Z z A B C `  .F ..H +.J #.$.%.N &.P *.R =.T 7.;.8.g.0.l.m.n.o.j.k.k.",
", ' ) . . . . . . . . . . . . . . . . . . . . . . . . . . . . . . . . . . . . . . . . . . . . . . . . . . . . . . . . . . k.k.p.",
"' ) ! s s s s s s s s s s s s s s s s s s s s s W X w Y Z '.A ).C !. .~.q.G ].^.#.K %.N &.P /.R =.T -.;.r._.s.t.h.n.u.v.w.x.p.y.",
") ! ~ . . . . . . . . . . . . . . . . . . . . . . . . . . . . . . . . . . . . . . . . . . . . . . . . . . . . . . . . . . p.y.z.",
"~ ~ { s s s s s s s s s s s s s s s s s s s t X v Y [.'.}.|.B 1.D E F G ].^.#.K %.M &.2./.3.=.5.6.7.(.8.9.0.h.i.u.A.w.B.C.y.z.z.",
"~ { D.. . . . . . . . . . . . . . . . . . . . . . . . . . . . . . . . . . . . . . . . . . . . . . . . . . . . . . . . . . z.z.E.",
"{ D.] s s s s s s s s s s s s s s s s s t u v d.x y z F.B 1.D E F G H I J K L M e.O P Q R S T 7.f.8.9.0.h.i.u.A.w.G.H.I.J.z.E.K.",
"D.] ^ . . . . . . . . . . . . . . . . . . . . . . . . . . . . . . . . . . . . . . . . . . . . . . . . . . . . . . . . . . E.K.K.",
"] ^ / s s s s s s s s s s s s s s s s W L.w x Z z A B C `  .F ..H +.J #.$.%.N &.P Q R S T 7.f.8.g.0.l.m.n.o.v.M.B.I.N.O.P.K.K.Q.",
"^ / / . . . . . . . . . . . . . . . . . . . . . . . . . . . . . . . . . . . . . . . . . . . . . . . . . . . . . . . . . . K.Q.R.",
"/ / ( s s s s s s s s s s s s s s W X w Y Z '.A ).C !. .~.q.G ].^.#.S.%.N &.P /.R =.T -.;.r._.s.t.h.n.u.v.w.B.C.N.O.P.T.U.Q.R.V.",
"/ ( _ . . . . . . . . . . . . . . . . . . . . . . . . . . . . . . . . . . . . . . . . . . . . . . . . . . . . . . . . . . R.V.V.",
"( _ W.s s s s s s s s s s s s t X v Y [.'.}.|.X.1.Y.E {.G ].^.#.K %.M &.2./.3.=.5.6.7.(.8.s.0.h.n.u.Z.w.B.C.N.`.P. +.+++@+V.V.#+",
"_ W.: . . . . . . . . . . . . . . . . . . . . . . . . . . . . . . . . . . . . . . . . . . . . . . . . . . . . . . . . . . V.#+$+",
"W.: < s s s s s s s s s s t u v d.[.%+z F.B 1.D E F G H ^.J K L M e.2.P Q R S T 7.(.8.9.0.h.i.u.A.w.G.H.I.J.O. +&+++*+=+-+#+$+$+",
": < [ . . . . . . . . . . . . . . . . . . . . . . . . . . . . . . . . . . . . . . . . . . . . . . . . . . . . . . . . . . $+$+;+",
"< [ [ s s s s s s s s t W L.w x Z z A B C `  .F ..H +.J >+$.%.N O P Q R S T 7.f.8.g.0.l.m.,+o.v.M.B.I.N.O.P.T.++*+=+-+'+)+$+;+!+",
"[ [ } . . . . . . . . . . . . . . . . . . . . . . . . . . . . . . . . . . . . . . . . . . . . . . . . . . . . . . . . . . ;+!+~+",
"[ } 1 s s s s s s s W X w Y Z '.A ).C !. .~...G ].@.#.S.%.N &.P /.R =.T -.;.r.g.s.t.h.n.u.v.w.B.I.N.O.P.T.U.*+{+-+]+^+/+(+!+~+_+",
"} 1 1 . . . . . . . . . . . . . . . . . . . . . . . . . . . . . . . . . . . . . . . . . . . . . . . . . . . . . . . . . . _+_+:+",
"1 <+2 s s s s s t X [+Y [.'.}.|.C 1.Y.E {.G ].^.#.K %.M &.2./.3.=.}+6.7.(.8.s.t.h.n.u.Z.w.B.C.N.`.P.|+.+++@+=+]+1+/+2+3+4+_+:+5+",
"<+2 3 . . . . . . . . . . . . . . . . . . . . . . . . . . . . . . . . . . . . . . . . . . . . . . . . . . . . . . . . . . :+5+5+",
"2 3 4 s s s t u v Y [.%+z F.B 1.D E F G H ^.J K L M e.2.P Q R S 6.7.(.8.9.0.h.i.u.A.w.G.C.I.J.O. +&+++*+=+-+'+/+2+3+4+6+7+5+5+8+",
"3 4 4 . . . . . . . . . . . . . . . . . . . . . . . . . . . . . . . . . . . . . . . . . . . . . . . . . . . . . . . . . . 5+8+9+",
"4 4 6 s t W L.w x Z z A B C `  .F ..H +.J >+$.0+N O P Q R S T 7.f.8.g.0.l.i.,+o.v.M.B.I.N.O. +T.++*+=+-+'+)+2+a+b+c+d+e+# 8+9+f+",
"4 6 7 . . . . . . . . . . . . . . . . . . . . . . . . . . . . . . . . . . . . . . . . . . . . . . . . . . . . . . . . . . 9+f+g+",
"6 7 7 W X w Y Z '.A ).C !. .~...h+].@.#.$.%.N &.P /.R =.T -.;.r.g.s.t.h.n.u.v.M.B.I.N.O.P.T.U.*+{+-+]+^+/+(+3+c+i+e+j+@ + f+g+k+",
"7 7 8 . . . . . . . . . . . . . . . . . . . . . . . . . . . . . . . . . . . . . . . . . . . . . . . . . . . . . . . . . . g+k+l+",
"7 8 9 [+Y [.'.A |.C !.Y.E {.G ].^.#.K %.M &.2./.3.=.}+6.7.(._.s.t.h.n.u.Z.w.B.C.N.`.P.|+.+++@+=+]+1+/+2+3+c+i+e+j+@ + . . k+l+l+",
"8 9 0 . . . . . . . . . . . . . . . . . . . . . . . . . . . . . . . . . . . . . . . . . . . . . . . . . . . . . . . . . . l+l+m+",
"9 0 0 [.'.z F.B 1.D E F G H ^.J K L M e.2.n+Q 4.S 6.7.(.8.9.0.h.i.u.A.w.G.C.I.J.O. +&+++*+=+]+1+/+2+3+4+6+7+j+# o+. . . . l+m+p+",
"0 0 a . . . . . . . . . . . . . . . . . . . . . . . . . . . . . . . . . . . . . . . . . . . . . . . . . . . . . . . . . . m+p+q+",
"0 a b z A B C `  .F ..H +.J K L 0+N O P Q R S T 7.f.8.g.0.l.i.,+o.v.M.B.I.J.O. +T.++*+=+-+'+)+2+a+b+c+d+e+# @ . . . . . . p+q+r+",
"a b b . . . . . . . . . . . . . . . . . . . . . . . . . . . . . . . . . . . . . . . . . . . . . . . . . . . . . . . . . . q+r+s+",
"b b c ).C !. .F ..H ].@.#.$.%.N &.P /.R =.T -.;.r.g.t+t.h.n.o.v.M.B.I.N.O.P.T.U.*+{+-+]+^+/+(+3+c+i+e+j+@ . . . . . . . . r+s+s+",
"b c d . . . . . . . . . . . . . . . . . . . . . . . . . . . . . . . . . . . . . . . . . . . . . . . . . . . . . . . . . . s+u+v+",
"c d w+!.Y.E {.G ].^.#.K %.M &.2./.3.=.}+-.x+(._.s.t.h.n.u.v.w.B.C.N.`.P.|+U.++@+=+]+1+/+(+3+c+i+e+j+@ + . . . . . . . . . u+v+y+",
"d e e . . . . . . . . . . . . . . . . . . . . . . . . . . . . . . . . . . . . . . . . . . . . . . . . . . . . . . . . . . v+y+z+",
"e e f E F G H ^.J K L M A+2./.Q 4.S 6.7.(.8.9.0.h.i.u.A.w.G.C.B+J.O. +&+++@+=+]+1+/+2+3+4+6+7+j+C+o+. . . . . . . . . . . y+z+D+",
"e f g . . . . . . . . . . . . . . . . . . . . . . . . . . . . . . . . . . . . . . . . . . . . . . . . . . . . . . . . . . z+D+E+",
"f g g ..H I J K L 0+N O P Q R S T 7.f.8.g.0.l.i.,+A.v.M.F+I.J.O. +T.++*+=+-+'+)+2+a+4+c+d+e+# @ . . . . . . . . . . . . . D+E+G+",
"g g i . . . . . . . . . . . . . . . . . . . . . . . . . . . . . . . . . . . . . . . . . . . . . . . . . . . . . . . . . . E+G+H+",
"h i j ].@.#.$.%.N &.P /.R =.T -.;.r.g.t+t.I+n.o.v.M.B.I.N.O.P.T.U.*+{+-+J+^+/+K+3+c+i+e+L+@ . . . . . . . . . . . . . . . G+H+M+",
"i j N+. . . . . . . . . . . . . . . . . . . . . . . . . . . . . . . . . . . . . . . . . . . . . . . . . . . . . . . . . . H+M+O+",
"j N+k #.K %.M &.2./.3.=.T -.x+(._.s.t.h.n.u.v.w.B.C.N.`.P.|+U.++@+=+]+^+/+(+3+c+i+e+j+@ + . . . . . . . . . . . . . . . . M+O+P+",
"N+k l . . . . . . . . . . . . . . . . . . . . . . . . . . . . . . . . . . . . . . . . . . . . . . . . . . . . . . . . . . O+P+Q+",
"k l m L M &.2./.Q 4.S 6.7.(.8.9.0.h.i.u.A.w.G.C.B+J.O. +.+++@+=+]+1+/+2+3+4+6+7+j+C+o+. . . . . . . . . . . . . . . . . . P+Q+R+",
"l m n . . . . . . . . . . . . . . . . . . . . . . . . . . . . . . . . . . . . . . . . . . . . . . . . . . . . . . . . . . Q+R+S+",
"m n p r U V >.>.:.<.a.c.j.k.k.p.y.y.z.E.T+K.Q.R.R.V.#+U+$+;+;+!+_+V+:+5+8+8+9+g+g+k+l+W+X+p+r+r+s+u+v+y+z+D+E+H+Y+M+O+P+Q+R+S+S+",
"n p r U V >.>.:.<.a.c.j.k.k.p.y.y.z.E.T+K.Q.R.R.V.#+U+$+;+;+!+_+V+:+5+8+8+9+g+g+k+l+W+X+p+r+r+s+u+v+y+z+D+E+H+Y+M+O+P+Q+R+S+S+Z+",
"p r U V >.>.:.<.a.c.j.k.k.p.y.y.z.E.K.K.Q.R.R.V.#+U+$+;+;+!+_+V+:+5+8+8+9+g+g+k+l+W+X+p+r+r+s+u+v+y+z+D+E+H+Y+M+O+P+Q+R+S+S+Z+`+"};
