/* XPM */
static char * blue_shade_xpm[] = {
"64 64 608 2",
"  	c None",
". 	c #7B8082",
"+ 	c #6A797F",
"@ 	c #477482",
"# 	c #477782",
"$ 	c #4A7C82",
"% 	c #457682",
"& 	c #417281",
"* 	c #4A3C32",
"= 	c #362B24",
"- 	c #2F2820",
"; 	c #2F2822",
"> 	c #2F2922",
", 	c #2F2923",
"' 	c #2F2A24",
") 	c #2F2B24",
"! 	c #2E2B25",
"~ 	c #2E2B27",
"{ 	c #2E2D27",
"] 	c #2D2D28",
"^ 	c #2B2E28",
"/ 	c #2B2F28",
"( 	c #2B2F29",
"_ 	c #2A2F29",
": 	c #292F29",
"< 	c #292F2A",
"[ 	c #292F2B",
"} 	c #282F2B",
"| 	c #272F2D",
"1 	c #252F2E",
"2 	c #242F2E",
"3 	c #232F2E",
"4 	c #222F2F",
"5 	c #222E2F",
"6 	c #202E2F",
"7 	c #1F2E2F",
"8 	c #1F2D2F",
"9 	c #1C2D2F",
"0 	c #1C2B2F",
"a 	c #1B2A2F",
"b 	c #19292F",
"c 	c #16282F",
"d 	c #25434D",
"e 	c #386473",
"f 	c #3E6F7D",
"g 	c #3C6B7C",
"h 	c #483B31",
"i 	c #050505",
"j 	c #05050A",
"k 	c #0F1822",
"l 	c #325D6F",
"m 	c #366374",
"n 	c #40342B",
"o 	c #0A131C",
"p 	c #0D141C",
"q 	c #0F141E",
"r 	c #0F161F",
"s 	c #0F181F",
"t 	c #0F1920",
"u 	c #111922",
"v 	c #131922",
"w 	c #1C2834",
"x 	c #273444",
"y 	c #3D6E80",
"z 	c #38697B",
"A 	c #443A2F",
"B 	c #0F1924",
"C 	c #1C2B3F",
"D 	c #223248",
"E 	c #1F2F44",
"F 	c #447882",
"G 	c #396B7D",
"H 	c #443A30",
"I 	c #1E2E40",
"J 	c #1F2F42",
"K 	c #203044",
"L 	c #223244",
"M 	c #233245",
"N 	c #243446",
"O 	c #253447",
"P 	c #273748",
"Q 	c #28384A",
"R 	c #29394A",
"S 	c #2A3B4C",
"T 	c #2B3C4D",
"U 	c #334759",
"V 	c #324353",
"W 	c #417782",
"X 	c #376A7D",
"Y 	c #3D7682",
"Z 	c #33677D",
"` 	c #443B32",
" .	c #1C2D40",
"..	c #1F2F41",
"+.	c #203043",
"@.	c #223245",
"#.	c #243345",
"$.	c #273747",
"%.	c #28394A",
"&.	c #293A4C",
"*.	c #2D3D4D",
"=.	c #2E3E4E",
"-.	c #374A5C",
";.	c #334556",
">.	c #3B7482",
",.	c #32667D",
"'.	c #443C32",
").	c #397282",
"!.	c #30647C",
"~.	c #1F2E41",
"{.	c #1F3043",
"].	c #223144",
"^.	c #293A4B",
"/.	c #2B3B4C",
"(.	c #2B3D4D",
"_.	c #2E3E4D",
":.	c #2F3F4F",
"<.	c #304151",
"[.	c #394C5F",
"}.	c #364758",
"|.	c #387182",
"1.	c #2F637C",
"2.	c #433D33",
"3.	c #346F82",
"4.	c #2D627B",
"5.	c #433E34",
"6.	c #1C2B40",
"7.	c #1E2E41",
"8.	c #253446",
"9.	c #273647",
"0.	c #28374A",
"a.	c #304051",
"b.	c #324251",
"c.	c #324452",
"d.	c #3B4D5F",
"e.	c #384A5A",
"f.	c #336E82",
"g.	c #2B5F7A",
"h.	c #423E34",
"i.	c #326B82",
"j.	c #295D79",
"k.	c #423F34",
"l.	c #253647",
"m.	c #293A4A",
"n.	c #2F3E4F",
"o.	c #314151",
"p.	c #324352",
"q.	c #334453",
"r.	c #344555",
"s.	c #3E5163",
"t.	c #3A4C5C",
"u.	c #306A82",
"v.	c #285C79",
"w.	c #413F37",
"x.	c #2F6982",
"y.	c #255A77",
"z.	c #414037",
"A.	c #1C2E40",
"B.	c #344554",
"C.	c #364656",
"D.	c #374756",
"E.	c #405364",
"F.	c #3D4D5F",
"G.	c #2A6782",
"H.	c #235977",
"I.	c #404038",
"J.	c #286682",
"K.	c #225676",
"L.	c #2F4051",
"M.	c #324252",
"N.	c #344656",
"O.	c #384857",
"P.	c #394A59",
"Q.	c #445666",
"R.	c #3F515F",
"S.	c #286282",
"T.	c #205275",
"U.	c #404138",
"V.	c #255F82",
"W.	c #1F5174",
"X.	c #3F413A",
"Y.	c #334553",
"Z.	c #344556",
"`.	c #384A59",
" +	c #3A4B5A",
".+	c #3B4C5A",
"++	c #455969",
"@+	c #415363",
"#+	c #235E81",
"$+	c #1C5174",
"%+	c #3F423A",
"&+	c #225C81",
"*+	c #1C4D73",
"=+	c #3E423A",
"-+	c #223044",
";+	c #283748",
">+	c #364756",
",+	c #384756",
"'+	c #384A58",
")+	c #3A4A59",
"!+	c #3C4D5B",
"~+	c #3E4D5D",
"{+	c #475C6B",
"]+	c #445664",
"^+	c #205A80",
"/+	c #1C4C72",
"(+	c #3E433B",
"_+	c #1F567E",
":+	c #194A71",
"<+	c #3E443B",
"[+	c #2D3E4D",
"}+	c #2F3E4E",
"|+	c #324453",
"1+	c #3D4D5C",
"2+	c #3E4F5D",
"3+	c #40515F",
"4+	c #4A5F6C",
"5+	c #465866",
"6+	c #1C557D",
"7+	c #164870",
"8+	c #3C443C",
"9+	c #1B527D",
"0+	c #14476F",
"a+	c #3C443D",
"b+	c #384A57",
"c+	c #3B4D5B",
"d+	c #425260",
"e+	c #4D606E",
"f+	c #485A68",
"g+	c #19517C",
"h+	c #13456E",
"i+	c #3B443E",
"j+	c #164D7A",
"k+	c #13416E",
"l+	c #3C4D5C",
"m+	c #3E4E5D",
"n+	c #3F515E",
"o+	c #41525F",
"p+	c #435462",
"q+	c #445663",
"r+	c #4F6370",
"s+	c #4A5D6A",
"t+	c #144A79",
"u+	c #11406C",
"v+	c #3A443E",
"w+	c #144A78",
"x+	c #0F3E6B",
"y+	c #3A443F",
"z+	c #384856",
"A+	c #3A4A5A",
"B+	c #3E515E",
"C+	c #435362",
"D+	c #445562",
"E+	c #455663",
"F+	c #455764",
"G+	c #526672",
"H+	c #4D5F6B",
"I+	c #134777",
"J+	c #0F3C6A",
"K+	c #134576",
"L+	c #0F3B69",
"M+	c #384440",
"N+	c #425362",
"O+	c #475965",
"P+	c #475A66",
"Q+	c #546873",
"R+	c #4F626E",
"S+	c #0F4474",
"T+	c #0A3767",
"U+	c #0F3F74",
"V+	c #0A3466",
"W+	c #374440",
"X+	c #3A4C5A",
"Y+	c #445462",
"Z+	c #475964",
"`+	c #4A5A66",
" @	c #4A5C68",
".@	c #566A75",
"+@	c #51646F",
"@@	c #0A3D72",
"#@	c #053364",
"$@	c #374441",
"%@	c #0A3B71",
"&@	c #053263",
"*@	c #344441",
"=@	c #3B4D5A",
"-@	c #415260",
";@	c #465864",
">@	c #475966",
",@	c #4A5C67",
"'@	c #4B5D69",
")@	c #4C5F69",
"!@	c #596C77",
"~@	c #536670",
"{@	c #0A396F",
"]@	c #053062",
"^@	c #05386E",
"/@	c #052D5F",
"(@	c #344442",
"_@	c #445662",
":@	c #465764",
"<@	c #485A66",
"[@	c #4C5E69",
"}@	c #4D5F6A",
"|@	c #4D606B",
"1@	c #5B6F78",
"2@	c #566972",
"3@	c #05336D",
"4@	c #052B5F",
"5@	c #334442",
"6@	c #05326B",
"7@	c #05295D",
"8@	c #324443",
"9@	c #4A5B67",
"0@	c #4A5D68",
"a@	c #4F626B",
"b@	c #51636D",
"c@	c #5D7179",
"d@	c #586A74",
"e@	c #05306A",
"f@	c #05285A",
"g@	c #052F67",
"h@	c #052759",
"i@	c #304344",
"j@	c #455664",
"k@	c #4C5D69",
"l@	c #4E626B",
"m@	c #51636C",
"n@	c #51636E",
"o@	c #52656E",
"p@	c #5F727B",
"q@	c #5A6C75",
"r@	c #052B66",
"s@	c #052356",
"t@	c #052863",
"u@	c #052256",
"v@	c #2F4244",
"w@	c #4D5F69",
"x@	c #51626C",
"y@	c #52646E",
"z@	c #53666F",
"A@	c #556770",
"B@	c #63747D",
"C@	c #5D6F77",
"D@	c #052862",
"E@	c #052052",
"F@	c #2E4144",
"G@	c #05255F",
"H@	c #051F51",
"I@	c #52666F",
"J@	c #55666F",
"K@	c #566870",
"L@	c #64777E",
"M@	c #5F7078",
"N@	c #05235E",
"O@	c #051C51",
"P@	c #2D4144",
"Q@	c #05225C",
"R@	c #051C4D",
"S@	c #2B4044",
"T@	c #4F626C",
"U@	c #54666F",
"V@	c #566770",
"W@	c #566971",
"X@	c #586A72",
"Y@	c #596B72",
"Z@	c #677880",
"`@	c #607279",
" #	c #051F5A",
".#	c #05194D",
"+#	c #051C58",
"@#	c #05184C",
"##	c #293F44",
"$#	c #51646E",
"%#	c #576A72",
"&#	c #5A6B73",
"*#	c #5B6D74",
"=#	c #697982",
"-#	c #63747B",
";#	c #051C56",
">#	c #05164A",
",#	c #283F44",
"'#	c #051B55",
")#	c #051448",
"!#	c #283E44",
"~#	c #576972",
"{#	c #596A72",
"]#	c #5A6C74",
"^#	c #5C6E75",
"/#	c #5D6F76",
"(#	c #6B7C82",
"_#	c #65767D",
":#	c #051952",
"<#	c #051347",
"[#	c #273E44",
"}#	c #051451",
"|#	c #051145",
"1#	c #273D44",
"2#	c #566871",
"3#	c #5C6E74",
"4#	c #5D6E75",
"5#	c #5F6F76",
"6#	c #5F7077",
"7#	c #6E7D82",
"8#	c #67777D",
"9#	c #05144D",
"0#	c #050F44",
"a#	c #253C44",
"b#	c #05134D",
"c#	c #050F41",
"d#	c #243C44",
"e#	c #5C6D74",
"f#	c #5E6F76",
"g#	c #607177",
"h#	c #627278",
"i#	c #6F8082",
"j#	c #69797F",
"k#	c #05134A",
"l#	c #050F40",
"m#	c #233B44",
"n#	c #050F4A",
"o#	c #050A3E",
"p#	c #223B44",
"q#	c #111C25",
"r#	c #52656F",
"s#	c #5A6C73",
"t#	c #5F7177",
"u#	c #627279",
"v#	c #637479",
"w#	c #718182",
"x#	c #6B7B81",
"y#	c #050F47",
"z#	c #050A3C",
"A#	c #223A44",
"B#	c #050A45",
"C#	c #05053B",
"D#	c #457481",
"E#	c #1F3A44",
"F#	c #131C28",
"G#	c #5B6C74",
"H#	c #637379",
"I#	c #64747A",
"J#	c #66757B",
"K#	c #728282",
"L#	c #6D7D82",
"M#	c #050A44",
"N#	c #050539",
"O#	c #457582",
"P#	c #2F5362",
"Q#	c #0A111B",
"R#	c #192838",
"S#	c #253851",
"T#	c #283D57",
"U#	c #24374E",
"V#	c #050A47",
"W#	c #050537",
"X#	c #477982",
"Y#	c #407180",
"Z#	c #1C2838",
"`#	c #28384C",
" $	c #304459",
".$	c #31445A",
"+$	c #32465C",
"@$	c #33475D",
"#$	c #344A5F",
"$$	c #384B5F",
"%$	c #384C62",
"&$	c #3A4D63",
"*$	c #3B5163",
"=$	c #3D5165",
"-$	c #3E5266",
";$	c #405467",
">$	c #415669",
",$	c #44586A",
"'$	c #45596B",
")$	c #465B6C",
"!$	c #475C6D",
"~$	c #4A5E6E",
"{$	c #4A5F70",
"]$	c #4C6271",
"^$	c #4D6372",
"/$	c #4E6472",
"($	c #516674",
"_$	c #526774",
":$	c #536976",
"<$	c #566A77",
"[$	c #566B77",
"}$	c #586C78",
"|$	c #5A6E79",
"1$	c #5B6F7A",
"2$	c #5C707C",
"3$	c #5E727C",
"4$	c #5F727D",
"5$	c #62747E",
"6$	c #637580",
"7$	c #637681",
"8$	c #657782",
"9$	c #677882",
"0$	c #687982",
"a$	c #697B82",
"b$	c #6A7C82",
"c$	c #6C7D82",
"d$	c #6E8082",
"e$	c #6F8182",
"f$	c #708282",
"g$	c #748282",
"h$	c #768282",
"i$	c #778282",
"j$	c #788282",
"k$	c #798282",
"l$	c #7C8282",
"m$	c #828282",
"n$	c #050847",
"o$	c #050534",
"p$	c #417282",
"q$	c #3E7080",
"r$	c #3A6A7C",
"s$	c #447982",
"t$	c #4A8282",
"u$	c #468182",
"v$	c #447F82",
"w$	c #407C82",
"x$	c #3E7B82",
"y$	c #3C7982",
"z$	c #3A7882",
"A$	c #387782",
"B$	c #377482",
"C$	c #347282",
"D$	c #327182",
"E$	c #306F82",
"F$	c #2E6E82",
"G$	c #296C82",
"H$	c #286882",
"I$	c #276682",
"J$	c #246482",
"K$	c #226382",
"L$	c #206082",
"M$	c #1F5C82",
"N$	c #1C5A82",
"O$	c #1C5782",
"P$	c #1B5682",
"Q$	c #165382",
"R$	c #145182",
"S$	c #144D81",
"T$	c #134B7F",
"U$	c #114A7D",
"V$	c #0F467C",
"W$	c #0F447B",
"X$	c #0A4079",
"Y$	c #0A3E78",
"Z$	c #0A3C77",
"`$	c #053A75",
" %	c #053874",
".%	c #053772",
"+%	c #053271",
"@%	c #05306F",
"#%	c #052E6E",
"$%	c #052B6C",
"%%	c #05296A",
"&%	c #052768",
"*%	c #052466",
"=%	c #052264",
"-%	c #052063",
";%	c #051F60",
">%	c #051C5F",
",%	c #051B5C",
"'%	c #05195A",
")%	c #051657",
"!%	c #051456",
"~%	c #051453",
"{%	c #051151",
"]%	c #050F4F",
"^%	c #050F4D",
"/%	c #050A4B",
"(%	c #050A4C",
"_%	c #050530",
":%	c #3D6E7D",
"<%	c #386879",
"[%	c #346274",
"}%	c #37687B",
"|%	c #34697D",
"1%	c #275A78",
"2%	c #255977",
"3%	c #235677",
"4%	c #205676",
"5%	c #1F5175",
"6%	c #1C4D74",
"7%	c #194C72",
"8%	c #184871",
"9%	c #16476F",
"0%	c #14456E",
"a%	c #13446E",
"b%	c #11416C",
"c%	c #0F406B",
"d%	c #0A3967",
"e%	c #0A3766",
"f%	c #0A3464",
"g%	c #052F5F",
"h%	c #052B5D",
"i%	c #05285C",
"j%	c #05275A",
"k%	c #052559",
"l%	c #05144A",
"m%	c #051348",
"n%	c #050A40",
"o%	c #050532",
"p%	c #05052F",
"q%	c #05052E",
". . . . . . . . . . . . . . . . . . . . . . . . . . . . . . . . . . + + + + + + + + + + + + + + + + + + + + + + + + + @ # $ % & ",
". . * = - ; ; ; > , ' ) ! ! ! ~ { ] ^ ^ ^ ^ / ( _ : < [ } } } } } | | 1 1 1 2 3 4 4 4 5 6 7 7 8 9 0 0 0 0 0 a b b b c c d e f g ",
". h i i i i i i i i i i i i i i i i i i i i i i i i i i i i i i i i i i i i i i i i i i i i i i i i i i i i i i i i i i j k l m ",
". n i j o o o o o o o o o o o o o o o o o o o o o o o o o o o o o o o o o o o o o o o o o o o o o o o p q r r r s t u v w x y z ",
". A i B C C C C C C C C C C C C C C C C C C C C C C C C C C C C C C C C C C C C C C C C C C C C C C C C C C C C C C C C D E F G ",
". H i B C C C C C C C C C C C C C C C C C C C C C C C C C C C C C C C C C C C C C C C C C C C C I J K L M N O P Q R S T U V W X ",
". H i B C C C C C C C C C C C C C C C C C C C C C C C C C C C C C C C C C C C C C C C C C C C C C C C C C C C C C C C C D E Y Z ",
". ` i B C C C C C C C C C C C C C C C C C C C C C C C C C C C C C C C C C C C C C C C C C C  ...+.L @.#.O $.Q %.&.T *.=.-.;.>.,.",
". '.i B C C C C C C C C C C C C C C C C C C C C C C C C C C C C C C C C C C C C C C C C C C C C C C C C C C C C C C C C D E ).!.",
". '.i B C C C C C C C C C C C C C C C C C C C C C C C C C C C C C C C C C C C C C C C C  .~.{.].@.#.O $.Q Q ^./.(._.:.<.[.}.|.1.",
". 2.i B C C C C C C C C C C C C C C C C C C C C C C C C C C C C C C C C C C C C C C C C C C C C C C C C C C C C C C C C D E 3.4.",
". 5.i B C C C C C C C C C C C C C C C C C C C C C C C C C C C C C C C C C C C C C C 6.7.J ].L M 8.9.0.Q ^./.T _.:.a.b.c.d.e.f.g.",
". h.i B C C C C C C C C C C C C C C C C C C C C C C C C C C C C C C C C C C C C C C C C C C C C C C C C C C C C C C C C D E i.j.",
". k.i B C C C C C C C C C C C C C C C C C C C C C C C C C C C C C C C C C C C C 6.7.J K L M N l.P Q m.S T _.n.a.o.p.q.r.s.t.u.v.",
". w.i B C C C C C C C C C C C C C C C C C C C C C C C C C C C C C C C C C C C C C C C C C C C C C C C C C C C C C C C C D E x.y.",
". z.i B C C C C C C C C C C C C C C C C C C C C C C C C C C C C C C C C C C C A...+.L @.N O P Q %.S T *.=.a.o.p.c.B.C.D.E.F.G.H.",
". I.i B C C C C C C C C C C C C C C C C C C C C C C C C C C C C C C C C C C C C C C C C C C C C C C C C C C C C C C C C D E J.K.",
". I.i B C C C C C C C C C C C C C C C C C C C C C C C C C C C C C C C C C  ...{.].@.#.O $.Q %.^./.*.=.L.<.M.c.B.N.D.O.P.Q.R.S.T.",
". U.i B C C C C C C C C C C C C C C C C C C C C C C C C C C C C C C C C C C C C C C C C C C C C C C C C C C C C C C C C D E V.W.",
". X.i B C C C C C C C C C C C C C C C C C C C C C C C C C C C C C C C  .~.J ].@.#.O 9.Q Q ^./.T _.:.a.b.c.Y.Z.D.O.`. +.+++@+#+$+",
". %+i B C C C C C C C C C C C C C C C C C C C C C C C C C C C C C C C C C C C C C C C C C C C C C C C C C C C C C C C C D E &+*+",
". =+i B C C C C C C C C C C C C C C C C C C C C C C C C C C C C C 6.7.J -+L M N 9.;+Q ^.S T _.:.a.o.c.q.r.>+,+'+)+.+!+~+{+]+^+/+",
". (+i B C C C C C C C C C C C C C C C C C C C C C C C C C C C C C C C C C C C C C C C C C C C C C C C C C C C C C C C C D E _+:+",
". <+i B C C C C C C C C C C C C C C C C C C C C C C C C C C C C I J K L M N O P Q R S T [+}+a.o.p.|+r.C.D.'+)+.+!+1+2+3+4+5+6+7+",
". 8+i B C C C C C C C C C C C C C C C C C C C C C C C C C C C C C C C C C C C C C C C C C C C C C C C C C C C C C C C C D E 9+0+",
". a+i B C C C C C C C C C C C C C C C C C C C C C C C C C C  ...+.L @.#.O $.Q %.&.T *.=.L.<.p.c.B.N.D.b+P. +c+1+2+R.3+d+e+f+g+h+",
"+ i+i B C C C C C C C C C C C C C C C C C C C C C C C C C C C C C C C C C C C C C C C C C C C C C C C C C C C C C C C C D E j+k+",
"+ i+i B C C C C C C C C C C C C C C C C C C C C C C C C  .~.{.].@.#.O $.Q Q ^./.(._.:.<.M.c.B.Z.D.O.P. +.+l+m+n+3+o+p+q+r+s+t+u+",
"+ v+i B C C C C C C C C C C C C C C C C C C C C C C C C C C C C C C C C C C C C C C C C C C C C C C C C C C C C C C C C D E w+x+",
"+ y+i B C C C C C C C C C C C C C C C C C C C C C C 6.7.J ].L M 8.9.0.Q ^./.T _.:.a.b.c.q.r.D.z+`.A+.+l+~+B+3+o+C+D+E+F+G+H+I+J+",
"+ y+i B C C C C C C C C C C C C C C C C C C C C C C C C C C C C C C C C C C C C C C C C C C C C C C C C C C C C C C C C D E K+L+",
"+ M+i B C C C C C C C C C C C C C C C C C C C C 6.7.J K L M N l.P Q m.S T _.n.a.o.p.q.r.>+D.'+)+.+!+1+2+3+o+N+D+E+F+O+P+Q+R+S+T+",
"+ M+i B C C C C C C C C C C C C C C C C C C C C C C C C C C C C C C C C C C C C C C C C C C C C C C C C C C C C C C C C D E U+V+",
"+ W+i B C C C C C C C C C C C C C C C C C C C A...+.L @.N O P Q %.S T *.=.a.o.p.c.B.C.D.'+P.X+!+1+2+R.o+d+Y+q+E+Z+P+`+ @.@+@@@#@",
"+ $@i B C C C C C C C C C C C C C C C C C C C C C C C C C C C C C C C C C C C C C C C C C C C C C C C C C C C C C C C C D E %@&@",
"+ *@i B C C C C C C C C C C C C C C C C C  ...{.].@.#.O $.Q %.^./.*.=.L.<.M.c.B.N.D.O.P. +=@l+m+R.3+-@Y+q+E+;@>@`+,@'@)@!@~@{@]@",
"+ *@i B C C C C C C C C C C C C C C C C C C C C C C C C C C C C C C C C C C C C C C C C C C C C C C C C C C C C C C C C D E ^@/@",
"+ (@i B C C C C C C C C C C C C C C C  .~.J ].@.#.O 9.Q Q ^./.T _.:.a.b.c.Y.Z.D.O.`. +.+l+m+B+3+o+C+_@E+:@>@<@,@'@[@}@|@1@2@3@4@",
"+ 5@i B C C C C C C C C C C C C C C C C C C C C C C C C C C C C C C C C C C C C C C C C C C C C C C C C C C C C C C C C D E 6@7@",
"+ 8@i B C C C C C C C C C C C C C 6.7.J -+L M N 9.;+Q ^.S T _.:.a.o.c.q.r.>+,+'+)+.+!+~+B+3+o+C+D+E+F+O+<@9@0@[@}@|@a@b@c@d@e@f@",
"+ 8@i B C C C C C C C C C C C C C C C C C C C C C C C C C C C C C C C C C C C C C C C C C C C C C C C C C C C C C C C C D E g@h@",
"+ i@i B C C C C C C C C C C C C I J K L M N O P Q R S T [+}+a.o.p.|+r.C.D.'+)+.+!+1+2+3+o+d+D+q+j@O+P+9@ @k@}@H+l@m@n@o@p@q@r@s@",
"+ i@i B C C C C C C C C C C C C C C C C C C C C C C C C C C C C C C C C C C C C C C C C C C C C C C C C C C C C C C C C D E t@u@",
"+ v@i B C C C C C C C C C C  ...+.L @.#.O $.Q %.&.T *.=.L.<.p.c.B.N.D.b+P. +c+1+2+R.3+d+Y+q+E+;@P+`+,@'@w@H+l@x@n@y@z@A@B@C@D@E@",
"+ F@i B C C C C C C C C C C C C C C C C C C C C C C C C C C C C C C C C C C C C C C C C C C C C C C C C C C C C C C C C D E G@H@",
"+ F@i B C C C C C C C C  .~.{.].@.#.O $.Q Q ^./.(._.:.<.M.c.B.Z.D.O.P. +.+l+m+n+3+o+p+q+E+;@>@<@,@'@)@}@|@x@b@y@I@J@K@2@L@M@N@O@",
"+ P@i B C C C C C C C C C C C C C C C C C C C C C C C C C C C C C C C C C C C C C C C C C C C C C C C C C C C C C C C C D E Q@R@",
"+ S@i B C C C C C C 6.7.J ].L M 8.9.0.Q ^./.T _.:.a.b.c.q.r.D.z+`.A+.+l+~+B+3+o+C+D+E+F+O+<@9@0@[@}@|@T@b@y@I@U@V@W@X@Y@Z@`@ #.#",
"+ S@i B C C C C C C C C C C C C C C C C C C C C C C C C C C C C C C C C C C C C C C C C C C C C C C C C C C C C C C C C D E +#@#",
"+ ##i B C C C C 6.7.J K L M N l.P Q m.S T _.n.a.o.p.q.r.>+D.'+)+.+!+1+2+3+o+N+D+E+F+O+P+9@ @[@}@H+a@m@$#o@U@V@W@%#Y@&#*#=#-#;#>#",
"+ ,#i B C C C C C C C C C C C C C C C C C C C C C C C C C C C C C C C C C C C C C C C C C C C C C C C C C C C C C C C C D E '#)#",
"+ !#i B C C C A...+.L @.N O P Q %.S T *.=.a.o.p.c.B.C.D.'+P.X+!+1+2+R.o+d+Y+q+E+Z+P+`+ @k@}@H+l@m@n@y@z@A@W@~#{#&#]#^#/#(#_#:#<#",
"+ [#i B C C C C C C C C C C C C C C C C C C C C C C C C C C C C C C C C C C C C C C C C C C C C C C C C C C C C C C C C D E }#|#",
"+ 1#i B C  ...{.].@.#.O $.Q %.^./.*.=.L.<.M.c.B.N.D.O.P. +=@l+m+R.3+-@Y+q+E+;@>@`+,@'@)@}@l@x@b@y@z@A@2#2@X@&#]#3#4#5#6#7#8#9#0#",
"+ a#i B C C C C C C C C C C C C C C C C C C C C C C C C C C C C C C C C C C C C C C C C C C C C C C C C C C C C C C C C D E b#c#",
"+ d#i B ~.J ].@.#.O 9.Q Q ^./.T _.:.a.b.c.Y.Z.D.O.`. +.+l+m+B+3+o+C+_@E+:@>@<@,@'@[@}@|@T@b@y@I@U@K@W@X@Y@]#e#4#f#6#g#h#i#j#k#l#",
"+ m#i B C C C C C C C C C C C C C C C C C C C C C C C C C C C C C C C C C C C C C C C C C C C C C C C C C C C C C C C C D E n#o#",
"+ p#i q#-+L M N 9.;+Q ^.S T _.:.a.o.c.q.r.>+,+'+)+.+!+~+B+3+o+C+D+E+F+O+<@9@0@[@}@|@a@b@$#r#U@V@W@%#Y@s#*#^#f#6#t#h#u#v#w#x#y#z#",
"+ A#i B C C C C C C C C C C C C C C C C C C C C C C C C C C C C C C C C C C C C C C C C C C C C C C C C C C C C C C C C D E B#C#",
"D#E#i F#M N O P Q R S T [+}+a.o.p.|+r.C.D.'+)+.+!+1+2+3+o+d+D+q+j@O+P+9@ @k@}@H+l@m@n@o@z@V@W@~#Y@&#G#^#/#6#t#h#u#H#I#J#K#L#M#N#",
"O#P#Q#R#S#S#S#S#S#S#S#S#S#S#S#S#S#S#S#S#S#S#S#S#S#S#S#S#S#S#S#S#S#S#S#S#S#S#S#S#S#S#S#S#S#S#S#S#S#S#S#S#S#S#S#S#S#S#S#S#T#U#V#W#",
"X#Y#Z#`# $.$+$@$#$$$%$&$*$=$-$;$>$,$'$)$!$~${$]$^$/$($_$:$<$[$}$|$1$2$3$4$5$6$7$8$9$0$a$b$c$L#d$e$f$K#K#g$g$h$i$j$k$k$l$m$m$n$o$",
"p$q$r$s$t$u$v$w$x$y$z$A$B$C$D$E$F$G$H$I$J$K$L$M$N$O$P$Q$R$S$T$U$V$W$X$Y$Z$`$ %.%+%@%#%$%%%&%*%=%-%;%>%,%'%)%!%~%{%]%^%/%(%n$N#_%",
":%<%[%}%X |%,.!.1.4.g.j.v.1%2%3%4%5%$+6%*+7%8%9%0%a%b%c%J+L+d%e%f%&@]@g%/@h%i%j%k%s@u@E@O@O@R@.#@#l%m%<#|#0#c#n%o#z#C#N#W#o%p%q%"};
