/* XPM */
static char * BlueJean_menu_xpm[] = {
"150 21 599 2",
"  	c None",
". 	c #263D51",
"+ 	c #2B4256",
"@ 	c #32495D",
"# 	c #2E4559",
"$ 	c #2F465A",
"% 	c #233A4E",
"& 	c #2A4155",
"* 	c #31485C",
"= 	c #283F53",
"- 	c #253C50",
"; 	c #1F364A",
"> 	c #344B5F",
", 	c #2D4458",
"' 	c #2C4357",
") 	c #30475B",
"! 	c #294054",
"~ 	c #364D61",
"{ 	c #243B4F",
"] 	c #334A5E",
"^ 	c #374E62",
"/ 	c #354C60",
"( 	c #3A5165",
"_ 	c #20374B",
": 	c #22394D",
"< 	c #283E52",
"[ 	c #30465A",
"} 	c #22384B",
"| 	c #21374A",
"1 	c #283D50",
"2 	c #1E3346",
"3 	c #273C4E",
"4 	c #2F4456",
"5 	c #233749",
"6 	c #263A4C",
"7 	c #273B4C",
"8 	c #1B2F40",
"9 	c #1D3041",
"0 	c #243748",
"a 	c #192C3C",
"b 	c #1E3141",
"c 	c #2D3F4F",
"d 	c #203242",
"e 	c #182A39",
"f 	c #203241",
"g 	c #253645",
"h 	c #162736",
"i 	c #1F303E",
"j 	c #2D3E4C",
"k 	c #20303E",
"l 	c #122230",
"m 	c #21313E",
"n 	c #20303D",
"o 	c #192835",
"p 	c #253442",
"q 	c #172633",
"r 	c #12212E",
"s 	c #253340",
"t 	c #202E3B",
"u 	c #111F2B",
"v 	c #172531",
"w 	c #192632",
"x 	c #0A1723",
"y 	c #14212C",
"z 	c #24313C",
"A 	c #202C37",
"B 	c #111D28",
"C 	c #14202A",
"D 	c #17232D",
"E 	c #0E1923",
"F 	c #15202A",
"G 	c #131E28",
"H 	c #0A151E",
"I 	c #0F1A23",
"J 	c #131D26",
"K 	c #111B24",
"L 	c #0A141C",
"M 	c #0E1820",
"N 	c #151E26",
"O 	c #101921",
"P 	c #0D161D",
"Q 	c #101920",
"R 	c #040C13",
"S 	c #0A1219",
"T 	c #11191F",
"U 	c #070F16",
"V 	c #050C13",
"W 	c #030A11",
"X 	c #0F161C",
"Y 	c #0B1218",
"Z 	c #000208",
"` 	c #070D13",
" .	c #10161B",
"..	c #03090E",
"+.	c #050A0F",
"@.	c #070C11",
"#.	c #060B0F",
"$.	c #070C10",
"%.	c #000000",
"&.	c #384F63",
"*.	c #3C5367",
"=.	c #3B5266",
"-.	c #395064",
";.	c #40576B",
">.	c #273E52",
",.	c #3D5468",
"'.	c #394F63",
").	c #32485C",
"!.	c #243A4D",
"~.	c #2D4356",
"{.	c #304558",
"].	c #263B4E",
"^.	c #324759",
"/.	c #314658",
"(.	c #293D4F",
"_.	c #304456",
":.	c #213546",
"<.	c #2C3F50",
"[.	c #304354",
"}.	c #2A3D4D",
"|.	c #203343",
"1.	c #2A3C4C",
"2.	c #2C3E4E",
"3.	c #263847",
"4.	c #2D3F4E",
"5.	c #2D3E4D",
"6.	c #1B2C3B",
"7.	c #20313F",
"8.	c #2E3F4D",
"9.	c #223240",
"0.	c #1A2A38",
"a.	c #273744",
"b.	c #233340",
"c.	c #1F2E3B",
"d.	c #202F3D",
"e.	c #1D2C39",
"f.	c #283643",
"g.	c #192734",
"h.	c #13212D",
"i.	c #1C2A36",
"j.	c #23303C",
"k.	c #1C2935",
"l.	c #16232E",
"m.	c #1D2A35",
"n.	c #1D2934",
"o.	c #16222C",
"p.	c #19252F",
"q.	c #0C1721",
"r.	c #1A252F",
"s.	c #111C25",
"t.	c #101A23",
"u.	c #0D1720",
"v.	c #1C262E",
"w.	c #1F2931",
"x.	c #1E272F",
"y.	c #121B23",
"z.	c #151E25",
"A.	c #1A232A",
"B.	c #0C141B",
"C.	c #1B2329",
"D.	c #1B232A",
"E.	c #131A21",
"F.	c #161D24",
"G.	c #1E252B",
"H.	c #091016",
"I.	c #050B11",
"J.	c #181E24",
"K.	c #0E1419",
"L.	c #050B10",
"M.	c #12171C",
"N.	c #10151A",
"O.	c #0B1014",
"P.	c #3E5569",
"Q.	c #354B5F",
"R.	c #2E4457",
"S.	c #384E61",
"T.	c #2F4457",
"U.	c #24394C",
"V.	c #1C3042",
"W.	c #213547",
"X.	c #304455",
"Y.	c #2F4354",
"Z.	c #324556",
"`.	c #1D3040",
" +	c #324454",
".+	c #223443",
"++	c #2B3D4C",
"@+	c #2B3C4B",
"#+	c #1C2D3C",
"$+	c #213240",
"%+	c #283947",
"&+	c #21313F",
"*+	c #2B3B48",
"=+	c #243340",
"-+	c #273644",
";+	c #21303D",
">+	c #293744",
",+	c #1C2A37",
"'+	c #1F2D39",
")+	c #2C3A46",
"!+	c #2A3743",
"~+	c #13202C",
"{+	c #17242F",
"]+	c #2B3843",
"^+	c #212D38",
"/+	c #15212C",
"(+	c #202C36",
"_+	c #26323C",
":+	c #1D2832",
"<+	c #202B35",
"[+	c #222D37",
"}+	c #1A252E",
"|+	c #1E2831",
"1+	c #1C262F",
"2+	c #0D171F",
"3+	c #121C24",
"4+	c #1A232B",
"5+	c #0A131B",
"6+	c #081118",
"7+	c #0A131A",
"8+	c #0B131A",
"9+	c #192127",
"0+	c #121A21",
"a+	c #060D14",
"b+	c #070E15",
"c+	c #11181E",
"d+	c #11171D",
"e+	c #1A2026",
"f+	c #000409",
"g+	c #0F1419",
"h+	c #161B20",
"i+	c #0A0F13",
"j+	c #080D11",
"k+	c #344A5E",
"l+	c #273D51",
"m+	c #273D50",
"n+	c #253A4D",
"o+	c #1F3447",
"p+	c #2B4052",
"q+	c #283D4F",
"r+	c #182C3E",
"s+	c #283C4E",
"t+	c #324657",
"u+	c #1E3243",
"v+	c #1C2F40",
"w+	c #26394A",
"x+	c #1C2F3F",
"y+	c #172A3A",
"z+	c #273949",
"A+	c #1B2D3C",
"B+	c #172938",
"C+	c #1F303F",
"D+	c #2C3D4B",
"E+	c #192937",
"F+	c #132331",
"G+	c #263643",
"H+	c #1D2D3A",
"I+	c #182734",
"J+	c #1D2C3A",
"K+	c #101F2C",
"L+	c #1E2C39",
"M+	c #1A2835",
"N+	c #0F1D29",
"O+	c #15232F",
"P+	c #1D2A36",
"Q+	c #15222E",
"R+	c #16222D",
"S+	c #131F2A",
"T+	c #1B2731",
"U+	c #101B25",
"V+	c #121D27",
"W+	c #141F29",
"X+	c #0D1821",
"Y+	c #101B24",
"Z+	c #19232C",
"`+	c #162028",
" @	c #131C24",
".@	c #060F16",
"+@	c #182128",
"@@	c #171F25",
"#@	c #10181F",
"$@	c #01080F",
"%@	c #00060C",
"&@	c #060C12",
"*@	c #12181E",
"=@	c #02080D",
"-@	c #040A0F",
";@	c #13181D",
">@	c #03080D",
",@	c #000408",
"'@	c #090E12",
")@	c #21384C",
"!@	c #3B5165",
"~@	c #2F4559",
"{@	c #2C4255",
"]@	c #32485B",
"^@	c #314659",
"/@	c #23384B",
"(@	c #2E4355",
"_@	c #354A5C",
":@	c #2A3E50",
"<@	c #283C4D",
"[@	c #182C3D",
"}@	c #233647",
"|@	c #344758",
"1@	c #283B4B",
"2@	c #2B3D4D",
"3@	c #273948",
"4@	c #304150",
"5@	c #1E2F3E",
"6@	c #293A48",
"7@	c #172735",
"8@	c #1C2C3A",
"9@	c #1F2F3C",
"0@	c #1C2C39",
"a@	c #1C2B38",
"b@	c #1E2D3B",
"c@	c #1B2A37",
"d@	c #23313E",
"e@	c #162431",
"f@	c #14222E",
"g@	c #23313D",
"h@	c #273440",
"i@	c #172430",
"j@	c #111E29",
"k@	c #1C2934",
"l@	c #18242F",
"m@	c #0E1A25",
"n@	c #1D2933",
"o@	c #1E2933",
"p@	c #1B252E",
"q@	c #111B23",
"r@	c #1F2830",
"s@	c #161F27",
"t@	c #121B22",
"u@	c #131C23",
"v@	c #091118",
"w@	c #1A2228",
"x@	c #0F171E",
"y@	c #020910",
"z@	c #121920",
"A@	c #1C2329",
"B@	c #141B21",
"C@	c #161C22",
"D@	c #090F14",
"E@	c #151A1F",
"F@	c #0D1217",
"G@	c #13181C",
"H@	c #3F566A",
"I@	c #31475B",
"J@	c #2A4053",
"K@	c #33495C",
"L@	c #2E4356",
"M@	c #34485A",
"N@	c #2C4051",
"O@	c #354859",
"P@	c #334657",
"Q@	c #243747",
"R@	c #1F3242",
"S@	c #314353",
"T@	c #293B4B",
"U@	c #233544",
"V@	c #344655",
"W@	c #2C3D4C",
"X@	c #2B3C4A",
"Y@	c #1E2E3C",
"Z@	c #243442",
"`@	c #30404D",
" #	c #253542",
".#	c #2A3947",
"+#	c #202F3C",
"@#	c #293743",
"##	c #222F3B",
"$#	c #212E39",
"%#	c #14202B",
"&#	c #1C2832",
"*#	c #1B2630",
"=#	c #1C2731",
"-#	c #17212A",
";#	c #121C25",
">#	c #1B252D",
",#	c #1A242C",
"'#	c #0F1820",
")#	c #1F282F",
"!#	c #0E161D",
"~#	c #1F272D",
"{#	c #151D24",
"]#	c #0A1118",
"^#	c #151C22",
"/#	c #0E151B",
"(#	c #13191F",
"_#	c #080E13",
":#	c #060C11",
"<#	c #14191E",
"[#	c #11161A",
"}#	c #2C4256",
"|#	c #263C4F",
"1#	c #2F4558",
"2#	c #22374A",
"3#	c #2D4254",
"4#	c #253A4C",
"5#	c #1F3345",
"6#	c #293D4E",
"7#	c #243849",
"8#	c #1E3142",
"9#	c #283A4A",
"0#	c #1F3140",
"a#	c #213241",
"b#	c #233442",
"c#	c #162634",
"d#	c #293946",
"e#	c #1E2E3B",
"f#	c #263542",
"g#	c #273542",
"h#	c #192733",
"i#	c #1E2B37",
"j#	c #1F2C37",
"k#	c #1C2833",
"l#	c #25313B",
"m#	c #19242E",
"n#	c #212C36",
"o#	c #131E27",
"p#	c #1C2730",
"q#	c #202A33",
"r#	c #1A242D",
"s#	c #101A22",
"t#	c #09131B",
"u#	c #0B141B",
"v#	c #060E15",
"w#	c #091117",
"x#	c #020A11",
"y#	c #00060D",
"z#	c #0C131A",
"A#	c #10171D",
"B#	c #01080E",
"C#	c #02080E",
"D#	c #0B1117",
"E#	c #01070C",
"F#	c #0C1116",
"G#	c #02070B",
"H#	c #03080C",
"I#	c #354B5E",
"J#	c #31475A",
"K#	c #273C4F",
"L#	c #223648",
"M#	c #2F4355",
"N#	c #253849",
"O#	c #2D4051",
"P#	c #223545",
"Q#	c #233646",
"R#	c #2E4050",
"S#	c #253747",
"T#	c #243645",
"U#	c #1A2B3A",
"V#	c #253644",
"W#	c #142432",
"X#	c #22323F",
"Y#	c #192936",
"Z#	c #172634",
"`#	c #142330",
" $	c #14222F",
".$	c #101E2B",
"+$	c #182632",
"@$	c #16232F",
"#$	c #0E1B27",
"$$	c #0F1C27",
"%$	c #13202B",
"&$	c #121E29",
"*$	c #18242E",
"=$	c #0A1620",
"-$	c #07121C",
";$	c #0C1720",
">$	c #0F1922",
",$	c #08121B",
"'$	c #0F1921",
")$	c #0C151D",
"!$	c #161F26",
"~$	c #192229",
"{$	c #182026",
"]$	c #0D141B",
"^$	c #0E151C",
"/$	c #0D141A",
"($	c #0D1319",
"_$	c #151B21",
":$	c #11171C",
"<$	c #0B1116",
"[$	c #0A0F14",
"}$	c #0F1418",
"|$	c #3C5266",
"1$	c #304659",
"2$	c #293E51",
"3$	c #34495B",
"4$	c #2C4153",
"5$	c #25394A",
"6$	c #263949",
"7$	c #2D4050",
"8$	c #2F4150",
"9$	c #304251",
"0$	c #2A3B4A",
"a$	c #273847",
"b$	c #2A3B49",
"c$	c #2B3B49",
"d$	c #2B3A47",
"e$	c #22313E",
"f$	c #293845",
"g$	c #2C3A47",
"h$	c #22303D",
"i$	c #263440",
"j$	c #2E3C48",
"k$	c #26333F",
"l$	c #23303B",
"m$	c #2A3742",
"n$	c #28343F",
"o$	c #232F3A",
"p$	c #1F2B35",
"q$	c #15212B",
"r$	c #1B262F",
"s$	c #1D272F",
"t$	c #1C252C",
"u$	c #111920",
"v$	c #192027",
"w$	c #131A20",
"x$	c #0C1217",
"y$	c #0E1318",
"z$	c #12171B",
"A$	c #1E3549",
"B$	c #243A4E",
"C$	c #203649",
"D$	c #1C3144",
"E$	c #2A3F51",
"F$	c #24394B",
"G$	c #192D3E",
"H$	c #1B2E3F",
"I$	c #1F3243",
"J$	c #2B3E4E",
"K$	c #1C2E3E",
"L$	c #142635",
"M$	c #293A49",
"N$	c #1A2A37",
"O$	c #233240",
"P$	c #11202D",
"Q$	c #1B2936",
"R$	c #162430",
"S$	c #0B1824",
"T$	c #0E1B26",
"U$	c #192631",
"V$	c #17222C",
"W$	c #09141D",
"X$	c #141E27",
"Y$	c #0D161E",
"Z$	c #09121A",
"`$	c #0E171E",
" %	c #010910",
".%	c #161E24",
"+%	c #00040B",
"@%	c #080F16",
"#%	c #040B11",
"$%	c #000309",
"%%	c #000308",
"&%	c #000207",
"*%	c #02070C",
"=%	c #01060B",
"-%	c #344A5D",
";%	c #2A3F52",
">%	c #374C5E",
",%	c #25394B",
"'%	c #324658",
")%	c #2D4152",
"!%	c #182A3A",
"~%	c #1D2F3E",
"{%	c #2E404F",
"]%	c #283948",
"^%	c #182938",
"/%	c #1C2D3B",
"(%	c #0F1E2B",
"_%	c #2A3845",
":%	c #172532",
"<%	c #0E1C28",
"[%	c #111E2A",
"}%	c #0C1925",
"|%	c #1B2833",
"1%	c #26333E",
"2%	c #192530",
"3%	c #24303A",
"4%	c #0D1822",
"5%	c #121D26",
"6%	c #212C35",
"7%	c #162029",
"8%	c #1C252D",
"9%	c #161E25",
"0%	c #181F26",
"a%	c #1A2127",
"b%	c #0A1117",
"c%	c #0E141A",
"d%	c #0F151B",
"e%	c #070D12",
"f%	c #13191E",
"g%	c #191E23",
"h%	c #0D1216",
". + @ # + $ % & * = . - * # ; + > = & , ' # ) & = ) . ! ~ & { @ ] ! ' , ' , * # + ^ ~ + * ~ + # @ & + / & = > $ { + > @ > @ % + ( ) , ~ * _ # ( = : + , _ < [ } | 1 2 3 4 5 6 7 8 9 0 a b c d e f g h i j k l m n o p q r s t u v w x y z A B C D E F G H I J K L M N O P Q R S T U V W X Y Z `  ...+.@.#.$.",
"%.%.%.%.%.%.%.%.%.%.%.%.%.%.%.%.%.%.%.%.%.%.%.%.%.%.%.%.%.%.%.%.%.%.%.%.%.%.%.%.%.%.%.%.%.%.%.%.%.%.%.%.%.%.%.%.%.%.%.%.%.%.%.%.%.%.%.%.%.%.%.%.%.%.%.%.%.%.%.%.%.%.%.%.%.%.%.%.%.%.%.%.%.%.%.%.%.%.%.%.%.%.%.%.%.%.%.%.%.%.%.%.%.%.%.%.%.%.%.%.%.%.%.%.%.%.%.%.%.%.%.%.%.%.%.%.%.%.%.%.%.%.%.%.%.%.%.%.%.%.",
"&.*.=.) ] -.! ' =.*.> &.;.' = *.@ & ^ ~ , @ ~ + $ -.) # -./ & ~ ( $ ] ] >.) ( , # &.) % ) &.' / ( # $ ( ] # &.^ { # ,.@ ~ ~ ' > ~ = ' ~ ) & ^ =.* @ -.] ' '.).!.~.{.].^./.(._.7 :.<.[.}.|.1.2.3.4.5.6.7.8.9.0.a.b.c.d.q e.f.g.h.i.j.k.l.m.n.B o.p.q.F r.s.I t.u.v.w.x.y.z.A.S B.C.D.E.F.G.H.I.J.K.L.M.N.$.O.",
"%.%.%.%.%.%.%.%.%.%.%.%.%.%.%.%.%.%.%.%.%.%.%.%.%.%.%.%.%.%.%.%.%.%.%.%.%.%.%.%.%.%.%.%.%.%.%.%.%.%.%.%.%.%.%.%.%.%.%.%.%.%.%.%.%.%.%.%.%.%.%.%.%.%.%.%.%.%.%.%.%.%.%.%.%.%.%.%.%.%.%.%.%.%.%.%.%.%.%.%.%.%.%.%.%.%.%.%.%.%.%.%.%.%.%.%.%.%.%.%.%.%.%.%.%.%.%.%.%.%.%.%.%.%.%.%.%.%.%.%.%.%.%.%.%.%.%.%.%.%.",
"! $ ^ = . ! % + -.] >.! ] ' > P.! % > *.) $ / , * ^ # @ ~ + $ > ~ # = ) @ ] @ + ' ] $ ! @ ( # ! $ ] * * # >.) ] * ^ ~ + , # & @ ~ & { ] &., $ ( , >.&.& : Q.[ R.S.T.U.4 4 V.W.X.Y.Z.Z.|.`. +2..+++@+#+$+%+&+9.*+a.=+-+;+=+>+,+'+)+!+~+{+]+^+/+(+_+:+<+[+}+}+|+1+2+3+4+5+6+7+R 8+9+0+a+b+c+H.d+e+L.f+g+h+i+j+",
"%.%.%.%.%.%.%.%.%.%.%.%.%.%.%.%.%.%.%.%.%.%.%.%.%.%.%.%.%.%.%.%.%.%.%.%.%.%.%.%.%.%.%.%.%.%.%.%.%.%.%.%.%.%.%.%.%.%.%.%.%.%.%.%.%.%.%.%.%.%.%.%.%.%.%.%.%.%.%.%.%.%.%.%.%.%.%.%.%.%.%.%.%.%.%.%.%.%.%.%.%.%.%.%.%.%.%.%.%.%.%.%.%.%.%.%.%.%.%.%.%.%.%.%.%.%.%.%.%.%.%.%.%.%.%.%.%.%.%.%.%.%.%.%.%.%.%.%.%.%.",
"@ + ) = { ^ ( @ ^ * : - + : ! ~ . ! &.! - ) ) - = / + ! $ ! : ' ' { $ ] >.& = % ) > & - / > { & @ ! & ^ ) ! + , . . , >.& , { # ] ! = / > _ ! / + # ^ >.! k+l+!.m+n+o+p+q+r+s+t+u+v+w+x+y+z+1.A+B+C+h $+D+E+F+G+H+I+J+r K+L+M+N+O+P+Q+{+m.R+S+p.T+U+V+W+X+Y+Z+t.`+M  @5+.@+@D.0+@@#@$@W H.%@&@*@=@-@;@>@,@'@",
"%.%.%.%.%.%.%.%.%.%.%.%.%.%.%.%.%.%.%.%.%.%.%.%.%.%.%.%.%.%.%.%.%.%.%.%.%.%.%.%.%.%.%.%.%.%.%.%.%.%.%.%.%.%.%.%.%.%.%.%.%.%.%.%.%.%.%.%.%.%.%.%.%.%.%.%.%.%.%.%.%.%.%.%.%.%.%.%.%.%.%.%.%.%.%.%.%.%.%.%.%.%.%.%.%.%.%.%.%.%.%.%.%.%.%.%.%.%.%.%.%.%.%.%.%.%.%.%.%.%.%.%.%.%.%.%.%.%.%.%.%.%.%.%.%.%.%.%.%.%.",
", $ *.> ) @ = & ( ) % > P.^ > ( , ! ( ] # ( ] )@+ -.) ) > >.. &.=.# ] ~ ' @ / ] ~ ~ ] # -./ ' ( / = / ( $ ! * ,.* ] -.# ~ =.> ( ^ + ) ( @ & -.~ . @ =.. + !@~@{@]@^@/@(@_@:@:@<@[@}@|@1@b 2.2@e 3@4@5@6@%+7@8@9@0@a@b@c@e.d@e@f@g@h@i@j@k@l@m@D n@U+G o@X+X+p@J q@3+r@s@t@u@v@S w@x@y@z@A@B@d+C@D@-@E@F@j+G@",
"%.%.%.%.%.%.%.%.%.%.%.%.%.%.%.%.%.%.%.%.%.%.%.%.%.%.%.%.%.%.%.%.%.%.%.%.%.%.%.%.%.%.%.%.%.%.%.%.%.%.%.%.%.%.%.%.%.%.%.%.%.%.%.%.%.%.%.%.%.%.%.%.%.%.%.%.%.%.%.%.%.%.%.%.%.%.%.%.%.%.%.%.%.%.%.%.%.%.%.%.%.%.%.%.%.%.%.%.%.%.%.%.%.%.%.%.%.%.%.%.%.%.%.%.%.%.%.%.%.%.%.%.%.%.%.%.%.%.%.%.%.%.%.%.%.%.%.%.%.%.",
"^ ^ =., * P.* # H@~ + / ^ * ~ ~ ' + -.~ , &.~ # ~ ~ ! # ^ ] * ^ -., @ &.$ ~ *., # -.~ @ ^ ^ > &.@ $ ~ ( * = &.&.' > ~ $ > * & @ > { ! ( * + ^ ^ . ' ^ + . ).I@J@K@L@n+_@4 6 M@t+N@O@P@Q@R@S@T@U@V@W@#+X@j Y@Z@`@ #=+.#;++#s g.i.@###Q+m.$#l@%#&#p.G *#=#I s.-#;#>#,#x.'#u@)#0+!#~#{#]#E.^#/#(#*@_#:#<#N.$.[#",
"%.%.%.%.%.%.%.%.%.%.%.%.%.%.%.%.%.%.%.%.%.%.%.%.%.%.%.%.%.%.%.%.%.%.%.%.%.%.%.%.%.%.%.%.%.%.%.%.%.%.%.%.%.%.%.%.%.%.%.%.%.%.%.%.%.%.%.%.%.%.%.%.%.%.%.%.%.%.%.%.%.%.%.%.%.%.%.%.%.%.%.%.%.%.%.%.%.%.%.%.%.%.%.%.%.%.%.%.%.%.%.%.%.%.%.%.%.%.%.%.%.%.%.%.%.%.%.%.%.%.%.%.%.%.%.%.%.%.%.%.%.%.%.%.%.%.%.%.%.%.",
"' . $ = . & - >.! % _ # @ { - $ ! . * @ = & $ % = @ - ! ] ! )@$ ^ ! : - _ - # - : , = ; $ ' )@>.% )@' , : . & # ' ! & % & , - ) > { . ] + { @ , _ ! # { _ }#l+|#1#n+2#3#4#V.5#6#7#v+8#`.b 9#d e 0#a##+$+b#c#Y@d#e#e.J+e.f#g#M+h#h#i#k.j#$#k#A l#n@m#n#r.o#p#q#r#s#t#y.5+6+u#v#U w#x#y#z#A#B#C#D#L.E#F#F#G#H#",
"%.%.%.%.%.%.%.%.%.%.%.%.%.%.%.%.%.%.%.%.%.%.%.%.%.%.%.%.%.%.%.%.%.%.%.%.%.%.%.%.%.%.%.%.%.%.%.%.%.%.%.%.%.%.%.%.%.%.%.%.%.%.%.%.%.%.%.%.%.%.%.%.%.%.%.%.%.%.%.%.%.%.%.%.%.%.%.%.%.%.%.%.%.%.%.%.%.%.%.%.%.%.%.%.%.%.%.%.%.%.%.%.%.%.%.%.%.%.%.%.%.%.%.%.%.%.%.%.%.%.%.%.%.%.%.%.%.%.%.%.%.%.%.%.%.%.%.%.%.%.",
"+ & ! = > &., ) &.) # ) * ) ) -./ ) * ) * ~ / & # @ , @ &.~ ' ) ' )@* P.( &./ + # / $ & ] $ = $ * * &./ ' ) -.( & @ &.$ ~ # % > / ' / ,.] & > ] $ =.H@, + !@'.I#J#K#n+4 p+L#M#X.u+N#O#P#Q#R#S#.+T##+U#V#7.W#8@X#Y#a@Z#`#I+ $.$h.+$@$#$$$%$m@&$*$=$-$V+W+H ;$>$,$'$2+)$5+!$~$!##@{$x@]$^$X /$($_$:$<$F#[$O.}$",
"%.%.%.%.%.%.%.%.%.%.%.%.%.%.%.%.%.%.%.%.%.%.%.%.%.%.%.%.%.%.%.%.%.%.%.%.%.%.%.%.%.%.%.%.%.%.%.%.%.%.%.%.%.%.%.%.%.%.%.%.%.%.%.%.%.%.%.%.%.%.%.%.%.%.%.%.%.%.%.%.%.%.%.%.%.%.%.%.%.%.%.%.%.%.%.%.%.%.%.%.%.%.%.%.%.%.%.%.%.%.%.%.%.%.%.%.%.%.%.%.%.%.%.%.%.%.%.%.%.%.%.%.%.%.%.%.%.%.%.%.%.%.%.%.%.%.%.%.%.%.",
"&.( ^ > ( ^ = ) ( @ > =.;.~ / ( ) ) ] ] -.-.$ # ~ ^ ] ( ~ + * > ~ ^ =.( ) > &.# > H@^ ' @ ( &.=.^ , / -.+ > =.+ + * # # @ * @ P.( >.# =.' = ( ( ! > ~ % # |$[ 1$~.2$L@3$4$L#_.Y.5$Z.|@6$7$S@9#8$9$0$a$j b$c$c$ #b.d$-+e$f$g$h$i$j$k$P+l$m$n$o$p$q$W+[+[+p#r$r#r#v.s$4+s@t$+@v@#@w@u$E.v$G.w$*@C@x$<$y$F@G@z$",
"%.%.%.%.%.%.%.%.%.%.%.%.%.%.%.%.%.%.%.%.%.%.%.%.%.%.%.%.%.%.%.%.%.%.%.%.%.%.%.%.%.%.%.%.%.%.%.%.%.%.%.%.%.%.%.%.%.%.%.%.%.%.%.%.%.%.%.%.%.%.%.%.%.%.%.%.%.%.%.%.%.%.%.%.%.%.%.%.%.%.%.%.%.%.%.%.%.%.%.%.%.%.%.%.%.%.%.%.%.%.%.%.%.%.%.%.%.%.%.%.%.%.%.%.%.%.%.%.%.%.%.%.%.%.%.%.%.%.%.%.%.%.%.%.%.%.%.%.%.%.",
"- + & >.) , _ ' ~ = A$& @ >._ { )@)@>.>.- . - ; ' / . - >.: % + + { , ' : + ! % + $ { : ) ' % { >.& ] , . ' # & )@! ] + $ > . ! ' % ' ] = )@) ) A$! ] % # '.B$C$!.2 D$E$F$W.M#<@G$H$I$|.J$2.K$L$f M$5@b#b#c#7@m N$c@O$I+P$t Q$R$'+k.S$T$U$R+&$&#*$V$n#F W$X+p@X$t#M Y$Z$t@`$ %B..%U +%@%A##%$%%@%%&%*%=%,@,@",
"%.%.%.%.%.%.%.%.%.%.%.%.%.%.%.%.%.%.%.%.%.%.%.%.%.%.%.%.%.%.%.%.%.%.%.%.%.%.%.%.%.%.%.%.%.%.%.%.%.%.%.%.%.%.%.%.%.%.%.%.%.%.%.%.%.%.%.%.%.%.%.%.%.%.%.%.%.%.%.%.%.%.%.%.%.%.%.%.%.%.%.%.%.%.%.%.%.%.%.%.%.%.%.%.%.%.%.%.%.%.%.%.%.%.%.%.%.%.%.%.%.%.%.%.%.%.%.%.%.%.%.%.%.%.%.%.%.%.%.%.%.%.%.%.%.%.%.%.%.%.",
"@ ] -.* ] @ ! ~ ~ = ! ( *., * ] + &.P.> ] &.-.> / @ , / ^ & = ( ,.~ ^ # , &.] + ) / & ! ^ ^ > ( ~ ' > ^ ' @ ~ & >.@ @ = ~ ~ = ~ ^ = @ H@! = *.^ ] ( > = * k+l+{@-%;%;%>%q+,%'%)%7#<.O#6$J$T@!%~%{%]%^%/%%+k 0.n Y#e.J+(%a@_%:%<%R$[%}%|%1%2%S+3%n@4%V$G 5%6%r#7%`+`+8% @z.u@S 9%.%U @%0%a%b%c%d%e%f%g%y$h%[#"};
