/* XPM */
static char * fourthday_titlebar_xpm[] = {
"100 23 616 2",
"  	c None",
". 	c #26016B",
"+ 	c #28016D",
"@ 	c #25006A",
"# 	c #220067",
"$ 	c #2B0470",
"% 	c #200065",
"& 	c #29016E",
"* 	c #240069",
"= 	c #2D0572",
"- 	c #300875",
"; 	c #210066",
"> 	c #2C0571",
", 	c #27006C",
"' 	c #1D0062",
") 	c #28026D",
"! 	c #310976",
"~ 	c #230068",
"{ 	c #2C0471",
"] 	c #2A026F",
"^ 	c #1C0061",
"/ 	c #2B0370",
"( 	c #28036D",
"_ 	c #2E0673",
": 	c #26006B",
"< 	c #1F0064",
"[ 	c #27026C",
"} 	c #29026E",
"| 	c #2A036F",
"1 	c #25016A",
"2 	c #1E0063",
"3 	c #2B0570",
"4 	c #2F0774",
"5 	c #27016C",
"6 	c #29036E",
"7 	c #210166",
"8 	c #320A77",
"9 	c #2A046F",
"0 	c #2D0672",
"a 	c #230168",
"b 	c #240269",
"c 	c #26026B",
"d 	c #220167",
"e 	c #27036C",
"f 	c #2C0671",
"g 	c #2E0773",
"h 	c #25026A",
"i 	c #240169",
"j 	c #26036B",
"k 	c #29046E",
"l 	c #2F0974",
"m 	c #200165",
"n 	c #25036A",
"o 	c #230268",
"p 	c #2A056F",
"q 	c #2D0772",
"r 	c #240168",
"s 	c #1F0063",
"t 	c #28026C",
"u 	c #29036D",
"v 	c #2A046E",
"w 	c #220066",
"x 	c #210065",
"y 	c #200064",
"z 	c #29046D",
"A 	c #27036B",
"B 	c #27026B",
"C 	c #26026A",
"D 	c #300874",
"E 	c #26016A",
"F 	c #2C0570",
"G 	c #2B046F",
"H 	c #28046C",
"I 	c #2C0670",
"J 	c #230067",
"K 	c #28016C",
"L 	c #2E0772",
"M 	c #220166",
"N 	c #2B056F",
"O 	c #26036A",
"P 	c #240068",
"Q 	c #2D0671",
"R 	c #2E0672",
"S 	c #28036C",
"T 	c #1E0062",
"U 	c #300974",
"V 	c #230167",
"W 	c #1D0061",
"X 	c #2B036F",
"Y 	c #2A036E",
"Z 	c #250269",
"` 	c #29056D",
" .	c #250267",
"..	c #29046B",
"+.	c #250268",
"@.	c #1F0062",
"#.	c #28036A",
"$.	c #1F0061",
"%.	c #220165",
"&.	c #2A056D",
"*.	c #260469",
"=.	c #230165",
"-.	c #220065",
";.	c #200063",
">.	c #270369",
",.	c #27026A",
"'.	c #210064",
").	c #27036A",
"!.	c #200062",
"~.	c #230166",
"{.	c #240267",
"].	c #220164",
"^.	c #2B056E",
"/.	c #250167",
"(.	c #1C005F",
"_.	c #28036B",
":.	c #29036C",
"<.	c #240167",
"[.	c #2C056E",
"}.	c #1F0162",
"|.	c #1D005F",
"1.	c #2A046C",
"2.	c #210063",
"3.	c #29056C",
"4.	c #2C066F",
"5.	c #1E0061",
"6.	c #2D076F",
"7.	c #1D0060",
"8.	c #28026A",
"9.	c #2B046D",
"0.	c #250168",
"a.	c #2E0871",
"b.	c #2A046D",
"c.	c #29046C",
"d.	c #210164",
"e.	c #240166",
"f.	c #260269",
"g.	c #28046B",
"h.	c #1E0060",
"i.	c #29036B",
"j.	c #250368",
"k.	c #230265",
"l.	c #28056B",
"m.	c #260169",
"n.	c #250466",
"o.	c #290569",
"p.	c #260467",
"q.	c #220162",
"r.	c #2A056A",
"s.	c #2A066A",
"t.	c #1F005F",
"u.	c #210162",
"v.	c #2B076C",
"w.	c #270467",
"x.	c #2A076A",
"y.	c #240264",
"z.	c #220062",
"A.	c #280569",
"B.	c #230163",
"C.	c #210161",
"D.	c #290669",
"E.	c #250365",
"F.	c #220163",
"G.	c #29056A",
"H.	c #260366",
"I.	c #1F015F",
"J.	c #270368",
"K.	c #290469",
"L.	c #230263",
"M.	c #230164",
"N.	c #2C076C",
"O.	c #200160",
"P.	c #280568",
"Q.	c #220262",
"R.	c #1E005E",
"S.	c #260367",
"T.	c #1B005B",
"U.	c #240164",
"V.	c #200060",
"W.	c #280468",
"X.	c #1C005C",
"Y.	c #1C005D",
"Z.	c #2D086D",
"`.	c #1B005C",
" +	c #220063",
".+	c #250265",
"++	c #1D005E",
"@+	c #230264",
"#+	c #1D005D",
"$+	c #250366",
"%+	c #1F0060",
"&+	c #250465",
"*+	c #210261",
"=+	c #280668",
"-+	c #220363",
";+	c #1D015D",
">+	c #260266",
",+	c #29046A",
"'+	c #22025F",
")+	c #240361",
"!+	c #21025E",
"~+	c #1E015B",
"{+	c #270464",
"]+	c #270564",
"^+	c #1B0058",
"/+	c #1D005A",
"(+	c #260463",
"_+	c #240561",
":+	c #230460",
"<+	c #260563",
"[+	c #20015D",
"}+	c #1E005B",
"|+	c #290766",
"1+	c #22015F",
"2+	c #1F015C",
"3+	c #250462",
"4+	c #260363",
"5+	c #280565",
"6+	c #21015E",
"7+	c #230360",
"8+	c #230260",
"9+	c #2C0969",
"0+	c #250362",
"a+	c #290666",
"b+	c #1C0059",
"c+	c #1A0057",
"d+	c #230160",
"e+	c #1F005C",
"f+	c #2E0A6B",
"g+	c #20005D",
"h+	c #2D0A6A",
"i+	c #290566",
"j+	c #1D015A",
"k+	c #20025D",
"l+	c #2B0768",
"m+	c #240261",
"n+	c #240161",
"o+	c #2B0868",
"p+	c #2A0867",
"q+	c #1E025B",
"r+	c #280465",
"s+	c #200259",
"t+	c #22045C",
"u+	c #1D0256",
"v+	c #1B0154",
"w+	c #24045D",
"x+	c #260760",
"y+	c #190052",
"z+	c #1B0054",
"A+	c #23035C",
"B+	c #200459",
"C+	c #23045C",
"D+	c #1C0155",
"E+	c #22025B",
"F+	c #260660",
"G+	c #1F0158",
"H+	c #1D0157",
"I+	c #22045B",
"J+	c #1E0257",
"K+	c #1C0055",
"L+	c #21035B",
"M+	c #21035A",
"N+	c #1D0156",
"O+	c #21015A",
"P+	c #1F0258",
"Q+	c #24035D",
"R+	c #1D0056",
"S+	c #21025A",
"T+	c #1E0157",
"U+	c #290862",
"V+	c #180051",
"W+	c #24045E",
"X+	c #270660",
"Y+	c #170050",
"Z+	c #1E0058",
"`+	c #1A0053",
" @	c #200159",
".@	c #1F0259",
"+@	c #2D0C66",
"@@	c #1F0058",
"#@	c #16004F",
"$@	c #22035B",
"%@	c #25055F",
"&@	c #1C0056",
"*@	c #180052",
"=@	c #25055E",
"-@	c #270761",
";@	c #23035D",
">@	c #25045E",
",@	c #1C0256",
"'@	c #1E0158",
")@	c #190053",
"!@	c #280861",
"~@	c #1C0255",
"{@	c #1A0054",
"]@	c #1F0255",
"^@	c #230558",
"/@	c #1E0353",
"(@	c #1A014F",
"_@	c #220457",
":@	c #26075B",
"<@	c #1A004F",
"[@	c #1C0051",
"}@	c #220558",
"|@	c #1F0454",
"1@	c #210557",
"2@	c #24075A",
"3@	c #1B0150",
"4@	c #16004B",
"5@	c #210256",
"6@	c #26085C",
"7@	c #1E0153",
"8@	c #1E0154",
"9@	c #25075A",
"0@	c #1C0251",
"a@	c #220458",
"b@	c #200355",
"c@	c #1C0152",
"d@	c #210356",
"e@	c #1E0253",
"f@	c #1B0151",
"g@	c #210357",
"h@	c #210456",
"i@	c #19024E",
"j@	c #240659",
"k@	c #1A0050",
"l@	c #17004C",
"m@	c #25065A",
"n@	c #1C0052",
"o@	c #19004E",
"p@	c #17004D",
"q@	c #1D0153",
"r@	c #1C0151",
"s@	c #2A0C60",
"t@	c #1F0154",
"u@	c #130049",
"v@	c #240559",
"w@	c #230559",
"x@	c #120048",
"y@	c #18004E",
"z@	c #1D0152",
"A@	c #15004B",
"B@	c #19014E",
"C@	c #1F0254",
"D@	c #1A0250",
"E@	c #200456",
"F@	c #1B0051",
"G@	c #1E0254",
"H@	c #220357",
"I@	c #1F0354",
"J@	c #19004F",
"K@	c #230659",
"L@	c #24065A",
"M@	c #1D0252",
"N@	c #18004D",
"O@	c #1C014D",
"P@	c #200451",
"Q@	c #1C044E",
"R@	c #160148",
"S@	c #1D024F",
"T@	c #220553",
"U@	c #160047",
"V@	c #200552",
"W@	c #19024A",
"X@	c #1D044F",
"Y@	c #230755",
"Z@	c #19014A",
"`@	c #110043",
" #	c #1C024D",
".#	c #210653",
"+#	c #18014A",
"@#	c #1B014D",
"##	c #240856",
"$#	c #19024B",
"%#	c #200452",
"&#	c #1E0350",
"*#	c #1B014C",
"=#	c #1F0350",
"-#	c #1A024C",
";#	c #1A014B",
">#	c #210452",
",#	c #1D024E",
"'#	c #180049",
")#	c #210652",
"!#	c #160248",
"~#	c #170148",
"{#	c #1A004C",
"]#	c #1D034F",
"^#	c #160048",
"/#	c #240755",
"(#	c #150047",
"_#	c #18004A",
":#	c #170049",
"<#	c #19014B",
"[#	c #280B59",
"}#	c #1E0250",
"|#	c #130044",
"1#	c #200551",
"2#	c #220654",
"3#	c #120043",
"4#	c #260A58",
"5#	c #1C014E",
"6#	c #130045",
"7#	c #170149",
"8#	c #150046",
"9#	c #19004A",
"0#	c #1F0550",
"a#	c #1C024E",
"b#	c #220653",
"c#	c #1F0450",
"d#	c #1F0451",
"e#	c #230754",
"f#	c #1E044F",
"g#	c #170048",
"h#	c #1E0450",
"i#	c #1A0147",
"j#	c #1D044B",
"k#	c #1B0548",
"l#	c #140142",
"m#	c #1F054D",
"n#	c #140042",
"o#	c #1B0249",
"p#	c #20064D",
"q#	c #150043",
"r#	c #180146",
"s#	c #20074E",
"t#	c #170245",
"u#	c #0F003D",
"v#	c #180045",
"w#	c #1D044A",
"x#	c #130041",
"y#	c #160044",
"z#	c #21084F",
"A#	c #160144",
"B#	c #11003F",
"C#	c #1C034A",
"D#	c #1B0248",
"E#	c #180046",
"F#	c #1C024A",
"G#	c #150042",
"H#	c #1E044C",
"I#	c #190046",
"J#	c #120040",
"K#	c #1E054C",
"L#	c #12003F",
"M#	c #20064E",
"N#	c #20054D",
"O#	c #190146",
"P#	c #1C0249",
"Q#	c #21074F",
"R#	c #170045",
"S#	c #1C0349",
"T#	c #230951",
"U#	c #10003E",
"V#	c #1E044B",
"W#	c #1C044A",
"X#	c #130040",
"Y#	c #240A52",
"Z#	c #1B0148",
"`#	c #1D034A",
" $	c #120140",
".$	c #160243",
"+$	c #1A0248",
"@$	c #180246",
"#$	c #170145",
"$$	c #190246",
"%$	c #1A0247",
"&$	c #140041",
"*$	c #1D054B",
"=$	c #190245",
"-$	c #1E054A",
";$	c #1D0649",
">$	c #140140",
",$	c #190145",
"'$	c #1F064B",
")$	c #150041",
"!$	c #1C0348",
"~$	c #21084D",
"{$	c #160042",
"]$	c #22094E",
"^$	c #170343",
"/$	c #0D0039",
"($	c #1B0347",
"_$	c #10003C",
":$	c #230A4F",
"<$	c #160242",
"[$	c #0E003A",
"}$	c #180144",
"|$	c #13003F",
"1$	c #140040",
"2$	c #1D0449",
"3$	c #11003D",
"4$	c #1F074B",
"5$	c #0F003B",
"6$	c #150141",
"7$	c #1A0346",
"8$	c #170143",
"9$	c #20074C",
"0$	c #12003E",
"a$	c #20084C",
"b$	c #1B0247",
"c$	c #1C0548",
"d$	c #1C0448",
"e$	c #180244",
"f$	c #190345",
"g$	c #1A0246",
"h$	c #170243",
"i$	c #1B0447",
"j$	c #150241",
"k$	c #1D0549",
"l$	c #190243",
"m$	c #1C0446",
"n$	c #20084A",
"o$	c #160140",
"p$	c #180142",
"q$	c #13003D",
"r$	c #220A4C",
"s$	c #160040",
"t$	c #1A0244",
"u$	c #240C4E",
"v$	c #1A0444",
"w$	c #0D0037",
"x$	c #14003E",
"y$	c #0F0039",
"z$	c #14013E",
"A$	c #250D4F",
"B$	c #180342",
"C$	c #0C0036",
"D$	c #1B0445",
"E$	c #15003F",
"F$	c #1E0648",
"G$	c #1D0547",
"H$	c #21094B",
"I$	c #10003A",
"J$	c #1B0345",
"K$	c #15013F",
"L$	c #180242",
"M$	c #1F0749",
"N$	c #11003B",
"O$	c #12003C",
"P$	c #1A0344",
"Q$	c #1C0546",
"R$	c #1E0748",
"S$	c #0E0038",
"T$	c #190143",
"U$	c #190343",
"V$	c #170141",
"W$	c #1B0545",
"X$	c #170241",
"Y$	c #1B0443",
"Z$	c #1A0342",
"`$	c #210A49",
" %	c #17023F",
".%	c #180240",
"+%	c #1C0544",
"@%	c #110039",
"#%	c #230C4B",
"$%	c #15013D",
"%%	c #16003E",
"&%	c #240D4C",
"*%	c #1D0645",
"=%	c #100038",
"-%	c #12003A",
";%	c #17033F",
">%	c #0B0033",
",%	c #1A0442",
"'%	c #15003D",
")%	c #13003B",
"!%	c #14003C",
"~%	c #1E0746",
"{%	c #190241",
"]%	c #200948",
"^%	c #0C0034",
"/%	c #0F0037",
"(%	c #0D0035",
"_%	c #17013F",
":%	c #1B0543",
"<%	c #13013B",
"[%	c #0E0036",
"}%	c #180140",
"|%	c #16023E",
"1%	c #190441",
"2%	c #15033D",
"3%	c #1F0847",
"4%	c #180340",
"5%	c #1C0642",
"6%	c #18023E",
"7%	c #1E0844",
"8%	c #1B0541",
"9%	c #200A46",
"0%	c #16003C",
"a%	c #1A0440",
"b%	c #230D49",
"c%	c #240E4A",
"d%	c #220C48",
"e%	c #17013D",
"f%	c #0E0034",
"g%	c #1F0945",
"h%	c #15003B",
"i%	c #0F0035",
"j%	c #120038",
"k%	c #0A0030",
"l%	c #0B0031",
"m%	c #05002B",
"n%	c #0C0032",
"o%	c #0D0033",
"p%	c #19033F",
"q%	c #08002E",
"r%	c #14003A",
"s%	c #130039",
"t%	c #110037",
"u%	c #06002C",
"v%	c #100036",
"w%	c #07002D",
"x%	c #09002F",
"y%	c #1D0743",
". + @ # $ + % & * % = - # ; > , ' ) ! ~ ; { * & ] ' @ ! ~ ^ = / ; ( _ % ; $ : < @ [ # = } < } : < { $ < + | ; * ! [ ^ + { # ~ _ 1 2 } } : _ @ ^ ) $ ; @ = ~ # 3 ) * 4 5 2 6 > ; # } @ ; : 1 ~ { | < 1 _ ",
") | 5 * = ] 7 { . % = ! ~ ; _ | < . 8 . # > . ] { < @ - * ' = $ # 9 _ < # 0 ) 7 . 1 % = | < } ( % / > 2 5 > % ~ - ) 2 & / ; # _ [ 2 5 [ @ 4 . 2 } } % @ { * * 6 1 ~ - + 2 ) > # # ] : # : ~ # > | % 1 = ",
") 6 . * = ] a = 5 < 9 - ~ # _ / % @ - . ~ { 5 / = ; : ! * 2 = $ ~ $ = < * 4 | b 9 c 2 = { % ] / # | - % . 4 ~ @ - ) % / { ; # _ 6 ; 6 6 . - 6 d 3 $ d ) 0 1 e f . @ ! | < ( g 1 # $ ) h | 1 * 0 $ ~ . = ",
"[ | i ~ > ) a = 5 % 6 4 # ; _ | < ~ > a ; } @ } = % * ! @ ' | ( ~ = = ' # _ ( h f . ' { / < 5 | ; + - ; * 4 * @ 4 . % { { ; # > ( ; ( ( 1 _ ( 7 9 9 a } 0 . j 3 1 # - | 2 . 0 . ; k ) b $ . ~ 3 9 # 1 { ",
"6 = 1 ~ = ) i _ } # 9 - ~ # _ 9 % @ 0 b # ] @ } _ # ~ ! 5 < $ . # _ _ ^ ; 0 c h l c ^ / ] 2 : | ~ 5 - % ; _ ; # 4 . < = = % # > 6 ; ) c a > e a 6 c m [ = . n 6 * # 4 { < 1 = ) % [ ) h $ c # 9 6 % # $ ",
") = i # > 5 i _ ] # ( 4 ~ # 4 3 ; @ 0 h ~ ] : ) _ * ~ ! } % f c % _ _ 2 # 4 h o ! ) 2 > / < 5 $ @ + ! # % - * # - 6 % _ 4 ; ; _ = i $ ( i 0 ( . 0 ) 7 ) 4 ) j { ) ~ 4 _ # ) 4 $ * 6 } c = ) * 0 > % # { ",
", = ~ % > : # = | # . = ~ ~ 0 9 < * > * # & * , > # ; - } < f c 2 = = ' ~ 4 ~ m g ) ' > / < . ) ~ 5 ! ~ < - . ; 4 | < $ 4 # ; = > a $ ( a > c 1 4 ( m [ 4 + o $ | # = 0 ; [ 0 k * 6 [ a _ } # g > < ; | ",
", _ * ; _ 5 # = $ ~ + _ @ * 4 0 % * _ . * | @ 5 g i < - $ < g p < _ _ 2 ~ - j % 0 9 < > { < 5 6 ~ 5 4 # % 4 @ < _ 3 2 ] 4 ; < { | # 6 [ # 9 1 # _ [ 2 : 4 ) % } $ # $ = # 5 $ [ ~ 9 5 ; { + ; g > < # | ",
", = * % 0 + % $ 9 # . > * # g _ # ~ _ 5 ~ 6 @ . g . < 4 { % g = % = 4 2 ~ - 6 # $ 3 # > = % + { * | - ; ; 4 : 2 _ _ % } - ~ 2 = = 1 $ | * = ( @ 4 6 2 @ 4 ] ; + = * $ = * 6 > [ @ = + ~ = } * - > % i > ",
"+ = . % 0 | # 9 3 a @ { 1 # > 0 # ; = ) * ) * . 0 @ ' = / < 3 > 2 } _ 2 # q ( # + e % 9 = % 5 { ~ ) 0 % ; 4 : ' $ = % : 4 # 2 = $ a 9 6 ~ 9 ( @ g | < ~ 0 } % 1 $ ~ 6 $ # ( 3 a * = . ; 9 1 * - { % i > ",
"5 { 5 ; $ $ # 6 0 1 @ > . ~ > 0 ~ # = | 1 9 [ ) ! . 2 = $ ; 3 g ; } 4 % a f ( * | e < } _ ; : = h 6 $ < # 0 : ' | = ; 5 4 ; ' { ] % ) } # 6 c * 0 | ; ~ > $ # 1 6 ~ | > ; ) > # # 0 e # ( d ; 4 { ; . > ",
"r ) r s t u s r v r w ( r x ( u w y z ( d A B C D E ' F G x H I J K L x M N O P F k y t Q x * R S F F s w L B T 6 Q x 5 U V W F X s t v J G [ P Q G J J f I r E t w Y > ; t Q J w Q k Z ` V y F Y x t L ",
" ...+.@.#...$.%.&.*.=.#.-.;.>.,.'.@.).).!.~.{.].^./.(._.:.'.{._.'.<.[.'.}.>.-.!.:.).|./.1.$.2.&.>.3.4.5.@.6.,.7.8.9.5.0.a.=.7.[.b.|.0.).!.>. .2.c.c.-.$.c.1.d.e.0.5.f.g.h.0.&.;.$.i.j.k.l.%.7.g.m.h.+.4.",
"n.o.p.q.r.s.t.u.v.s.w.x.y.z.A.s.B.C.D.o.q.E.p.F.G.H.I.J.K.q.E.o.L.M.N.M.O.P.Q.R.K.S.T.U.o.V.t.W.p.w.N.t.X.s.S.Y.J.r.X.B.Z.C.`.r.r.`. +.+++@+z.R.H.o.q.#+W.o.C.y.$+I.H.S.X.U.s.%+#+W.&+*+=+-+;+w.>+R.q.,+",
"'+)+!+~+{+]+^+/+(+_+:+<+[+}+(+|+1+2+3+3+[+3+<+!+4+)+2+(+5+6+7+]+8+8+9+0+2+a+8+b+a+5+c+d+]+e+e+(+(+{+f+g+c+a+4+b+5+a+^+6+h+'+^+i+a+j+8+4+k+3+1+/+3+l+d+b+5+a+[+m+0+!+]+<+/+n+o+'+/+]+<+8+p+3+q+3+0+}+[+r+",
"s+t+u+v+w+x+y+z+A+B+B+C+D+y+E+F+G+H+I+J+K+L+M+N+O+P+v+E+Q+R+P+S+u+T+U+w+z+C+P+V+W+X+Y+Z+A+`+`+ @.@L++@@@#@X+$@V+%@W+#@&@U+s+*@=@=@v+L+A+J+C+ @V+.@-@ @*@;@>@K+G+s+,@t+S+*@'@F+P+)@$@M+J+!@>@~@s+ @{@v+$@",
"]@^@/@(@_@:@<@[@}@|@1@2@3@4@5@6@7@8@9@0@<@a@b@c@d@e@f@g@g@[@h@h@i@(@:@j@k@h@e@l@g@m@4@n@^@o@p@q@3@r@s@t@u@v@b@4@v@w@x@y@6@z@A@}@}@B@b@C@D@E@e@4@F@m@G@p@d@H@<@e@I@0@1@b@4@r@m@/@p@b@I@J@K@L@M@b@G@y@N@]@",
"O@P@Q@R@S@T@U@O@V@W@X@Y@Z@`@ #.#+#@###$#U@%#&#*#=#-#;#>#,#'#V@)#!#~#Y@Y@{#V@]#^#P@/#(#{#Y@_#:#]#;#<#[#}#|#T@1#U@2#Y@3#^#4#5#6#V@)#7#%#=#$#%#S@8#9#2#}#:#V@>#_#]#0#a#b#>#8#<#/#&#:#c#V@_#d#e#f#.#d#g#U@h#",
"i#j#k#l#i#m#n#o#p#q#r#s#t#u#v#w#x#y#z#A#B#C#D#E#F#G#q#H#I#J#j#K#B#L#M#N#y#C#O#B#P#Q#J#R#M#n#x#S#q#x#T#F#U#V#W#x#H#M#u#X#Y#Z#U#`#S# $H#j#.$H#o#X#y#H#+$X#j#m#q#@$+$#$V#H#J#n#j#$$J#%$W#&$$$*$@$K#K#x#x#+$",
"=$-$;$>$,$'$)$!$~${$,$]$^$/${$($_$)$:$<$[$($}${$($|$1$2${$3$-$4$5$[$2$2$6$7$8$[$,$9$0${$a$0$3$7$|$_$~$b$5$2$c$0$!$'$[$3$]$}$[$($=$[$!$($3$b$=$_$1$($}$0$d$-$1$e$f$6$g$!$_$3$7$)$5$h$i$3$6$i$j$c$k$3$0$e$",
"l$m$n$o$p$m$q$m$r$s$t$u$v$w$x$v$y$z$A$B$C$l$l$s$D$z$E$F$E$y$G$H$I$C$J$m$K$m$l$y$L$M$N$s$r$x$O$m$x$y$M$P$y$Q$R$z$m$H$S$I$u$T$S$m$J$C$t$D$y$t$J$N$q$m$L$O$G$G$x$U$m$V$J$G$N$O$v$K$I$L$Q$O$z$W$X$F$M$O$q$P$",
"Y$Z$`$ %.%+%@%Y$#%$%%%&%*%=%-%;%>%=%#%,%>%'% %)%%%=%!%~%)%>%{%]%@%>%Z$Z$@%Y$.%^% %~%/%!%]%-%=%+%)%(%Y$_%^% %:%<%Z$]%[%[%&%{%^%Y$Z$^%Y$*%/%}%{%=%=%Z$$%(%*%*%=%;%+%|%Z$Y$=%=% %@%(%$%1%=%/%;%2%~%3%=%/%4%",
"5%6%7%8%8%9%0%a%b%6%0%c%d%e%e%5%f%f%d%g%f%h%a%0%0%i%j%7%0%k%e%g%j%l%a%e%l%6%h%m%j%8%n%j%5%o%l%p%i%q%p%r%q%s%r%n%0%5%o%n%d%6%q%6%0%q%6%5%f%0%p%j%f%0%t%u%8%7%n%t%0%v%0%e%v%i%t%k%w%i%j%l%x%v%o%6%y%t%o%j%"};
