/* XPM */
static char * fourthday_titlebardark_xpm[] = {
"100 23 253 2",
"  	c None",
". 	c #120035",
"+ 	c #130036",
"@ 	c #100033",
"# 	c #150138",
"$ 	c #0F0032",
"% 	c #140037",
"& 	c #110034",
"* 	c #150239",
"= 	c #17033A",
"- 	c #150238",
"; 	c #120036",
"> 	c #0D0031",
", 	c #18043B",
"' 	c #110033",
") 	c #150038",
"! 	c #0C0030",
"~ 	c #160239",
"{ 	c #0E0031",
"] 	c #17023A",
"^ 	c #18043C",
"/ 	c #140137",
"( 	c #17043A",
"_ 	c #0F0031",
": 	c #140036",
"< 	c #150137",
"[ 	c #100032",
"} 	c #140136",
"| 	c #130136",
"1 	c #0D0030",
"2 	c #150037",
"3 	c #120034",
"4 	c #140236",
"5 	c #120033",
"6 	c #140135",
"7 	c #130035",
"8 	c #0F0030",
"9 	c #150236",
"0 	c #120134",
"a 	c #110032",
"b 	c #150237",
"c 	c #0C002F",
"d 	c #0D002F",
"e 	c #150136",
"f 	c #100031",
"g 	c #0E0030",
"h 	c #160338",
"i 	c #130135",
"j 	c #0E002F",
"k 	c #140035",
"l 	c #130235",
"m 	c #120133",
"n 	c #140234",
"o 	c #150235",
"p 	c #0F002F",
"q 	c #130234",
"r 	c #110031",
"s 	c #100030",
"t 	c #120032",
"u 	c #140235",
"v 	c #140134",
"w 	c #130233",
"x 	c #0C002D",
"y 	c #130133",
"z 	c #0C002E",
"A 	c #150336",
"B 	c #0D002E",
"C 	c #120132",
"D 	c #10002F",
"E 	c #110030",
"F 	c #0E002D",
"G 	c #120232",
"H 	c #0C002B",
"I 	c #0D002D",
"J 	c #120131",
"K 	c #110230",
"L 	c #11012F",
"M 	c #120231",
"N 	c #0F002E",
"O 	c #140233",
"P 	c #120031",
"Q 	c #130232",
"R 	c #11002F",
"S 	c #150434",
"T 	c #0C002C",
"U 	c #160435",
"V 	c #150435",
"W 	c #150233",
"X 	c #150333",
"Y 	c #130132",
"Z 	c #0F002C",
"` 	c #10012E",
" .	c #0D002B",
"..	c #0C002A",
"+.	c #11012E",
"@.	c #12022F",
"#.	c #0C0028",
"$.	c #11002E",
"%.	c #0F012C",
"&.	c #10002D",
"*.	c #0F002B",
"=.	c #10012D",
"-.	c #0E002B",
";.	c #140331",
">.	c #0B0028",
",.	c #0A0027",
"'.	c #0C0029",
").	c #150433",
"!.	c #120230",
"~.	c #12012F",
"{.	c #130330",
"].	c #11022B",
"^.	c #0E0029",
"/.	c #0C0027",
"(.	c #10012B",
"_.	c #12022D",
":.	c #10022B",
"<.	c #0F012A",
"[.	c #11022D",
"}.	c #0A0025",
"|.	c #10002B",
"1.	c #12032E",
"2.	c #0E002A",
"3.	c #0C0026",
"4.	c #11022C",
"5.	c #0A0026",
"6.	c #0D0029",
"7.	c #15042F",
"8.	c #0F002A",
"9.	c #080024",
"0.	c #080023",
"a.	c #0B0026",
"b.	c #0D0028",
"c.	c #0F012B",
"d.	c #0F0128",
"e.	c #0C0126",
"f.	c #0A0023",
"g.	c #0D0027",
"h.	c #100229",
"i.	c #0F0228",
"j.	c #0C0025",
"k.	c #0D0127",
"l.	c #080021",
"m.	c #0B0025",
"n.	c #11032B",
"o.	c #0E0027",
"p.	c #0F0027",
"q.	c #100128",
"r.	c #0D0026",
"s.	c #0B0024",
"t.	c #100228",
"u.	c #0A0024",
"v.	c #13042C",
"w.	c #080022",
"x.	c #10022A",
"y.	c #12042B",
"z.	c #0A0022",
"A.	c #0F0227",
"B.	c #0F0127",
"C.	c #11022A",
"D.	c #0E0127",
"E.	c #0C0023",
"F.	c #0D0125",
"G.	c #0C0223",
"H.	c #090020",
"I.	c #0F0226",
"J.	c #0C0024",
"K.	c #0A0021",
"L.	c #0B0022",
"M.	c #07001E",
"N.	c #080020",
"O.	c #100327",
"P.	c #08001F",
"Q.	c #0A0020",
"R.	c #0E0126",
"S.	c #0C0022",
"T.	c #0E0226",
"U.	c #100227",
"V.	c #110428",
"W.	c #0E0125",
"X.	c #0C0125",
"Y.	c #0D0025",
"Z.	c #0D0225",
"`.	c #0E0225",
" +	c #0D0224",
".+	c #09001F",
"++	c #0F0225",
"@+	c #100326",
"#+	c #100426",
"$+	c #05001C",
"%+	c #110427",
"&+	c #06001D",
"*+	c #0D0124",
"=+	c #08001E",
"-+	c #07001D",
";+	c #0F0326",
">+	c #0C0123",
",+	c #0C0021",
"'+	c #0C0122",
")+	c #0F0325",
"!+	c #0A001F",
"~+	c #0B0020",
"{+	c #110426",
"]+	c #05001A",
"^+	c #09001E",
"/+	c #07001C",
"(+	c #120527",
"_+	c #04001A",
":+	c #0E0223",
"<+	c #0D0223",
"[+	c #100425",
"}+	c #0F0224",
"|+	c #08001D",
"1+	c #0C0222",
"2+	c #06001B",
"3+	c #0C0121",
"4+	c #0C0020",
"5+	c #100424",
"6+	c #0B001F",
"7+	c #08001C",
"8+	c #110425",
"9+	c #0A001E",
"0+	c #110526",
"a+	c #0D0222",
"b+	c #07001B",
"c+	c #040019",
"d+	c #0C0120",
"e+	c #0E0222",
"f+	c #0F0423",
"g+	c #07001A",
"h+	c #0C0221",
"i+	c #06001A",
"j+	c #0F0323",
"k+	c #0C0220",
"l+	c #0B001E",
"m+	c #0E0322",
"n+	c #0F0422",
"o+	c #0C011F",
"p+	c #110524",
"q+	c #110625",
"r+	c #100423",
"s+	c #060019",
"t+	c #0A001D",
"u+	c #08001B",
"v+	c #040017",
"w+	c #040018",
"x+	c #020015",
"y+	c #050019",
"z+	c #0C001F",
"A+	c #030016",
"B+	c #09001D",
"C+	c #08001A",
"D+	c #0D0221",
". + . @ # + $ % & $ * = @ @ - ; > + , ' @ # & % ) > . , ' ! * ) @ + ~ $ @ # . $ . ; @ * % $ % . $ # # $ + ) @ & , ; ! + # @ ' ~ . { % % . ~ . ! + # @ . * ' @ - + & ] ; { % - @ @ % . @ . . ' # ) $ . ~ ",
"+ ) ; & * ) @ # . $ * , ' @ ~ ) $ . ^ . @ - . ) # $ . = & > * # @ # ~ $ @ * + @ . . $ * ) $ % + $ ) - { ; - $ ' = + { % ) @ @ ~ ; { ; ; . ] . { % % $ . # & & % . ' = + { + - @ @ ) . @ . ' @ - ) $ . * ",
"+ % . & * ) ' * ; $ # = ' @ ~ ) $ . = . ' # ; ) * @ . , & { * # ' # * $ & ] ) & # . { * # $ ) ) @ ) = $ . ] ' . = + $ ) # @ @ ~ % @ % % . = % @ - # @ + * . ; - . . , ) $ + ~ . @ # + . ) . & * # ' . * ",
"; ) & ' - + ' * ; $ % ] @ @ ~ ) $ ' - ' @ % . % * $ & , . > ) + ' * * > @ ~ + . - . > # ) $ ; ) @ + = @ & ] & . ] . $ # # @ @ - + @ + + . ~ + @ # # ' % * . . - . @ = ) { . * . @ / + & # . ' - # @ . # ",
"% * . ' * + & ~ % @ # = ' @ ~ # $ . * & @ ) . % ~ @ ' , ; $ # . @ ~ ~ ! @ * . . ( . ! ) ) { . ) ' ; = $ @ ~ @ @ ] . $ * * $ @ - % @ + . ' - ; ' % . $ ; * . . % & @ ] # $ . * + $ ; + . # . @ # % $ @ # ",
"+ * & @ - ; & ~ ) @ + ] ' @ ] - @ . * . ' ) . + ~ & ' , % $ - . $ ~ ~ { @ ] . ' , + { - ) $ ; # . + , @ $ = & @ = % $ ~ ] @ @ ~ * & # + & * + . * + @ + ] + . # + ' ] ~ @ + ] # & % % . * + & * - $ @ # ",
"; * ' $ - . @ * ) @ . * ' ' * # $ & - & @ % & ; - @ @ = % $ - . { * * > ' ] ' $ ~ + > - ) $ . + ' ; , ' $ = . @ ] ) $ # ] @ @ * - ' # + ' - . . ] + $ ; ] + ' # ) @ * * @ ; * / & % ; ' ~ % @ ~ - $ @ ) ",
"; ~ & @ ~ ; @ * # ' + ~ . & ] * $ & ~ . & ) . ; ~ & $ = # $ ~ - $ ~ ~ { ' = . $ * # $ - # $ ; % ' ; ] @ $ ] . $ ~ - { ) ] @ $ # ) @ % ; @ # . @ ~ ; { . ] + $ % # @ # * @ ; # ; ' # ; @ # + @ ~ - $ @ ) ",
"; * & $ * + $ # # @ . - & @ ~ ~ @ ' ~ ; ' % . . ~ . $ ] # $ ~ * $ * ] { ' = % @ # - @ - * $ + # & ) = @ @ ] . { ~ ~ $ % = ' { * * . # ) & * + . ] % { . ] ) @ + * & # * & % - ; . * + ' * % & = - $ & - ",
"+ * . $ * ) @ # - ' . # . @ - * @ @ * + & + & . * . > * ) $ - - { % ~ { @ * + @ + ; $ # * $ ; # ' + * $ @ ] . > # * $ . ] @ { * # ' # % ' # + . ~ ) $ ' * % $ . # ' % # @ + - ' & * . @ # . & = # $ & - ",
"; # ; @ # # @ % * . . - . ' - * ' @ * ) . # ; + , . { * # @ - ~ @ % ] $ ' - + & ) ; $ % ~ @ . * . % # $ @ * . > ) * @ ; ] @ > # ) $ + % @ % . & * ) @ ' - # @ . % ' ) - @ + - @ @ * ; @ + @ @ ] # @ . - ",
"' + ' _ + : _ ' < ' @ + ' [ + : @ $ } + @ . . . = . > - # [ | - ' + ~ [ @ - . ' - / $ + - [ & ~ + - - _ @ ~ . { % - [ ; ( ' 1 - ) _ + < ' # ; ' - # ' ' - - ' . + @ 2 - @ + - ' @ - / 3 4 ' $ - 2 [ + ~ ",
"5 6 5 _ 7 6 8 [ 9 0 a 7 [ _ 3 . [ _ . . _ ' ' [ b 5 c 7 : [ ' 7 [ ' b [ _ 3 [ _ : . d 5 e 8 f 9 3 4 - g _ - . d 7 e g 5 h a d b e d 5 . _ 3 5 f } } [ 8 } e [ ' 5 g 3 i j 5 9 _ 8 k 5 a l [ d i 3 j 5 - ",
"m n m f o o p f 9 o m o a f q o r s n n f t m f u 5 p 5 v f t n r a 9 a p w f j v 5 x a n p p y m m 9 p z o 5 z 5 o z r A s z o o z f t d a f j 5 n f B y n s a 5 p 5 5 z a o p B y C s w f B m 5 j f 6 ",
"D E D F C G H I J K L M N F J O D N J J N J M D P E N J Q D R G R R S P N O R T O Q H R G N N J J C U N H O P T Q O H D V D H O O I R P N J D I J W R T Q O N E P D G M I E X D I G M R X J F J P F N Y ",
"Z `  ...+.@.#...$.%.%.+.H #.&.@.*. .=.-.H &.&. .&.*...&.$. .*.&. .-.;.+...+.*.>.L @.,.-.$.'.'.Z Z &.).*.,.@.&.>.@.L ,.H ;.Z >.@.@...&.$.-.+.Z >.Z !.Z >.$.~.H *.Z H ` &.>.-.@.*.'.&.&.-.{.~.H Z Z ....&.",
"*.].^./.(._./.#.:.<.:.[./.}.|.1.^.2._.#./.(.*.#.|.^.#.|.|.#.(.(.3./._.4./.(.^.5.|._.}.#.].3.5.6./.#.7.8.9.4.*.}.4.4.0.a.1.b.}.:.:.3.*.8./.c.^.}.#._.2.5.|.|./.^.8.#.:.*.}.#._.^.5.*.8./.4.[.b.*.2.a.a.*.",
"3.d.e.f.g.h.f.3.i.j.k.].j.l.3.h.m.3.n.j.f.d.o.3.p.3.j.q.r.s.i.t.f.f.].].3.i.g.f.d.].f.3.].m.u.g.j.j.v.o.w.h.i.f.x.].l.f.y.3.w.i.t.u.d.p.j.d.g.z.j.x.o.u.i.q.m.g.A.3.h.q.z.j.].o.u.B.i.m.d.C.D.h.d.f.f.D.",
"E.F.G.H.E.I.H.J.I.K.L.I.z.M.L.F.N.z.O.z.P.j.E.L.j.Q.K.R.S.P.F.T.P.P.I.I.z.j.S.P.J.U.P.z.I.H.N.J.K.N.V.j.M.W.X.N.R.I.M.P.V.E.M.Y.J.P.R.F.K.R.J.P.z.R.E.P.F.I.K.L.E.z.W.R.P.H.F.S.P.E.X.H.S.Z.L.T.T.N.N.E.",
"S.`. +.+S.++Q.E.@+Q.S.#+K.$+Q.E.M.Q.%+Q.&+E.L.Q.E.P..+*+Q.=+`.++-+&+*+*+Q.S.K.&+S.I.=+Q.;+=+=+S.P.M.@+E.-+*+G.=+E.++&+=+#+L.&+E.S.&+E.E.=+E.S.M..+E.L.=+>+`..+L.S.Q.S.E.M.=+S.Q.-+K.>+=+Q.>+Q.G. +=+=+L.",
",+'+)+!+~+'+=+'+#+!+S.{+'+]+^+'+/+^+(+~+_+,+,+!+'+^+!+:+!+/+<+[+-+_+S.'+!+'+,+/+~+}+|+!+#+^+=+'+^+/+}+S./+1+:+^+'+[+2+-+{+,+2+'+S._+S.'+/+S.S.|+=+'+~+=+<+<+^+,+'+Q.S.<+|+=+'+!+-+~+1+=+^+1+Q.:+}+=+=+S.",
"3+4+5+!+6+1+7+3+8+9+9+0+a+b+|+!+c+b+8+d+c+9+!+|+9+b+^+e+|+c+4+f+7+c+4+4+7+3+6+c+!+e+g+^+f+|+b+1+|+]+3+!+c+!+h+|+4+f+i+i+0+4+c+3+4+c+3+a+g+6+4+b+b+4+9+]+a+a+b+!+1+9+4+3+b+b+!+7+]+9+d+b+g+!+9+e+j+b+g+6+",
"k+l+m+k+k+n+9+o+p+l+9+q+r+9+9+k+s+s+r+n+s+t+o+9+9+g+u+m+9+v+9+n+u+w+o+9+w+l+t+x+u+k+w+u+k+y+w+z+g+A+z+B+A+7+B+w+9+k+y+w+r+l+A+l+9+A+l+k+s+9+z+u+s+9+C+x+k+m+w+C+9+g+9+9+g+g+C+v+x+g+u+w+v+g+y+l+D+C+y+u+"};
