/* XPM */
static char * galleon_menutitle_xpm[] = {
"100 23 32 1",
" 	c None",
".	c #326292",
"+	c #306090",
"@	c #2D5D8D",
"#	c #2E5E8E",
"$	c #316191",
"%	c #366696",
"&	c #336393",
"*	c #2B5B8B",
"=	c #2A5A8A",
"-	c #2F5F8F",
";	c #2C5C8C",
">	c #3B6B9B",
",	c #346494",
"'	c #356595",
")	c #386898",
"!	c #295989",
"~	c #275787",
"{	c #376797",
"]	c #3A6A9A",
"^	c #396999",
"/	c #285888",
"(	c #3D6D9D",
"_	c #255585",
":	c #3E6E9E",
"<	c #3F6F9F",
"[	c #265686",
"}	c #205080",
"|	c #235383",
"1	c #215181",
"2	c #225282",
"3	c #245484",
".+@##@+$#$%&*=-+$.#-.+#$-@$.+$$;@&.;==#+++$+@;-+$+#++#+.+;@---$-@+&+@-##++@@$-+.-#++-+$@;###-+-.$#.>",
"$,$++@#,+@')$*#-$,$#&&#++@+.-.%#!+'$-*~-.#+,-#-;-&@@&-@.&*;$-;++@-&&+@@@+++#@-..+#-#+$+$-=@+--#+$++{",
"+$&&.-*$&##&'$#@-&&+$&&.+#++-+',#@$'%.!=.$#..+&+@,&#.&-.%+*$&#-.-+&,'.#+.$.,-;&'$.&-#.$+'+=-&++$++%%",
"---&,+@#+.+;#,.**$$-$-+,$;##;$&$$+;-{{#!@+---+&$#+.+$+-$,.#-$+--##+$,,-#&$-,&;#,$+&$;@+#.%#*+++$+#,]",
"$+-.',&.#$'+=+%$=#$-.&#.'+-#=-,-#.@!&^,#**-+#-&$#+@#&$;+&+-$+-$+@###+.-#.$@+&+@+$+$.+#@@-&&-#;#$-#+.",
".-@+.$&,-#'';*.,+;#--&$+,,'.*;&.-.-!;,{%+*#$-#&&-&$=$'+-&.+.&$.&+$.+..++&,++&&.$$&&.&,+@+.,'.@;+.+.{",
"$$;#$--&$@+'+*#-$+*;-#-$--'%#;--+.$*=;-%%@@+#@$.-+&#@&.$$+$$++.&+-$$.&#@+..$.$..+..-+%&#-++'%$@;-$$^",
"$&$-$$-.&++',$-#+'.@$+;$.@${&-+#-&,$-@=+{.@$-#+++$-#++-.&@@.-;+&$--#+&-@##+.$+.$-$&-;&'-#-@+'&+#/*++",
"+$-+---++++$&&.#@$,++&#-.-#&,,&--$&,,.;;.,$.$+$-+,.;+&@-'.@.&-+&&&&++&&++-#$.-.,+.'&#-,,+$$+.&,'-~-%",
"-.-+&--.--+##.'$@@+$$$+--####.'-@#;$%.@@##$&+-$-;+.@@&+#.$#+$-+$-+..+++$$-##+@#,+#.$--#+$#+&$#$''@='",
"+++$&.+.++&$@-&,$$$+,&+.$+.&##'.-$;=,%--.#@&&$$-@@-#@$+$.-;++@-.##--.$#-.$++-##&.-$$#$+;##=$'-#&,,+@",
"+#*@$+--@*-.#*#$+$$#+&-+&--,.@.&+&+/#%.#..#$&,'$-.+#-+#+'&#-$;#.$++#.%.-..$&$@#+.$$.+$,&$-=*&,$$$&))",
"$.@*+&+$-;@$$@@@@-+#@+-#+-@+$-++@+.*!-$-@#@#-${&;$.#++*@&.+++@;---+@@,,#-+-..@*;#++@@-#+'.*/=-..-#&(",
"&,.#-&%%,$$&,&&+@+,$+.&&.+$.$$&.+$.+-@#$+#@#--'{-#+-.&;=..-&&#@#@@-#*#&$++#$'.#;;-&+;--;.{&;!!#.$-+,",
"$.+-#*-',++$$..$+-..--.',-+.$.''&&.$&.@-.++++-,{,$--&'$@+&+.',.$--+--++&&$-+,%'&#@,%++.-$%^%+=*+$$%{",
"-,.++;=+&-++-..#-$-++;*+,+-+@#&,$$+#+,-@+@@-@;.,.&-=+,$+---++$%'+-+@#+#-&.+@#+.'-*#.$--@-$.%%#=;#-,^",
"#.,',$#+.-+&$.{&;.,.&&#@$&&,#*+%'&$@-&.-.-*--*+,.&&;;&-#.#@$+*+%.+&-;--#$.+$-@-&&-#-+&$@#.+$'&#@*@+.",
"#;#,{$#$$@*#-+'%#;..$&&+@-&%&*;.%{'-#&&.,.@--##&,,%.#$+@&$@$&@@&&$&&--$-&&-&'+#...$--&'$-&,''.$$#;+{",
".#*#''-.,+*!!;.'$;;-+-$&-=@&,-**#,%+@+#+&$#+@*##+&&$..#@$$;-.##+++$.$--#$'-#,.-----@;-$+##-&%.#-+;!,",
"{,-@+{'$,{&;/!;.'$;*++#-&-=#&,+**#,,@@#@+.-++;=@@-&+$'$##-+#+-;--#--+#;@@$,#-&$+--#;=;###@@#,'+;;-;/",
"&^&$++'%$'>'=!**$^.!#.--$,.;@,{#=-+,,#-.$$$.$+-@-+$++'%,&#-,+#+-+$+@-.;;$#.%+-&&&&.#*@##-$#@${),@;''",
"&{^$,$@]{#{($=#=_,>;/.-@@*,,~;{,~;&#$&=@'+;&.*$$!-&*;.$.{./&^*#,@#{+@&+/#$=$)#;,&&'$=*@!*+-!@+'>&/;)",
"{&^%%>$':&$<(..{!!(]!+'$$=@^$_.]@['.[&+}@%~@{/[,=|,-|#-~${/~(&|&$|&{!$,@!$;1%^~;$*$.*=;_2=@[3*/&);/@"};
