/* XPM */
static char * Granite_menutitle_xpm[] = {
"100 23 791 2",
"  	c None",
". 	c #343B48",
"+ 	c #303644",
"@ 	c #262D3B",
"# 	c #2B3240",
"$ 	c #28303E",
"% 	c #313846",
"& 	c #343C4A",
"* 	c #2B3241",
"= 	c #353D4B",
"- 	c #474E5D",
"; 	c #3C4453",
"> 	c #242B3A",
", 	c #232B3A",
"' 	c #343B4B",
") 	c #363E4D",
"! 	c #394050",
"~ 	c #3B4353",
"{ 	c #313949",
"] 	c #343C4C",
"^ 	c #3E4657",
"/ 	c #373F4F",
"( 	c #313A4A",
"_ 	c #3B4354",
": 	c #353E4E",
"< 	c #31394A",
"[ 	c #3E4758",
"} 	c #424A5B",
"| 	c #3A4354",
"1 	c #404859",
"2 	c #40495A",
"3 	c #30394B",
"4 	c #343D4F",
"5 	c #475062",
"6 	c #464F61",
"7 	c #2D3648",
"8 	c #2F384B",
"9 	c #3A4355",
"0 	c #424C5E",
"a 	c #40495C",
"b 	c #414B5D",
"c 	c #464F62",
"d 	c #444E61",
"e 	c #394255",
"f 	c #384255",
"g 	c #404A5E",
"h 	c #454F62",
"i 	c #485266",
"j 	c #444E62",
"k 	c #3F495D",
"l 	c #465064",
"m 	c #475166",
"n 	c #424C60",
"o 	c #4F596E",
"p 	c #475266",
"q 	c #3E485D",
"r 	c #414C61",
"s 	c #465166",
"t 	c #49546A",
"u 	c #4D586D",
"v 	c #485369",
"w 	c #434E64",
"x 	c #4D586E",
"y 	c #576278",
"z 	c #4E596F",
"A 	c #455066",
"B 	c #465167",
"C 	c #4F5A70",
"D 	c #515C72",
"E 	c #4C576D",
"F 	c #556076",
"G 	c #475268",
"H 	c #4A556B",
"I 	c #444F65",
"J 	c #404B61",
"K 	c #4B566C",
"L 	c #535E74",
"M 	c #545F75",
"N 	c #6E798F",
"O 	c #333947",
"P 	c #39404D",
"Q 	c #323846",
"R 	c #2F3644",
"S 	c #2B3341",
"T 	c #3D4452",
"U 	c #313947",
"V 	c #282F3E",
"W 	c #404856",
"X 	c #4C5362",
"Y 	c #373F4E",
"Z 	c #272E3D",
"` 	c #2F3746",
" .	c #434A5A",
"..	c #3A4252",
"+.	c #303848",
"@.	c #3F4757",
"#.	c #41495A",
"$.	c #333B4B",
"%.	c #394252",
"&.	c #384051",
"*.	c #424B5C",
"=.	c #3A4253",
"-.	c #414A5B",
";.	c #4E5668",
">.	c #384152",
",.	c #2A3244",
"'.	c #3E4759",
").	c #4C5567",
"!.	c #424B5D",
"~.	c #3C4557",
"{.	c #2F384A",
"].	c #242E40",
"^.	c #3D4658",
"/.	c #475163",
"(.	c #3B4457",
"_.	c #4D5669",
":.	c #404A5D",
"<.	c #3C4558",
"[.	c #414B5E",
"}.	c #384256",
"|.	c #434D60",
"1.	c #4D576B",
"2.	c #3B4559",
"3.	c #3D475B",
"4.	c #4F596D",
"5.	c #454F64",
"6.	c #505A6F",
"7.	c #384357",
"8.	c #3D475C",
"9.	c #465065",
"0.	c #3F4A5F",
"a.	c #4C576C",
"b.	c #414C62",
"c.	c #505B71",
"d.	c #3D485E",
"e.	c #636E84",
"f.	c #2C3340",
"g.	c #343A48",
"h.	c #383F4C",
"i.	c #383E4C",
"j.	c #363D4B",
"k.	c #222937",
"l.	c #333B49",
"m.	c #3A414F",
"n.	c #2C3442",
"o.	c #2D3443",
"p.	c #3C4452",
"q.	c #424958",
"r.	c #38404F",
"s.	c #2F3645",
"t.	c #2C3443",
"u.	c #333A4A",
"v.	c #3F4756",
"w.	c #414858",
"x.	c #3A4151",
"y.	c #424A5A",
"z.	c #3F4858",
"A.	c #374050",
"B.	c #323A4B",
"C.	c #3D4556",
"D.	c #4A5364",
"E.	c #485062",
"F.	c #363F50",
"G.	c #353D4F",
"H.	c #4B5466",
"I.	c #515A6C",
"J.	c #454E61",
"K.	c #293244",
"L.	c #485163",
"M.	c #444E60",
"N.	c #485264",
"O.	c #4A5366",
"P.	c #4C5568",
"Q.	c #424C5F",
"R.	c #3C4559",
"S.	c #515B6E",
"T.	c #3E485C",
"U.	c #4C566A",
"V.	c #515B6F",
"W.	c #5A6479",
"X.	c #495368",
"Y.	c #394458",
"Z.	c #4D576C",
"`.	c #525D72",
" +	c #444E63",
".+	c #475267",
"++	c #495469",
"@+	c #586379",
"#+	c #5B667C",
"$+	c #5A657B",
"%+	c #424D63",
"&+	c #5C677D",
"*+	c #566177",
"=+	c #525D73",
"-+	c #5E697F",
";+	c #292F3C",
">+	c #29303D",
",+	c #2E3442",
"'+	c #383F4D",
")+	c #3A404E",
"!+	c #282F3C",
"~+	c #29303E",
"{+	c #2F3745",
"]+	c #262D3C",
"^+	c #2D3543",
"/+	c #3E4554",
"(+	c #394150",
"_+	c #242C3B",
":+	c #383F4F",
"<+	c #353C4C",
"[+	c #343C4B",
"}+	c #444D5D",
"|+	c #3C4454",
"1+	c #2B3444",
"2+	c #343C4D",
"3+	c #333C4C",
"4+	c #2F3748",
"5+	c #3D4657",
"6+	c #434B5C",
"7+	c #3F4759",
"8+	c #3B4455",
"9+	c #31394B",
"0+	c #535C6E",
"a+	c #384154",
"b+	c #2A3345",
"c+	c #363F52",
"d+	c #414A5D",
"e+	c #3F495B",
"f+	c #3F485B",
"g+	c #3F495C",
"h+	c #444D60",
"i+	c #4B5568",
"j+	c #3D475A",
"k+	c #454E62",
"l+	c #475165",
"m+	c #434D61",
"n+	c #535D71",
"o+	c #434D62",
"p+	c #444F63",
"q+	c #485368",
"r+	c #465066",
"s+	c #59647A",
"t+	c #5F6A80",
"u+	c #3F4A60",
"v+	c #6B768C",
"w+	c #2F3643",
"x+	c #2D3341",
"y+	c #363C4A",
"z+	c #3F4653",
"A+	c #373E4C",
"B+	c #363D4A",
"C+	c #323A48",
"D+	c #414856",
"E+	c #212837",
"F+	c #222938",
"G+	c #2D3544",
"H+	c #323A49",
"I+	c #3D4454",
"J+	c #313848",
"K+	c #3E4656",
"L+	c #464F5F",
"M+	c #363F4F",
"N+	c #283141",
"O+	c #394152",
"P+	c #475061",
"Q+	c #434B5D",
"R+	c #333C4D",
"S+	c #586072",
"T+	c #384254",
"U+	c #323C4E",
"V+	c #3E475B",
"W+	c #3E485B",
"X+	c #4E576B",
"Y+	c #434E62",
"Z+	c #4B556A",
"`+	c #485367",
" @	c #4A5469",
".@	c #424D62",
"+@	c #455065",
"@@	c #323845",
"#@	c #2A313E",
"$@	c #242A38",
"%@	c #2D3441",
"&@	c #323947",
"*@	c #373E4B",
"=@	c #3C4351",
"-@	c #2E3542",
";@	c #2A313F",
">@	c #3F4654",
",@	c #404755",
"'@	c #252D3B",
")@	c #232A39",
"!@	c #39414F",
"~@	c #414857",
"{@	c #303847",
"]@	c #333B4A",
"^@	c #404757",
"/@	c #434B5B",
"(@	c #434C5C",
"_@	c #464E5E",
":@	c #3D4656",
"<@	c #293142",
"[@	c #2F3848",
"}@	c #444C5D",
"|@	c #3B4355",
"1@	c #262F40",
"2@	c #495264",
"3@	c #545C6E",
"4@	c #525B6D",
"5@	c #313A4C",
"6@	c #3A4456",
"7@	c #3E485A",
"8@	c #4B5567",
"9@	c #4B5467",
"0@	c #4C5569",
"a@	c #465063",
"b@	c #343D51",
"c@	c #555F73",
"d@	c #4E586D",
"e@	c #4C576B",
"f@	c #515B70",
"g@	c #4A5569",
"h@	c #535E73",
"i@	c #4A556A",
"j@	c #5D687E",
"k@	c #2F3542",
"l@	c #222936",
"m@	c #272D3B",
"n@	c #313845",
"o@	c #2D3442",
"p@	c #272E3C",
"q@	c #313847",
"r@	c #232B39",
"s@	c #383F4E",
"t@	c #252C3B",
"u@	c #2A3241",
"v@	c #2E3645",
"w@	c #394151",
"x@	c #475060",
"y@	c #4B5363",
"z@	c #323B4B",
"A@	c #2C3445",
"B@	c #384151",
"C@	c #394253",
"D@	c #2E3648",
"E@	c #293243",
"F@	c #30384A",
"G@	c #51596B",
"H@	c #364052",
"I@	c #353E50",
"J@	c #3A4356",
"K@	c #394355",
"L@	c #3D465A",
"M@	c #4B5468",
"N@	c #454F63",
"O@	c #495468",
"P@	c #4A5468",
"Q@	c #485267",
"R@	c #4F5A6E",
"S@	c #535D72",
"T@	c #4E586E",
"U@	c #606B81",
"V@	c #687389",
"W@	c #2D3340",
"X@	c #2E3441",
"Y@	c #303744",
"Z@	c #333A48",
"`@	c #3E4553",
" #	c #333A49",
".#	c #303846",
"+#	c #434A59",
"@#	c #2A3140",
"##	c #373E4E",
"$#	c #2A3242",
"%#	c #3A4251",
"&#	c #4F5767",
"*#	c #343D4D",
"=#	c #444D5E",
"-#	c #485061",
";#	c #394153",
">#	c #343D4E",
",#	c #2B3345",
"'#	c #545D6E",
")#	c #434C5E",
"!#	c #3B4557",
"~#	c #404A5C",
"{#	c #414B5F",
"]#	c #4E586C",
"^#	c #4E596D",
"/#	c #3D485C",
"(#	c #525D71",
"_#	c #4C566B",
":#	c #556075",
"<#	c #495369",
"[#	c #374258",
"}#	c #3E495F",
"|#	c #2C333F",
"1#	c #2B323F",
"2#	c #2A303E",
"3#	c #2E3543",
"4#	c #303745",
"5#	c #343B49",
"6#	c #373E4D",
"7#	c #353D4C",
"8#	c #404756",
"9#	c #3E4655",
"0#	c #323A4A",
"a#	c #3E4555",
"b#	c #404858",
"c#	c #454D5D",
"d#	c #404959",
"e#	c #363E4F",
"f#	c #41495B",
"g#	c #323B4C",
"h#	c #454E60",
"i#	c #414A5C",
"j#	c #424B5E",
"k#	c #4E586B",
"l#	c #485164",
"m#	c #364053",
"n#	c #444D61",
"o#	c #4C5669",
"p#	c #545D71",
"q#	c #3C465B",
"r#	c #515C70",
"s#	c #465165",
"t#	c #525C71",
"u#	c #515C71",
"v#	c #4B566B",
"w#	c #566076",
"x#	c #545F74",
"y#	c #333E54",
"z#	c #313743",
"A#	c #282E3B",
"B#	c #353B48",
"C#	c #2B313F",
"D#	c #323946",
"E#	c #353C4A",
"F#	c #363D4C",
"G#	c #363D4D",
"H#	c #323949",
"I#	c #303849",
"J#	c #3C4556",
"K#	c #4D5566",
"L#	c #434C5D",
"M#	c #343C4E",
"N#	c #373F51",
"O#	c #374052",
"P#	c #3F485A",
"Q#	c #353F51",
"R#	c #485265",
"S#	c #394356",
"T#	c #40495D",
"U#	c #485165",
"V#	c #4E596E",
"W#	c #4B556B",
"X#	c #4C566C",
"Y#	c #4F5A6F",
"Z#	c #4F596F",
"`#	c #3C475D",
" $	c #2A303C",
".$	c #2B313E",
"+$	c #2C323E",
"@$	c #333A47",
"#$	c #353C4B",
"$$	c #343B4A",
"%$	c #3F4655",
"&$	c #3B4352",
"*$	c #474F5F",
"=$	c #2C3545",
"-$	c #3A4254",
";$	c #3D4759",
">$	c #374053",
",$	c #3B4558",
"'$	c #3A4357",
")$	c #3C465A",
"!$	c #455064",
"~$	c #414C60",
"{$	c #424C61",
"]$	c #505B70",
"^$	c #292F3B",
"/$	c #262C38",
"($	c #1D222F",
"_$	c #222834",
":$	c #262C3A",
"<$	c #1F2633",
"[$	c #202735",
"}$	c #3B4251",
"|$	c #434B5A",
"1$	c #414959",
"2$	c #212A3A",
"3$	c #4D5667",
"4$	c #374051",
"5$	c #424A5C",
"6$	c #495263",
"7$	c #4A5365",
"8$	c #4E5769",
"9$	c #475063",
"0$	c #3C4659",
"a$	c #464F63",
"b$	c #4D566A",
"c$	c #434C60",
"d$	c #495367",
"e$	c #5C677C",
"f$	c #515B71",
"g$	c #667187",
"h$	c #646F85",
"i$	c #303642",
"j$	c #232935",
"k$	c #1C212E",
"l$	c #333946",
"m$	c #303643",
"n$	c #212835",
"o$	c #242B38",
"p$	c #272E3B",
"q$	c #29303F",
"r$	c #323948",
"s$	c #313948",
"t$	c #384050",
"u$	c #373F50",
"v$	c #252E3F",
"w$	c #363E50",
"x$	c #3B4456",
"y$	c #343D50",
"z$	c #4A5467",
"A$	c #414B60",
"B$	c #545E73",
"C$	c #454F65",
"D$	c #525C72",
"E$	c #354056",
"F$	c #737E94",
"G$	c #353B47",
"H$	c #252B37",
"I$	c #282D3A",
"J$	c #3D4350",
"K$	c #3F4552",
"L$	c #393F4C",
"M$	c #3A414E",
"N$	c #282F3D",
"O$	c #39404F",
"P$	c #3D4554",
"Q$	c #333B4C",
"R$	c #353E4F",
"S$	c #323A4C",
"T$	c #4E5768",
"U$	c #545D6F",
"V$	c #394254",
"W$	c #3D4659",
"X$	c #465062",
"Y$	c #374154",
"Z$	c #323B4E",
"`$	c #505A6E",
" %	c #3E495D",
".%	c #404B5F",
"+%	c #394358",
"@%	c #444F64",
"#%	c #4A546A",
"$%	c #475167",
"%%	c #5A647A",
"&%	c #39445A",
"*%	c #2C323D",
"=%	c #282E3A",
"-%	c #252B38",
";%	c #242A36",
">%	c #1E2330",
",%	c #3B414E",
"'%	c #373D4A",
")%	c #2D3440",
"!%	c #353C49",
"~%	c #464E5D",
"{%	c #444C5C",
"]%	c #313A4B",
"^%	c #515B6D",
"/%	c #4D576A",
"(%	c #555E72",
"_%	c #5D687D",
":%	c #616C82",
"<%	c #343A46",
"[%	c #2E3440",
"}%	c #2B313D",
"|%	c #1E2430",
"1%	c #1A1F2C",
"2%	c #2A303D",
"3%	c #242B39",
"4%	c #3D4555",
"5%	c #424A59",
"6%	c #353D4E",
"7%	c #3C4455",
"8%	c #464F60",
"9%	c #454F61",
"0%	c #495266",
"a%	c #566074",
"b%	c #535D70",
"c%	c #404A5F",
"d%	c #434E63",
"e%	c #545E74",
"f%	c #3B465C",
"g%	c #212732",
"h%	c #2D333F",
"i%	c #363C48",
"j%	c #373E4A",
"k%	c #434A58",
"l%	c #3B4250",
"m%	c #3C4352",
"n%	c #3D4553",
"o%	c #404857",
"p%	c #252D3C",
"q%	c #444C5B",
"r%	c #2F3747",
"s%	c #2B3445",
"t%	c #384052",
"u%	c #2D3647",
"v%	c #4B5465",
"w%	c #485162",
"x%	c #323B4D",
"y%	c #353F52",
"z%	c #576175",
"A%	c #3A4458",
"B%	c #424C62",
"C%	c #576277",
"D%	c #1F2531",
"E%	c #1C222D",
"F%	c #3D434F",
"G%	c #242A37",
"H%	c #2F3541",
"I%	c #222835",
"J%	c #1C222E",
"K%	c #3D4451",
"L%	c #232A38",
"M%	c #303746",
"N%	c #464E5C",
"O%	c #262E3D",
"P%	c #28303F",
"Q%	c #4B5362",
"R%	c #353D4D",
"S%	c #464E5F",
"T%	c #3F4758",
"U%	c #444D5F",
"V%	c #50596A",
"W%	c #495265",
"X%	c #495366",
"Y%	c #2E343F",
"Z%	c #191F2A",
"`%	c #212733",
" &	c #383E4A",
".&	c #373D49",
"+&	c #1C222F",
"@&	c #171D2A",
"#&	c #202734",
"$&	c #3C4350",
"%&	c #313745",
"&&	c #2C3341",
"*&	c #212836",
"=&	c #48505F",
"-&	c #363E4E",
";&	c #2C3546",
">&	c #454E5F",
",&	c #4B5569",
"'&	c #4B566A",
")&	c #586277",
"!&	c #384359",
"~&	c #3A3F4A",
"{&	c #323843",
"]&	c #242935",
"^&	c #1F2530",
"/&	c #272D39",
"(&	c #3C424E",
"_&	c #363C49",
":&	c #3E4450",
"<&	c #1F2532",
"[&	c #141A26",
"}&	c #2C3342",
"|&	c #3D4453",
"1&	c #3F4755",
"2&	c #2E3646",
"3&	c #2E3748",
"4&	c #2A3344",
"5&	c #3E475A",
"6&	c #394357",
"7&	c #3F495E",
"8&	c #364157",
"9&	c #2F3540",
"0&	c #404550",
"a&	c #2A2F3B",
"b&	c #282E39",
"c&	c #4B515D",
"d&	c #1B212E",
"e&	c #191F2B",
"f&	c #1E2431",
"g&	c #1D2431",
"h&	c #313744",
"i&	c #474E5B",
"j&	c #1A212E",
"k&	c #474F5D",
"l&	c #2E3544",
"m&	c #414958",
"n&	c #40495B",
"o&	c #4D5668",
"p&	c #4F586A",
"q&	c #4E576A",
"r&	c #5B657A",
"s&	c #555F75",
"t&	c #657086",
"u&	c #2D323D",
"v&	c #3B414C",
"w&	c #424752",
"x&	c #2B313C",
"y&	c #343945",
"z&	c #292F3A",
"A&	c #202632",
"B&	c #454B57",
"C&	c #515763",
"D&	c #191F2C",
"E&	c #262D39",
"F&	c #1A202D",
"G&	c #0C1320",
"H&	c #383E4B",
"I&	c #4F5663",
"J&	c #212735",
"K&	c #171E2B",
"L&	c #181F2D",
"M&	c #49505F",
"N&	c #3E4654",
"O&	c #1A2130",
"P&	c #293140",
"Q&	c #252D3D",
"R&	c #2D3546",
"S&	c #2A3243",
"T&	c #3F4859",
"U&	c #283142",
"V&	c #2E3749",
"W&	c #30394A",
"X&	c #273042",
"Y&	c #5C6578",
"Z&	c #4F586C",
"`&	c #586276",
" *	c #4F596C",
".*	c #2F394D",
"+*	c #353F54",
"@*	c #616B80",
"#*	c #5A657A",
"$*	c #394459",
"%*	c #3A455B",
"&*	c #6D788E",
"**	c #393F49",
"=*	c #414752",
"-*	c #383D48",
";*	c #393F4A",
">*	c #494E5A",
",*	c #555B68",
"'*	c #525864",
")*	c #3F4652",
"!*	c #181E2B",
"~*	c #161D2A",
"{*	c #535966",
"]*	c #4B525F",
"^*	c #191F2D",
"/*	c #1D2432",
"(*	c #4B5260",
"_*	c #111826",
":*	c #505766",
"<*	c #29313F",
"[*	c #161D2C",
"}*	c #161E2D",
"|*	c #070F1F",
"1*	c #485060",
"2*	c #1C2434",
"3*	c #4E5666",
"4*	c #222A3B",
"5*	c #1B2334",
"6*	c #454D5E",
"7*	c #151E2F",
"8*	c #141D2F",
"9*	c #242D3F",
"0*	c #262F42",
"a*	c #666F82",
"b*	c #192235",
"c*	c #1A2437",
"d*	c #303A4D",
"e*	c #525C6F",
"f*	c #323C50",
"g*	c #192338",
"h*	c #596377",
"i*	c #636D82",
"j*	c #2C374C",
"k*	c #3B455B",
"l*	c #2C374D",
"m*	c #242F45",
"n*	c #2E394F",
"o*	c #283349",
"p*	c #343F55",
". + @ # # $ % & * = - ; > , ' ) ! ~ { ] ^ / ( _ : < [ } | 1 2 3 4 5 6 4 7 8 9 0 a b c d e f g h i j k l m n m o p q r m s t u v w x y z A t B B z C A B D E E F E G z x H x C I J B v G H x K L D G M N ",
"O P Q R Q @ S T U V W X Y Z ` ' Y  ...+.@.#.$.%.&.( _ *.=.-.;.>.,.'.).!.~.{.].^./.(.b _.:.<.[.}.|.1.2.3.4.5.g o 6.7.8.u 9.0.K a.b.H F F x B w A E z x B I E L L x v t v E c.x C H d.I x K H v C c.x z e.",
"f.g.h.i.j.f.k.l.m.n.o.p.q.r.s.t.u.v.w./ x.y.z.@.A.B.%._ >.C.D.E.F.G.*.H.I.J.K.8 L.M.(.N.O.|.P.Q.R.S.1.T.U.V.5.1.W.X.Y.Z.`. +.+D ++K y @+#+L G x M C L $+K %+y &+D L *+K G F D z &+z d.E F C x =+x C -+-+",
";+>+,+'+)+% !+~+{+j.U ]+^+/+(+> _+:+r.<+..[+/ }+|+1+2+3+4+5+6+5+7+8+9+9 0+0+a+b+c+d+e+f+g+h+i+J.j+k+i+l l+l m+X.n+o o+p+Z.++m q+r+s E c.@+$+t v F C H s+y J t #+D x F c.b.B x B M t+B u+z x z D x v s+v+",
"w+x+>+y+z+)+A+B+~+C+D+U E+C+- Y F+G+x.H+I+@.J+K+L+/ M+2+N+O+P+O+F.Q+R+,.6 S+H.T+3 U+^.b (.j+_.h V+|.R.W+X+i 2.l o l+Y+Z+`+m u  @.@B +@A z D H G L D I E y x I z c.x D L x v B I H @+F H B w G D H G x L ",
"@@#@$@%@y+&@*@=@-@;@>@,@'@)@!@~@[+V {@u.]@^@..:+/@(@_@:@<@[@}@2 O+2 |@1@9+2@3@4@e+5@6@h+7@(.8@9@g+0@a@b@l+c@j m+4.d@i e@f@g@f@h@ @u D i@c.L E E y $+C C F *+M D D *+*+=+y $+C B z M s+j@L I %+z M z M e.",
"w+k@l@m@n@x+o@P &@p@% D+q@r@* {@s@]@t@u@J+v@u.w@[+] x@y@z@A@B@&.C@#.[ D@E@F@9 G@I.H@I@b J@K@h+a@f+|.P.W+L@U.M@l+m N@O@P@p Q@R@S@q+m u T@h@M G A x M L =+=+D M =+x =+M t x -+y G H x x j@U@c.I b.H D C V@",
"W@. X@>++ Y@f.Z@h.R &@>@`@ #.#o.H++#(+@#r.##$#%#|+v@~ &#y.: O+*#O+=#-#[ ;#>#,#~.'#)#H@!.!#e ~#d+Q.h+[.V+|.k+{#P@]#3.3.^#l /# @(#_#.+Q@s T@:#<#%+G t E =+D x =+D K C y K %+F j@K B E B z j@y z v [#}#E E ",
"|#X@>+W@1#2#1#-@3#w+4#5#'+m.6#n.V 7#8#[+<+9#J+0#a#] 0#b#c#/@d#e#: ^ =#-#P+f#g#9+h#D.)#6 i#~#h+7@j#k#l#m#n#o#L@{#p#P@q#U.r# +s#t#u#t#h@ @v#w#x#x x H v c.L K L $+z =+j@F B E $+#+z C D x =+y s+j@t y#H -+",
";+z#A#W@B#1#C#D#f.# -@~+# E#>@F#;@@#H+F#) G#[+H#{ H#{ 0#{ @._@: I#3+I#J#K#L#M#R+N#O#2 5 P#~.M.<.Q#d+R#e S#0@|.T#P@U#k 5.i p+Q@g@m i@6.V#W#i@X#Y#Z#H G v z A t s+z t M D H H G z D t E F c.G D -+&+I `#j@",
" $.$+$W@B+@@%@O -@%@A+@$@ o@m.`@#$& $$H+%$&$u.&$x.7#; b#+.{ *$@.M+^ =$<@P+K#>.-$*.N#I@P+5 i#)#;$>$K@a ,$J@d k+h 0@m+'$N@l )$!$Z.~${$+@m ]$d@+@<#=+Z#K x K B G F L t D c.t D x %+G v d.C &+t G *+s+@+x A ",
"^$/$($_$k@.$A#f.:$<$f.E#!+[$~+&@4#$$j.o.]@}$H+G#; u.] |$|+{@K+1$/ y.=.2$2+3$} 4$5$-.;#i#6$7$8$i#;$9$0 <.g+d+0$a$S.b$k c$d$)$k ^#Z+p  @!$o e$6..+f$u#Z#M C A B C M c.D =+z D s+*+D E `#u+*+@+c.D c.F g$h$",
"+$i$j$k$+$l$W@m$1#n$o$D#4#p$@ @ p@R  ## q$ #r$v@<+s$v@/ %#$./ t${ u$K+A@v$&.[ &.R+w$R+;#x$-.0+2@4 0 J.6@j#Q.y$,$X+z$n#l k+2.2.j p+5.`+A$0.B$x#C$q+W#q+D$L I d.%+G x x A A H v C &+F u+E$`#K =+=+K t *+F$",
"z#G$X@H$I$G$J$K$L$Y@w+B+M$A+h.R N$4#=@#$% O$P$}$(+<+Y ; w@%#K+K+t$|+^ ..e#< Q$5+C.R$S$4$8+9 T$U$^.V$~#W$X$9@Y$Z$R#M@:.b$`$T#3.{#3. %5..%+%@%f@a.#%i@$%z %%L v %+J H @+E b.E t %+F h$F %+[#&%B F C K C @+",
"*%i$=%-%;%>% $,%'%)%W@n@D#!%E#@$4#o@j.'+s.R 6#q.%${@' &$%#|+~%_@@.y.b#_ {%#.]%O+-._ 8+J#8+J#2@'#).)#~.'.9@^%c f j#/%a$i+(%V.o#d$N@j p 9.p+m i@f@`.Z#++W#y _%j@*+G B #+-+x z M K C :%V@:%x `#d.x D c.t+e.",
"j$<%[%^$}%|%1%.$l$2%|#k@#@D#B+N$f.Z@3#4#&@Z 3%r$/+ #s$<+t.` 4%5%w@w@/ { =.{%6%]%7%g#9+C@g#{.=#2@8%L.x${.!._.9%d+g+a g+c$d 0%a%b%j N@l T.c%p o+.+f@V#<#d%C$H e%#+K }#G M C E H A H c.M U@t+t f%J G H s+V@",
"g%h%i%i%G$.$/$2%z# $W@j%Y@@$k%B+3%*@T E#l%l%* ~+#$m%n%o%{@p%Y *$q%@.~ r%] } @.&.1 e#s%t%4$u%x$v%)#w%L.x%4 L.W$!#c j+e h c$y%a$z%z$N@4.m+A%5.!$o+u d@i@X#.+B%v C%*+t B t c.F =+A t L z =+j@F t G u+I x =+",
"D%E%_$<%F%+$G%H%W@I%J%-%>+f.K%,@!+L%!%j.5#m.=@q@# M%/+N%; O%P%; _@Q%_@R%$.1$1 @.S%T%Q$4$-$>#4$U%6$2@V%h#V$U%i#e W%c f c /%,$,$k#4.X%]#]#n N@Z+s#6.`.m u#%%i@$%c.x#L D K K @+j@=+K *+s+#+j@M C =+t J x :%",
"Y%_$Z%`% &.&H$k@ &2%+&@&@&#&l$$&%&l@k.&&4#3#Z@m.s.*&@#/+%$M%p%p%` y.=&-&r%-&$.&.{%C.2+O+g#;&>#>.x$>&6 !.h#U%J@V$h+M.>$W+l#j+j+h d l z$,&d$m+m+A$'&)&s {$x#f$.+<#v ++K I b.t D x G t K @+U@L v t z w !&$+",
"~&{&]&^&/&(&i%+$_&:&l$<&[&@&l@l$$&D#n$*&Y@% ;@R m.s.*&}&|&1&]@p%p%` /@|$2&r%0#+.O+b#&.O+_ 3&4&g#>#V$>&^.i#8$)#e x$5&a (.[.T#Y$T#[.j+n |.l {#6&T.7&'&B$.@9.h@T@a.i@G s b.`#b.v t G B w G $+j@z %+b.K %+8&",
"9&0&9&a&b&=% &(&h%'%c&L$d&e&f&g&h&i&E#j&N$j.o@&& #T s@@ V %$k&l&, {@) 1$m&{ ] 4%~ =.|+1 ^ _ C@g#4$[ n&J#~.o&p&H.W%V$<.q&a j+c$:.Q.a@h 3.Q.P@)$2.P@{$^#r&++m h@s&:#:#=+.+`#I v B K D t A =+:%t&s+w %+#+j@",
"u&v&w&x&y&z&A&B&:&j$K$C&k@D&E&F&G&H&I&J&K&5#o@p@@ F+T m%L&t@M&N&O&P&; v@..o%Q&2&*$w@R&y.1 S&C.T&U&>.>&V&W&)#i#U%U$J.X&O.Y&Z$,$Z&f j+`&d 2. *j .*k P@+*,&@*.@8.x#D$h@#*C $*}#A %*d.z K !&I x #+&**+E$J t&",
"**u&=*-*;*>*z&.&C&i$h%,*'*h&h&)*!*~*{*]*^*-@=@% &@/*]+(* #_*6#:*<*[*5%(+}*K+7#|*r%1*2*4+3*4*5*6*<@7*8%C@8*F.9 9*n&0+0*9*a*W%b*i+n#c*i+`&d*l+e*2.f*i A%g*h*i*j*q#v#k*V#u#f%$*u+l*m*%*w n*o*u+E$F t&J p*w "};
