/* XPM */
static char * Granite_tile_xpm[] = {
"64 64 111 2",
"  	c None",
". 	c #A9A9A9",
"+ 	c #A3A3A3",
"@ 	c #A1A1A1",
"# 	c #A6A6A6",
"$ 	c #A4A4A4",
"% 	c #ABABAB",
"& 	c #B2B2B2",
"* 	c #9A9A9A",
"= 	c #969696",
"- 	c #9C9C9C",
"; 	c #A5A5A5",
"> 	c #9E9E9E",
", 	c #9B9B9B",
"' 	c #9D9D9D",
") 	c #A0A0A0",
"! 	c #989898",
"~ 	c #999999",
"{ 	c #939393",
"] 	c #919191",
"^ 	c #888888",
"/ 	c #8A8A8A",
"( 	c #929292",
"_ 	c #959595",
": 	c #8E8E8E",
"< 	c #868686",
"[ 	c #898989",
"} 	c #8C8C8C",
"| 	c #8D8D8D",
"1 	c #909090",
"2 	c #838383",
"3 	c #858585",
"4 	c #8B8B8B",
"5 	c #8F8F8F",
"6 	c #878787",
"7 	c #7B7B7B",
"8 	c #848484",
"9 	c #818181",
"0 	c #808080",
"a 	c #828282",
"b 	c #7D7D7D",
"c 	c #7F7F7F",
"d 	c #A8A8A8",
"e 	c #7C7C7C",
"f 	c #7E7E7E",
"g 	c #787878",
"h 	c #797979",
"i 	c #7A7A7A",
"j 	c #777777",
"k 	c #767676",
"l 	c #ADADAD",
"m 	c #636363",
"n 	c #696969",
"o 	c #666666",
"p 	c #616161",
"q 	c #686868",
"r 	c #676767",
"s 	c #646464",
"t 	c #6B6B6B",
"u 	c #6F6F6F",
"v 	c #656565",
"w 	c #6A6A6A",
"x 	c #727272",
"y 	c #6C6C6C",
"z 	c #6E6E6E",
"A 	c #6D6D6D",
"B 	c #707070",
"C 	c #757575",
"D 	c #737373",
"E 	c #4E4E4E",
"F 	c #4F4F4F",
"G 	c #505050",
"H 	c #515151",
"I 	c #525252",
"J 	c #535353",
"K 	c #545454",
"L 	c #555555",
"M 	c #565656",
"N 	c #575757",
"O 	c #585858",
"P 	c #595959",
"Q 	c #5A5A5A",
"R 	c #5B5B5B",
"S 	c #5C5C5C",
"T 	c #5D5D5D",
"U 	c #5E5E5E",
"V 	c #5F5F5F",
"W 	c #606060",
"X 	c #626262",
"Y 	c #717171",
"Z 	c #747474",
"` 	c #A7A7A7",
" .	c #A2A2A2",
"..	c #949494",
"+.	c #AEAEAE",
"@.	c #9F9F9F",
"#.	c #979797",
"$.	c #4C4C4C",
"%.	c #464646",
"&.	c #4B4B4B",
"*.	c #494949",
"=.	c #4D4D4D",
"-.	c #3F3F3F",
";.	c #424242",
">.	c #454545",
",.	c #484848",
"'.	c #404040",
").	c #343434",
"!.	c #414141",
"~.	c #373737",
"{.	c #474747",
". . + @ # $ @ + $ % & % * = - ; . # > - $ $ - , , * ' ) - ! ~ { ] - > ] ^ / ( ( ] ! _ ( : < [ _ { } | 1 } / 1 ] | 2 3 [ : { , + ",
"# ( ] } } | | | } ] ! ~ 1 [ ^ 3 ] , 1 < 1 _ 1 : [ 4 1 | / 5 1 ^ 2 6 5 [ ^ 2 7 < [ 3 } 4 8 3 9 0 | } 0 3 4 a a } 1 b c 5 8 ^ > % ",
"d 1 e f b g h b h i 9 0 c 9 0 j k < 6 i e 2 9 8 f h 3 a j f [ a b f b f a 8 h j 2 0 b < f b 8 7 f 4 a e 6 < c 8 _ ^ e | : i [ l ",
"$ ( g m n o p q r s t t r t u t v w x y q z A B x t u j z y k k x k C u C h k B D h C i i D h g x 7 c j 7 c 7 7 ^ ^ 0 3 : / f > ",
"# ( f o E F G G H I I J K L L M N N O P P Q R R S T U U V W W p X X m s v v o r r q n n w t t y A z z u B B Y x x D Z Z a [ : 6 ",
"` } g n F G G H I I J K L L M N N O P P Q R R S T U U V W W p X X m s v v o r r q n n w t t y A z z u B B Y x x D Z Z C / c 1 ' ",
" .} Y W G G H I I J K L L M N N O P P Q R R S T U U V W W p X X m s v v o r r q n n w t t y A z z u B B Y x x D Z Z C k < < } d ",
"$ 5 h m G H I I J K L L M N N O P P Q R R S T U U V W W p X X m s v v o r r q n n w t t y A z z u B B Y x x D Z Z C k j 9 i 6 ] ",
". ] g r H I I J K L L M N N O P P Q R R S T U U V W W p X X m s v v o r r q n n w t t y A z z u B B Y x x D Z Z C k j j / h c * ",
"@ { k s I I J K L L M N N O P P Q R R S T U U V W W p X X m s v v o r r q n n w t t y A z z u B B Y x x D Z Z C k j j g 3 0 0 - ",
" .| 7 r I J K L L M N N O P P Q R R S T U U V W W p X X m s v v o r r q n n w t t y A z z u B B Y x x D Z Z C k j j g h 0 7 b 6 ",
"$ | D o J K L L M N N O P P Q R R S T U U V W W p X X m s v v o r r q n n w t t y A z z u B B Y x x D Z Z C k j j g h h 2 h 0 5 ",
") ] g X K L L M N N O P P Q R R S T U U V W W p X X m s v v o r r q n n w t t y A z z u B B Y x x D Z Z C k j j g h h i b j b ) ",
"+ 5 f n L L M N N O P P Q R R S T U U V W W p X X m s v v o r r q n n w t t y A z z u B B Y x x D Z Z C k j j g h h i 7 a u Z 5 ",
"; } C r L M N N O P P Q R R S T U U V W W p X X m s v v o r r q n n w t t y A z z u B B Y x x D Z Z C k j j g h h i 7 7 | f C / ",
"' ..h s M N N O P P Q R R S T U U V W W p X X m s v v o r r q n n w t t y A z z u B B Y x x D Z Z C k j j g h h i 7 7 e 2 6 2 1 ",
"* ( 3 y N N O P P Q R R S T U U V W W p X X m s v v o r r q n n w t t y A z z u B B Y x x D Z Z C k j j g h h i 7 7 e b i k a ( ",
"* 2 i u N O P P Q R R S T U U V W W p X X m s v v o r r q n n w t t y A z z u B B Y x x D Z Z C k j j g h h i 7 7 e b b 8 x g - ",
"+ 8 z v O P P Q R R S T U U V W W p X X m s v v o r r q n n w t t y A z z u B B Y x x D Z Z C k j j g h h i 7 7 e b b f a i z | ",
"+...C v P P Q R R S T U U V W W p X X m s v v o r r q n n w t t y A z z u B B Y x x D Z Z C k j j g h h i 7 7 e b b f c i j u B ",
"@ ' c n P Q R R S T U U V W W p X X m s v v o r r q n n w t t y A z z u B B Y x x D Z Z C k j j g h h i 7 7 e b b f c 0 f C i [ ",
", { ^ t Q R R S T U U V W W p X X m s v v o r r q n n w t t y A z z u B B Y x x D Z Z C k j j g h h i 7 7 e b b f c 0 0 ^ C x 1 ",
" .[ c Y R R S T U U V W W p X X m s v v o r r q n n w t t y A z z u B B Y x x D Z Z C k j j g h h i 7 7 e b b f c 0 0 9 3 b z 9 ",
"@.: g w R S T U U V W W p X X m s v v o r r q n n w t t y A z z u B B Y x x D Z Z C k j j g h h i 7 7 e b b f c 0 0 9 a b e e | ",
"* 5 c n S T U U V W W p X X m s v v o r r q n n w t t y A z z u B B Y x x D Z Z C k j j g h h i 7 7 e b b f c 0 0 9 a a j D t [ ",
", 4 9 B T U U V W W p X X m s v v o r r q n n w t t y A z z u B B Y x x D Z Z C k j j g h h i 7 7 e b b f c 0 0 9 a a 2 j Z y A ",
"' | b t U U V W W p X X m s v v o r r q n n w t t y A z z u B B Y x x D Z Z C k j j g h h i 7 7 e b b f c 0 0 9 a a 2 8 b g 0 / ",
"+ { 8 A U V W W p X X m s v v o r r q n n w t t y A z z u B B Y x x D Z Z C k j j g h h i 7 7 e b b f c 0 0 9 a a 2 8 8 D Y Y ^ ",
") ] 2 x V W W p X X m s v v o r r q n n w t t y A z z u B B Y x x D Z Z C k j j g h h i 7 7 e b b f c 0 0 9 a a 2 8 8 3 Z q y Y ",
"~ | c y W W p X X m s v v o r r q n n w t t y A z z u B B Y x x D Z Z C k j j g h h i 7 7 e b b f c 0 0 9 a a 2 8 8 3 < h x r / ",
"@.5 < Y W p X X m s v v o r r q n n w t t y A z z u B B Y x x D Z Z C k j j g h h i 7 7 e b b f c 0 0 9 a a 2 8 8 3 < 6 r x o A ",
"@.: 9 D p X X m s v v o r r q n n w t t y A z z u B B Y x x D Z Z C k j j g h h i 7 7 e b b f c 0 0 9 a a 2 8 8 3 < 6 6 s R s o ",
"{ 5 f A X X m s v v o r r q n n w t t y A z z u B B Y x x D Z Z C k j j g h h i 7 7 e b b f c 0 0 9 a a 2 8 8 3 < 6 6 ^ Z U I y ",
"1 / 6 B X m s v v o r r q n n w t t y A z z u B B Y x x D Z Z C k j j g h h i 7 7 e b b f c 0 0 9 a a 2 8 8 3 < 6 6 ^ [ j z H H ",
"#.2 a k m s v v o r r q n n w t t y A z z u B B Y x x D Z Z C k j j g h h i 7 7 e b b f c 0 0 9 a a 2 8 8 3 < 6 6 ^ [ [ e C U G ",
"( < k z s v v o r r q n n w t t y A z z u B B Y x x D Z Z C k j j g h h i 7 7 e b b f c 0 0 9 a a 2 8 8 3 < 6 6 ^ [ [ / g f A w ",
"..} a A v v o r r q n n w t t y A z z u B B Y x x D Z Z C k j j g h h i 7 7 e b b f c 0 0 9 a a 2 8 8 3 < 6 6 ^ [ [ / 4 p x A n ",
"_ / 2 j v o r r q n n w t t y A z z u B B Y x x D Z Z C k j j g h h i 7 7 e b b f c 0 0 9 a a 2 8 8 3 < 6 6 ^ [ [ / 4 4 s U v A ",
"| ^ 0 x o r r q n n w t t y A z z u B B Y x x D Z Z C k j j g h h i 7 7 e b b f c 0 0 9 a a 2 8 8 3 < 6 6 ^ [ [ / 4 4 } u s L B ",
"* < < g r r q n n w t t y A z z u B B Y x x D Z Z C k j j g h h i 7 7 e b b f c 0 0 9 a a 2 8 8 3 < 6 6 ^ [ [ / 4 4 } | r n L M ",
"' } f i r q n n w t t y A z z u B B Y x x D Z Z C k j j g h h i 7 7 e b b f c 0 0 9 a a 2 8 8 3 < 6 6 ^ [ [ / 4 4 } | | s v p V ",
"1 | 2 x q n n w t t y A z z u B B Y x x D Z Z C k j j g h h i 7 7 e b b f c 0 0 9 a a 2 8 8 3 < 6 6 ^ [ [ / 4 4 } | | : w m N A ",
"{ 6 6 h n n w t t y A z z u B B Y x x D Z Z C k j j g h h i 7 7 e b b f c 0 0 9 a a 2 8 8 3 < 6 6 ^ [ [ / 4 4 } | | : 5 v X E G ",
"..[ 0 h n w t t y A z z u B B Y x x D Z Z C k j j g h h i 7 7 e b b f c 0 0 9 a a 2 8 8 3 < 6 6 ^ [ [ / 4 4 } | | : 5 1 p p P J ",
"4 } < k w t t y A z z u B B Y x x D Z Z C k j j g h h i 7 7 e b b f c 0 0 9 a a 2 8 8 3 < 6 6 ^ [ [ / 4 4 } | | : 5 1 1 m X V y ",
"1 8 / e t t y A z z u B B Y x x D Z Z C k j j g h h i 7 7 e b b f c 0 0 9 a a 2 8 8 3 < 6 6 ^ [ [ / 4 4 } | | : 5 1 1 ] m Q I P ",
"..a e e t y A z z u B B Y x x D Z Z C k j j g h h i 7 7 e b b f c 0 0 9 a a 2 8 8 3 < 6 6 ^ [ [ / 4 4 } | | : 5 1 1 ] ( s S $.I ",
"] / 7 x y A z z u B B Y x x D Z Z C k j j g h h i 7 7 e b b f c 0 0 9 a a 2 8 8 3 < 6 6 ^ [ [ / 4 4 } | | : 5 1 1 ] ( ( q m J N ",
"_ : [ h A z z u B B Y x x D Z Z C k j j g h h i 7 7 e b b f c 0 0 9 a a 2 8 8 3 < 6 6 ^ [ [ / 4 4 } | | : 5 1 1 ] ( ( { m m E %.",
"6 4 < c z z u B B Y x x D Z Z C k j j g h h i 7 7 e b b f c 0 0 9 a a 2 8 8 3 < 6 6 ^ [ [ / 4 4 } | | : 5 1 1 ] ( ( { ..U o S &.",
"b e 9 g z u B B Y x x D Z Z C k j j g h h i 7 7 e b b f c 0 0 9 a a 2 8 8 3 < 6 6 ^ [ [ / 4 4 } | | : 5 1 1 ] ( ( { ....U T T n ",
"] h 7 i u B B Y x x D Z Z C k j j g h h i 7 7 e b b f c 0 0 9 a a 2 8 8 3 < 6 6 ^ [ [ / 4 4 } | | : 5 1 1 ] ( ( { ...._ T Q *.=.",
"..^ k D B B Y x x D Z Z C k j j g h h i 7 7 e b b f c 0 0 9 a a 2 8 8 3 < 6 6 ^ [ [ / 4 4 } | | : 5 1 1 ] ( ( { ...._ = W p K -.",
"..5 8 C B Y x x D Z Z C k j j g h h i 7 7 e b b f c 0 0 9 a a 2 8 8 3 < 6 6 ^ [ [ / 4 4 } | | : 5 1 1 ] ( ( { ...._ = = T s P T ",
"_ 1 ^ c Y x x D Z Z C k j j g h h i 7 7 e b b f c 0 0 9 a a 2 8 8 3 < 6 6 ^ [ [ / 4 4 } | | : 5 1 1 ] ( ( { ...._ = = #.H U I ;.",
"9 / 8 7 x x D Z Z C k j j g h h i 7 7 e b b f c 0 0 9 a a 2 8 8 3 < 6 6 ^ [ [ / 4 4 } | | : 5 1 1 ] ( ( { ...._ = = #.! L J I &.",
"3 2 { 0 x D Z Z C k j j g h h i 7 7 e b b f c 0 0 9 a a 2 8 8 3 < 6 6 ^ [ [ / 4 4 } | | : 5 1 1 ] ( ( { ...._ = = #.! ~ S O >.U ",
"#.9 | 5 D Z Z C k j j g h h i 7 7 e b b f c 0 0 9 a a 2 8 8 3 < 6 6 ^ [ [ / 4 4 } | | : 5 1 1 ] ( ( { ...._ = = #.! ~ ~ N W ,.'.",
", 5 8 / Z Z C k j j g h h i 7 7 e b b f c 0 0 9 a a 2 8 8 3 < 6 6 ^ [ [ / 4 4 } | | : 5 1 1 ] ( ( { ...._ = = #.! ~ ~ * N U Q H ",
"_ ' ..2 Z C k j j g h h i 7 7 e b b f c 0 0 9 a a 2 8 8 3 < 6 6 ^ [ [ / 4 4 } | | : 5 1 1 ] ( ( { ...._ = = #.! ~ ~ * , M M G p ",
"| ~ + ..6 1 ( h B < 5 i b 1 6 9 b h f 9 b g e j u a } Y X w r z 9 B X u z A Y Y q P N U o x A T N R O J O O M E K X J %.=.H '.).",
"0 4 - * 4 < { / k x 9 } e h ^ | 2 i 3 a j 7 g b h C a | i v y y j c A m B h j C j Y U R n n D 7 o T v U H V m J =.W q L E J L !.",
"8 f _ , _ ] } ^ : < y Z 5 g n 4 } x 0 1 Z A j o u h t D | D K o A Y k V =.v C A o Y z I p w I Y c R S n $.&.t S $.Q X v m P P y ",
"# 6 ( ) = ) + c a # 5 o a + u z , e k #...u 3 b O 8 b U Z 4 p =.Z B D C &.~.v g r q 0 X *.u L >.8 A *.w V !.U y %.M R =.o p -.{."};
