/* XPM */
static char * Granite_menuback_xpm[] = {
"30 21 29 1",
" 	c None",
".	c #CACACA",
"+	c #C8C8C8",
"@	c #C5C5C5",
"#	c #C6C6C6",
"$	c #C9C9C9",
"%	c #CECECE",
"&	c #CBCBCB",
"*	c #C3C3C3",
"=	c #C2C2C2",
"-	c #C7C7C7",
";	c #C0C0C0",
">	c #BDBDBD",
",	c #CCCCCC",
"'	c #CDCDCD",
")	c #D0D0D0",
"!	c #BCBCBC",
"~	c #BFBFBF",
"{	c #C4C4C4",
"]	c #C1C1C1",
"^	c #BBBBBB",
"/	c #CFCFCF",
"(	c #BEBEBE",
"_	c #BABABA",
":	c #D4D4D4",
"<	c #B8B8B8",
"[	c #D8D8D8",
"}	c #D1D1D1",
"|	c #D5D5D5",
".+@##@+$#$%&*=-+$.#-.+#$-@$+;>",
"$,$++@#,+@')$*#-$,$#&&#++@#+=!",
"+$&&.-*$&##&'$#@-&&+$&&.+#+#=~",
"---&,+@#+.+{#,.**$$-$-+,${-$]]",
"$+-.',&.#$'+=+%$=#$-.&#.'+{#*!",
".-@+.$&,-#''{*.,+{#--&$+,,&#*=",
"$${#$--&$@+'+*#-$+*{-#-$--,,]~",
"$&$-$$-.&++',$-#+'.@$+{$.@-,-!",
"+$-+---++++$&&.#@$,++&#-.--.$-",
"-.-+&--.--+##.'$@@+$$$+--##$@{",
"+++$&.+.++&$@-&,$$$+,&+.$+-$#^",
"+#*@$+--@*-.#*#$+$$#+&-+&-$&+=",
"$.@*+&+$-{@$$@@@@-+#@+-#+-#&-;",
"&,.#-&%%,$$&,&&+@+,$+.&&.++$$=",
"$.+-#*-',++$$..$+-..--.',-$&+,",
"-,.++{=+&-++-..#-$-++{*+,+#&+;",
"#.,',$#+.-+&$./&{.,.&&#@$&$$'#",
"#*+&'.#-$-{#.$&)$*&,.%'##.&&&'",
"&*;#.&----{(;+$$'#;-.$'.@{-$+*",
",%==.,.,.$,#_;,+-/->$,-,.*@+-{",
"{)%*+'@')+):{<-/@,[{~}&&|,+'-#"};
