/* XPM */
static char * stone_tile_xpm[] = {
"64 64 94 2",
"  	c None",
". 	c #3C3E44",
"+ 	c #44424C",
"@ 	c #3C3E4C",
"# 	c #44464C",
"$ 	c #3C424C",
"% 	c #848694",
"& 	c #84869C",
"* 	c #848A9C",
"= 	c #8C8A9C",
"- 	c #848A94",
"; 	c #7C8294",
"> 	c #848294",
", 	c #7C7E8C",
"' 	c #747A8C",
") 	c #7C7A8C",
"! 	c #747A84",
"~ 	c #747684",
"{ 	c #747284",
"] 	c #6C7284",
"^ 	c #6C727C",
"/ 	c #6C6E7C",
"( 	c #6C6A7C",
"_ 	c #646A7C",
": 	c #646A74",
"< 	c #646674",
"[ 	c #5C626C",
"} 	c #64626C",
"| 	c #5C5E6C",
"1 	c #545A64",
"2 	c #5C5A64",
"3 	c #444A4C",
"4 	c #7C8694",
"5 	c #7C828C",
"6 	c #545664",
"7 	c #54525C",
"8 	c #444A54",
"9 	c #444654",
"0 	c #6C6A74",
"a 	c #7C7E94",
"b 	c #5C5A6C",
"c 	c #4C525C",
"d 	c #4C4E54",
"e 	c #4C4A54",
"f 	c #646274",
"g 	c #54565C",
"h 	c #4C4E5C",
"i 	c #74768C",
"j 	c #74727C",
"k 	c #9496A4",
"l 	c #545264",
"m 	c #8C92A4",
"n 	c #747E8C",
"o 	c #9CA2B4",
"p 	c #9496AC",
"q 	c #A4AABC",
"r 	c #9C9EB4",
"s 	c #3C4244",
"t 	c #3C3A44",
"u 	c #343A44",
"v 	c #343A3C",
"w 	c #34363C",
"x 	c #3C3A3C",
"y 	c #343644",
"z 	c #34323C",
"A 	c #2C3234",
"B 	c #2C2E34",
"C 	c #2C323C",
"D 	c #343234",
"E 	c #342E34",
"F 	c #2C2A34",
"G 	c #242A2C",
"H 	c #24262C",
"I 	c #2C2A2C",
"J 	c #2C262C",
"K 	c #1C1E24",
"L 	c #14161C",
"M 	c #141614",
"N 	c #242224",
"O 	c #141A1C",
"P 	c #141214",
"Q 	c #24222C",
"R 	c #1C2224",
"S 	c #1C1A1C",
"T 	c #241E24",
"U 	c #1C1A24",
"V 	c #1C161C",
"W 	c #1C1E1C",
"X 	c #14121C",
"Y 	c #0C1214",
"Z 	c #0C0E14",
"` 	c #140E14",
" .	c #0C0E0C",
"..	c #0C0A0C",
". . . . . . . . . . . . . . . . . . . . . . . . . . . . . . . . . . . . . . . . . . . . . . . . . . . . . . . . . . . . + @ + # ",
". . . . . . . . . . . . . . . . . . . . . . . . . . . . . . . . . . . . . . . . . . . . . . . . . . . . . . . . . . . . + $ + # ",
". . . . . . . . . . . . . . . . . . . . . . . . . . . . . . . . . . . . . . . . . . . . . . . . . . . . . . . . . . . $ + # # # ",
". . . % & % % * * * * * = * * * * - * * * & % % & % ; > ; ; ; , , , ' ) ! ~ ~ ~ { ] ^ ] / / ( _ : : < < [ } | | | | 1 2 1 $ # 3 ",
". . . & * * = * & * = & * & = & = * = % % % 4 & ; , ; 5 , , ) , ' ) ~ ~ ~ ~ ] { ^ / / / : : : < < [ [ [ [ [ | 2 1 6 6 7 6 # 8 9 ",
". . . 0 : { , * = * % * * = * * * * 4 % 4 ; ; > 5 a , a , ) ' ' ~ ~ ~ { ] / ^ / / 0 < : : < [ } [ [ | | b 1 6 7 6 7 c c d 8 8 e ",
". . . | | : a - & = * = & * & = * % & % > ; > a ; , , ) ! ! ~ ~ ~ ] ^ ^ / / ( : : < _ < f [ f | | | 2 2 1 6 7 c g c 7 c h e 8 d ",
". . . , 5 a = * = * & * * = * - & > ; > 4 > ; , , , ) ' i ' ~ ~ ] j ] / / / _ 0 _ < < < [ } [ [ b | 2 1 6 6 6 6 h 7 d h d 8 8 d ",
". . . , a , * * & * = * % * % & % % ; ; ; a , ; ) ' ' ! ~ ~ ~ ~ ] ] / / / / 0 : < < } } [ | | | 2 1 1 6 6 g c c 7 c h d d e d h ",
". . . , * & k = * = * * = * & % % ; > > ; , , , ' ) ~ ' ~ ~ { / ] j ^ / / : < < < < f [ f | | 2 1 1 6 g 6 7 l c c d d d 8 d d h ",
". . . , * k m * & * & = % % % % ; ; ; , , a , ' ! ' ~ ~ { ] ] j / / ( / 0 : : < } [ } [ | | 2 1 1 2 l 7 c c c h h e 8 e 8 h d c ",
". . . , a * * = * = * - & % & ; > ; , a , , ' ) ~ ~ ~ ~ ] j ] / / / / 0 _ 0 < f < f [ | | b 1 b 6 6 6 c l 7 h d h e 8 8 8 d c c ",
". . . , a * = * % * - & % > ; ; ; , a , n ) ! ~ ' ~ ~ { ] j ] / / _ : < < < < < [ [ [ | | 1 2 6 6 g l c 7 c h e 8 8 8 e 8 d 7 g ",
". . . , a - & * * = & & % 4 > 5 a , a , ) ' ) ' ~ ~ ~ j ] / / / _ / 0 < < [ f [ } | | | b 2 1 6 6 c 7 c h h e d e 8 # # 9 g c g ",
". . . o m p & = % - % % > ; ; a , , , ' ) ! ! ~ ~ { ] ] j / / / : _ < < < < [ } | | 2 1 1 6 6 g 6 c c h h d 8 8 8 9 e + $ 7 6 6 ",
". . . q r m * * * % & % ; > 5 a , a n ) ' ! i ~ { ] j ] / / / ( : < < < < } [ | | | 2 b 6 g 6 7 l c e h e d 8 e 8 # + # # c g 6 ",
". . . * * * * % % & ; ; ; , a , ) ) ) ' ~ ~ ~ ~ ~ ^ { / / 0 : / : : < } [ f [ | 2 1 1 6 6 6 6 c c h c h e e e 9 e + # + 9 6 6 1 ",
". . . = * & - & % > ; > , a , , ' ) ' ! ~ ! ~ ~ ] ] / 0 / _ / : < < [ f [ | 2 | | b 6 6 6 7 7 c 7 c d d 8 8 8 9 # + + $ $ 6 6 1 ",
". . . % * & % 4 > ; > ; , ; , ' ) ! ~ ' ~ { ] / ^ / / / : / : : < } } [ | | | 1 1 1 6 g 6 c h h d d h 8 e # # # # $ $ s $ 2 1 2 ",
". . . & % * % & % ; ; , a ) , ' ) ' ' ~ ~ { ] ^ { / _ / 0 < < < [ f [ | | 1 2 2 6 6 g 6 7 c c d h d e 8 9 # 9 + + + + + @ 2 1 | ",
". . . % % * % 4 > , a , , ' ' ) ! ! ~ ~ ] ^ ^ / / / / : : < < < [ } | | b | 1 1 6 g l c c c d e 8 8 e # # 9 + + $ . . @ s b 2 | ",
". . . - & ; ; ; a ; , , ' , ! ) ~ ~ ~ { ] { / / ( _ ( < 0 < < } [ | | | 1 2 1 6 7 l c 7 c d h d e e # 9 # + + @ + . + . . 1 | | ",
". . . ; > ; 5 a 5 a , n ) ' ! ' ~ { ] ^ / ^ / / / : : 0 f [ f [ | | | | 1 1 6 6 6 c 7 c h d d 8 e 8 e + 9 + + $ + . . t t | [ [ ",
". . . a 5 ; > ; , , , , , ) ~ ~ ~ ~ { { / ^ / : ( 0 < < [ f [ } [ | b 1 2 6 6 g 6 c 7 c d h d 8 e # 9 # + + @ + . . t . u | } [ ",
". . . 5 ; , , 5 , ' ' ' ! ~ ' ~ ] ] ^ ^ / / ( : : < < < < [ } | | | 1 2 6 6 7 l h 7 h h e d 8 e 9 8 + $ $ + + . . t t v t | [ f ",
". . . > ; ; , ; ) ! ) ' ~ ~ ] { { ^ { / ( / _ 0 : [ < [ f [ | | b 1 2 1 6 g 6 c c h h d 8 8 9 8 # # $ + + @ . . t u t w x [ < < ",
". . . ; ; , , n , ' ~ ! i ~ ~ ^ ] ^ / / _ 0 : < < < < [ [ | | | 2 1 2 6 l 7 c 7 h d d 8 e 8 e # 9 $ # $ s + t t t x y w z f < < ",
". . . , , , , ) ! ) i ! ~ ~ ] j ] / / / : : < : < [ } | | | | 2 1 6 6 6 7 c h h h h 8 d e 8 # + + $ $ + . t x t w t w w w < < : ",
". . . , a , ' ) ! ' ~ ~ ~ ^ / ] / ( _ 0 _ : : < [ f [ [ | | 2 6 1 6 6 c c h c e d 8 e 8 8 # + $ $ + . . t . t u x w z v w < < : ",
". . . n ) n ) ' ~ ~ ~ ~ ] { ] / ( / / 0 : < < f } | [ | | b 1 6 1 l c 7 h h h d e e 8 8 # + + + @ + t . t t w x y w z w z : : : ",
". . . ) n ) ' ) ~ ~ ~ ] j / / / / _ : < < } < [ [ | } | 2 1 2 6 7 7 c 7 c h h d 8 8 e + # + $ # + . . t t t w y x w z A B : 0 / ",
". . . ) ' ) ! ~ ! ] { ] / ^ _ / _ 0 < < < < [ } | | | b 1 6 6 7 6 c l c h d d 8 e 9 # + + + # @ + @ . t x y w w z C z D A / _ / ",
". . . ~ ~ ! ~ ~ ] ~ ^ / / / / 0 : < < < < } [ | | | 2 1 6 6 g c l c h h e h 8 e 8 e + + 9 + $ . t t t v t w w z z D B z B ( _ ^ ",
". . . i ! i ] ~ j ] / / / / : 0 : < } < < | [ | | b 1 6 g 6 6 c 7 h h e 8 e 8 9 # + + # $ + @ . t t x t w w z z C E B B B / ^ ^ ",
". . . ! ~ ~ ~ ] / ] / ] / ( : _ < < < [ } | | | 2 1 2 6 6 6 g l c h d h 8 e 3 9 # + # + + . . t . t w y x z z B D B B F F / / / ",
". . . ~ ~ ] { ] j ] / / / 0 < 0 < } f [ | | | b 1 6 6 6 g l c h h h d e 8 8 9 # + + + $ @ . t t t t w w z z z z B B B B B / ^ { ",
". . . ~ ~ ~ ^ / ] / / 0 : < : < f [ [ } | | 2 1 1 6 6 7 c 7 h h d 8 8 8 # # # + + $ + . + t t t v t w z z A A B B B G H H ^ { ] ",
". . . ] ] ] { ^ / ( ( _ : < < < } [ | b | 2 1 2 6 6 7 6 c h h d d e e 8 e 9 + + @ + @ . t t v t w w z w z D E B B I H J G { ^ { ",
". . . ^ j ] / / / : 0 < 0 < < [ [ f | | 1 2 1 6 6 7 c c h h h e 8 8 3 9 # + + + $ + t . t t t w w w z z A B B I I G I G I ] ~ ~ ",
". . . { ] / / / 0 ( < : < f [ } | | 1 b 2 1 6 g l c 7 h h d h 8 e # 8 9 + + + @ + . . t t v t w w z z B B B B B F H J H H { ! ~ ",
". . . 7 g 6 c c 7 d h 7 1 f | [ | b 2 1 6 6 6 7 c h h h d e 8 8 8 e # # + $ # $ . t . t x y w z z C E B E B B H G I H H H ~ ~ ' ",
". . . < [ < 2 c # 9 d c f [ [ | [ 1 2 1 6 6 l c 7 c h 7 h e e 8 # 9 # + $ + $ . . t t t w w w z C D z C F B I H K L L M L ~ ~ ' ",
". . . = % % % ' ' ~ ~ ~ _ } | | | b 1 1 6 g 7 c h h h d d e 8 # 9 # $ + + . . . t t t w w z z D D B B F I G H N O P P L P ' ) ! ",
". . . / / _ ] ) ; > ] ( [ } | | b 1 2 6 6 l h c 7 h d d 8 8 9 # # + + + . + . t t t w w w w z C B B I B F H H F H Q R Q E ! ' ) ",
". . . : _ 0 < < < < [ [ | | | 2 1 6 6 6 g c 7 c h e h 8 9 3 + # + + $ + @ t t t v w w t z z D A E B F G I G H I H H H H G ' ) , ",
". . . 0 : < < < < | } [ b | 2 1 6 6 g l c 7 h h h 8 e 8 e # 9 + + $ + . . x t t t w w z z z B B B I B H I H H Q N N Q N S n , n ",
". . . < < : < < [ | | | | 1 1 1 2 7 l c 7 h h h d e 8 # # 9 # $ + @ . t . t u w x z y z A B B B B I G I H Q H R T S K S U , , 5 ",
". . . < < < < [ } [ | | 1 2 6 6 6 c 7 c h h d e 8 e 8 e + + # 9 s + . . . t x y w w z D B D B B B F H H H H N N K O U S O , , a ",
". . . : < } [ } | | | 2 1 6 2 l c g c c h e e e 8 9 # # + 9 $ + @ t . t t u w z z z B B D B B I H H H H N R N K N S K S S a 5 ; ",
". . . < [ } [ | | | 2 1 2 6 6 c 7 7 c d h h 8 e 9 # 9 # $ + . + . . t t w x w w z z C D B B F I G I H H R N K K R K R V O , ; ; ",
". . . # 8 9 # # $ $ $ @ . . . t $ 8 d h d 8 8 # 9 # # $ # $ + . t t v t w y z z D B z B B B I G H H N Q R K K S U S S L L > ; % ",
". . . 2 6 6 6 g c 7 7 c h h e e e c h d 8 e # 9 # # $ + + . . t . t t w w z z B z B B B I I H H H Q N R T K T K S V L L V ; ; > ",
". . . ' ) ! ! i { ] ^ / / 0 : : | g e 8 8 # 9 e # $ 9 $ @ . t t t v w t w z D C B B B I G H H H N R K K K W S S O L L M X ; % > ",
". . . [ | | 2 1 1 6 6 6 7 c h h h 8 e e # 9 # # + + . + . t . t w t w z z C E A E B F G I H H Q R T N K K S U O L V M X P % % % ",
". . . | | | 1 1 2 6 7 c l c h d e 8 d 9 8 # # + + @ + t t t t v x z w z A E B B B B I H H H H N R T K W S O S L M M M X M 4 > & ",
". . . 6 1 1 2 6 6 g l c 7 c h d e 8 e e # 9 + $ + @ . . . t w t w w z C E B B A F I G J H H R N N K K S U S L L L P P Y X & % & ",
". . . 1 2 6 6 6 l 7 c 7 h d d 8 8 8 # + + + + + . . t . t t w w z z z E B E B F I G H H Q N T K R K S S L L L M P P Z `  .& % * ",
". . . 2 1 6 6 6 g 7 c h h e 8 8 e 8 # 9 + $ + @ @ . . t t w t w z z z z B B B F I H H H N N R T K U S O L L M M X P Z  . .& * % ",
". . . 1 2 6 6 d $ t w . 9 8 e 8 8 # 9 # + + $ + . . u t v y w w z D C B B B I G H J Q Q Q K T K S S S V V L `  .Z Z P Z P & - * ",
"+ @ + b 1 2 1 h . C z t e c d d e e 8 # 9 # + . + @ . t t t x t w z B D z B B F F I G H H Q R T R K K O S L Y .. . .P P X - * * ",
". + $ | | | 2 1 7 c d e c 7 c c d 8 h 8 8 9 # 9 + + $ . @ t u u t w w w z z D B B B I I G H H H N Q K K K S L L L M L X M * = * ",
". + + # # 9 8 e 8 d e h c c 7 7 6 6 6 2 1 2 | [ | [ } < < < : 0 ( / / / ] j ] ~ ~ ~ ~ ' ! ) , , , , 5 > ; % % % & & & - = * * * ",
"+ + + # 8 8 8 e h e h c 7 c 6 6 6 1 1 b 2 | | [ } f [ : < : ( : / / ^ ] j ] ~ ~ i ' ' ) ) n , a , ; ; > 4 > % % % - * * - * * = ",
"+ # # # 8 e d 8 d c c 7 c l g 6 1 1 | 1 | [ | [ < < < < 0 : / / / ^ ^ j ] ~ ~ ~ ! ! ) ' , , , ; 5 > ; % > 4 % & & * * * = * * * "};
