/* XPM */
static char * stone_menu_xpm[] = {
"200 23 111 2",
"  	c None",
". 	c #44444C",
"+ 	c #44464C",
"@ 	c #505760",
"# 	c #575760",
"$ 	c #444450",
"% 	c #505260",
"& 	c #50525D",
"* 	c #50505D",
"= 	c #4C505D",
"- 	c #4C4F5D",
"; 	c #4C4F57",
"> 	c #484A57",
", 	c #3E3C48",
"' 	c #373C44",
") 	c #484A50",
"! 	c #484957",
"~ 	c #484950",
"{ 	c #484650",
"] 	c #444650",
"^ 	c #37373E",
"/ 	c #33373E",
"( 	c #3E4148",
"_ 	c #3E3E48",
": 	c #3E3C44",
"< 	c #373A44",
"[ 	c #373744",
"} 	c #33363E",
"| 	c #333637",
"1 	c #33323E",
"2 	c #2F3237",
"3 	c #24272F",
"4 	c #28272F",
"5 	c #242428",
"6 	c #24242F",
"7 	c #2F2F37",
"8 	c #2F2E33",
"9 	c #282E33",
"0 	c #282B2F",
"a 	c #282B33",
"b 	c #242328",
"c 	c #1F2324",
"d 	c #242028",
"e 	c #1F2024",
"f 	c #1F1D24",
"g 	c #1F1D1F",
"h 	c #191D1F",
"i 	c #151719",
"j 	c #191B1F",
"k 	c #191919",
"l 	c #19191F",
"m 	c #151919",
"n 	c #0F1115",
"o 	c #151315",
"p 	c #151319",
"q 	c #0F1315",
"r 	c #151115",
"s 	c #0F0F0F",
"t 	c #0A0B0F",
"u 	c #0F0B0F",
"v 	c #0A0B0A",
"w 	c #0A090A",
"x 	c #05090A",
"y 	c #05060A",
"z 	c #666576",
"A 	c #76778A",
"B 	c #666571",
"C 	c #606771",
"D 	c #767A86",
"E 	c #606776",
"F 	c #767786",
"G 	c #666776",
"H 	c #717786",
"I 	c #767586",
"J 	c #606571",
"K 	c #4C5057",
"L 	c #5D5A66",
"M 	c #575A66",
"N 	c #606171",
"O 	c #44414C",
"P 	c #373C48",
"Q 	c #333237",
"R 	c #3E3E44",
"S 	c #242324",
"T 	c #0F0F15",
"U 	c #0A0F0F",
"V 	c #0A060A",
"W 	c #050605",
"X 	c #606576",
"Y 	c #666771",
"Z 	c #4C4A57",
"` 	c #444148",
" .	c #333744",
"..	c #2F2F33",
"+.	c #191D24",
"@.	c #50575D",
"#.	c #3E414C",
"$.	c #373A3E",
"%.	c #1F2328",
"&.	c #48464C",
"*.	c #1F2028",
"=.	c #0A090F",
"-.	c #050405",
";.	c #000100",
">.	c #242728",
",.	c #000000",
"'.	c #000105",
").	c #868A99",
"!.	c #717586",
"~.	c #868899",
"{.	c #5D5E66",
". + . + . @ # @ @ # @ $ . + . . . @ @ . + . . @ @ @ @ @ @ @ @ @ # @ @ @ @ . . . . % & & % & * = & = * - = = = ; - ; ; ; ; > , ' , > ) ! ~ ~ ~ ~ { ] { ^ / / . $ . . . ( . ( ( ( _ _ _ _ _ ' : < ' < < < < < / ^ [ / / } } } | 1 2 3 3 4 5 6 5 5 7 8 8 8 9 8 0 a 0 a 0 0 0 3 4 4 3 4 5 5 5 5 5 b b c d c d e e e f e g f h i i i i j j k l k m i i n n n o o p o q r n n n s n s s t s t u t v v t w w w w x w y ",
"+ . @ z A B @ @ # @ C D z @ @ E F G B A F A F z # @ # @ # @ # @ % @ # @ z F F H I J % & & = % & = * = * ; * ; - K - > - > L M L M # > ~ ~ ~ ~ ] ~ ] & N N N & . . . ( O ( ( O ( _ _ : _ : , ' P : < < < / ^ [ / ^ / ^ } | } 1 Q R { ' 8 4 5 7 < < 8 9 8 8 9 9 a 8 0 a 3 0 4 4 6 4 5 4 5 4 5 b b b b c d e e e e f f f h b 0 S c d c k j l m k i g e e e j o p n o q n r n T s T U s t u U v t w w v w x w V W w ",
". + @ B X @ % # @ @ % E B @ % G E % @ Y H A C @ @ % @ % @ % @ # @ # % @ % J F I J % & % & = % = % = = * K = = ; ; - ; ; ; > Z ' ! > > ~ ~ ~ ] ~ ~ ~ ] + . $ . + . O . ( O ` ( ( _ _ _ _ P : ' : < < < < [ / / ^  .^ / } } | } 2 1 2 Q 4 5 5 6 ..7 9 8 8 8 9 9 8 4 0 4 4 4 4 3 4 4 5 5 4 b b 5 b c d e d e d e f e f f f j d e +.j j j k j m l i i j j j o i q o n r n n s n s U s T U U u t v t v w t w x y x y ",
". . . # @ # @ @ & @ @ # @ . . & @ @ # @ . . . % @ # @ # @ # @ @ % @ # @.@ @ @ % @.& & % = % & & = * * = K ; _ _ ( ; ; > ; ; > : ) Z ) ! ~ ~ ~ ~ + ~ { / 0 } + . . . ` . ` #.( _ _ _ _ _ _ ' , , ' < < $.[ $.[ / ^ } / } } } 1 | 2 4 j j 4 3 5 ..8 7 8 8 9 8 8 0 a 0 a 4 0 4 4 4 6 4 5 5 5 5 b c b b %.S e e e f f e g j g j j p j k j l m k i i k i i i p i p o n r n n n s s T s U s t v t v w t v w x V w V W ",
". + . @ @ % @.# % # @ % # . + # % # @ % . } . @ # % @ % @ % # @ # @ & @ # @ @.% % % @ & % & & = * = = * = _ 7 e _ ; > ; ; > ; P > ) Z ~ ) ~ ~ ] ~ $ &.+ [ + &.O . #.. ( ( ( ` _ _ R _ R , R P ' : < < < $.< / ^  ./ ^ } | | 2 } Q 2 3 4 5 5 6 7 7 8 7 9 8 9 9 8 0 8 4 a 3 0 3 4 5 4 5 4 b b 5 b b e S *.e d e e f f +.e h g e g e h j k l m k m k p i i i o q p o n n n n n s T t s u t u t v w v w w w w x W W ",
". . + & # @ # @ @ @ # @ @ + . @ @ @ @ # J @ B # @ @ @ # @ # @ @ % @ @ # @ % & @ & % & & % & = & & = * = * _ 7 7 ; ; - > ; - > : Z ~ > ~ ~ ] ~ { ~ ~ [ $.4 . . . . . . #.` #.( ( _ _ _ , P ' : ' < < < < / [ ^  .^ ^ / } } } } 2 | Q 3 5 3 5 5 ..9 7 8 7 8 9 8 a 0 a 0 0 0 3 4 3 4 6 4 5 5 b b b b b b e d e e e +.f g f f +.b e d j j m k l i k i i i o q o o q r n r n n T s s s T u U u t u v =.v w W -.;.-.-.",
". + . @ @ @.@ # @ & @ % # . . @ @ # % @ G E z @ % # % @ % @ # % # @ # @ & @ # & @ & % & = % % = & = & = = K _ _ K - ; ; ; ; Z ' > ) ~ > ! ~ ! { ] { / a 3 + $ . . #.. ( . _ _ ( _ _ _ R : P : < , < < < < $./ [ / / } } } | 1 Q } 2 4 6 >.6 5 7 ..8 9 8 a 9 4 0 8 4 0 3 a 4 4 4 6 4 5 5 6 b 5 b S %.S *.S e f e e h f +.g j g j o q p j l m k i k p i i o i q o n q r n s n s U s t s t u U v v w w y -.,.,.'.,.",
". . . @ % # @ % # @ # @ @ + . @.# % @ @.# @ @ @ @ @ @ # @ # % @ @ @ @ @ % @ % % % & % & % & = & = * = = * = _ _ ; - > ; > > > : ! ) ! ~ ~ ~ ~ ~ ~ ] &. .^ . + #.. ` . . ( ` _ ( ( _ _ _ P : , ' < ' $.< < ^ [ / ^ / ^ } } } Q } 2 | 3 3 4 5 j b b 8 8 9 9 0 8 a 0 4 a a 0 4 4 5 4 5 4 b 6 5 b b b b c d *.e e e e f g j f j j j i s o j k l m k i i o i p q p n q r n n n s s T t U s t t v =.v t w y W '.-.-.'.",
"+ . } . . @ # @ @ & @ . . Q $ @ @.@ # % @ # % # % # % @ @ @ @ # % # @ # @.# % @.% & @ & % & & * = & = * ; = ( ( ; ; ; > Z > Z ' Z ) ) ! ~ ~ + ~ ] &.] ^ / $ . . . #.. ( ` #.O _ ` _ _ R _ ' , ' : < < < $.9 9 a / ^ } / } } | 1 4 4 g 3 5 5 j n j 5 8 8 8 9 0 a 8 4 0 4 4 4 3 3 4 5 5 4 b 5 b 5 %.b d c d e e f f e f f h f j g j i l j m k m l i k o i o o o i o n n r n s s s s U t u t u v v =.w v =.s U t U ",
". . | b | . % # % # . Q %.| . @ # % @ @ # @ @ @.# @ @ @.. Q d S 2 | Q c *.c e c *.Q O & @ = & = * = * K = - _ _ - ; - ; > ; Z 9 : ' > ~ ~ { { { { { ] ^ [ + &.+ . . + ( O ( ` #._ _ _ P : P : ' < < ' ^ < [ 9 ^ ^ [ 0 f o o q q o q j 4 6 5 b k n n n n m d 0 a 0 a 4 4 3 4 4 4 b 4 5 b 5 b 5 b b h l j e d e e f f h f f j j j j o j k l m k i i i i i p q o n q o n n n t y y t T s t v w -.'.-.x u U T s s s ",
". + O 2 b %.b e b e b %.| . . @ % # @.# & @ % @ % @ # @ @ . + Q b c n p n n n n n e #.& % & % = & = = * * ; _ _ K - ; ; ; ) > 8 9 < ) ~ ! { ! ] ] ~ + < / ] + . . . . ( ` ( ( ( ` _ _ R _ : P : < ' < < / + . . ^ / / 0 0 +.o y p j 4 b 6 4 5 6 5 b j n V k k k l e 4 a 4 4 3 5 4 b 5 5 5 b 5 S %.l p k e e e f e f f g h g j j j p j m l k i k i i i i i o q o n r n r n n v t s U u t u t x y w w w w x y V y ",
"+ . + . . . + . . + . . . . . @ @.@ # @ @ . } | . # @ % Y A ).).J G X D F F F !.F J J % % & = & = & * = = = ( _ - ; ; > ; > Z < : > Z ~ ~ ~ ~ ~ ~ ] { / ^ . . . . ` . O #.` #.( _ _ _ _ , ' , ' < : < < < [ ^ / / / _ > @ # ! ~ R 2 5 5 4 5 4 7 $.Z Z _ / 9 9 *.%.0 a 4 4 4 4 4 5 4 5 4 5 5 b b b S j b e d e f e f f h g j j g e j e j k m l i k i i i i i p o q r n n n o i i n U s t t s n q s u x w w w y w ",
". $ . @ G ).).).).).).G @ . . # % @ % @ # @ . + @ @ @.# % @ @ X D ).).).~.~.).).~.H J & * * & & & = = * K - _ ( ; - ; - ; > M Z > Z ~ ! ~ ~ ~ + ~ + ] ^ / . . $ . . ( ` ( ( ` _ _ _ _ : P R ' , < < < < < < < ^ / } } / ^ _ ! % % : 2 2 7 7 ..< . ^ / _ ~ _ _ _ : | 4 0 4 3 4 6 4 5 5 4 b 5 b 5 b b j e e e f f f f h f j f j j d e e m l m i i i i o o i i o q r n r n n s n s s s t u t t u v t w w w x w W w ",
". + @ z H G @ @ @ @ E F X z @ J # @ # @ @ B F F B # @ @ @ % # @ @ # @ @ @ @ @ @ & & % = % & = % = & * = * ; _ _ = > - ; > ; {.L ) ~ > ) ~ ~ ] &.] { &. .^ $ + . . . O ( O O _ ( _ _ _ R P : , < ' ' < < / $.< } ^ / } } 1 } } | R ] { { * < < ^ < 9 8 9 9 a 0 9 a 0 a 4 a 4 4 4 5 4 5 5 b 5 5 b b e l b d e e e e f f f f j f j j l j k j l k i k i i i o o o q o n r s n n s T U T u t u =.v =.w =.v w W w y y ",
"+ . @.B G % @ # % # % B G C z E @ % @ # % @ @ @ @ @ # % # @ @ @.@ % @ # % @ & @ % % % @.% = & = & = = * = ; _ _ ; ; ; - ; Z > > P ~ ) ~ ~ ~ ] ~ ~ ] + [ ^ + &.. . . #.. ( ( ` _ _ ( _ _ , ' : ' , < < < <  .^ / ^ } ^ } | } Q Q 2 _ ~ + . $.7 7 ..8 8 8 8 8 0 8 0 a 0 0 4 4 3 4 3 4 5 4 b 5 b b e b l e e d e e f f h f +.g j g j j j l k m k i i i i o i q o n o q n n s s s s u U u U v t v =.w =.w x w x V W ",
"$ . . @ @ @ # % @ @ # @ @ . @ # @ # @ @ @ % # @ # % @ @ @ # @ % @ # @ @ @ % @ & % & & & @ = & = * = * = = = ( _ = - ; > ; > ; L ) L ! ) ! ~ ~ ~ ~ { { ^ / $ + . #.. O O #.` #.` _ _ _ R P : P : ' < $.< [ $.[  .^ / / } } } } } Q 2 2 7 8 7 %...8 7 8 9 8 9 9 0 a 4 a 4 0 3 4 5 4 4 5 5 5 5 b c b e j c d e f e e f f f j f j j l j j m k l m k p k i o p o p r q r n r n s T s U s U s t u v v =.v w w w x w y ",
"+ . $ @ @ % @ @ # @ @ @ # . @ @.% @ # % # @ @ % @ # @ # % @ @ # @ # @ # & @ @ % @.% & = % & & = = * = * K * _ _ ; ; ; Z > Z > M L M > ~ ~ ~ ~ ] ] + ] ^  .&.. $ . . ( . ( O _ #._ _ _ _ : _ ' < < ' < ' $. .^ / / [ } } | } Q 2 } Q Q 7 2 7 5 7 ..8 8 8 a 8 0 8 0 8 4 0 4 0 3 4 3 4 5 4 b 5 b b b b j d c e e e f h f j g j g l j j k j l m k i i i o p q o q q o n q n n s s s t T t t u t t w t x =.y V y V y ",
". + . @.# @ # % @ % # % @ . @ # @ # @ @ @ % # @ # % @ % @ @ # % @ % @.% @ & % @.% & % @ & = % & * & K = * = _ _ ; = > - ; > ; Z ) > ) ! ~ ~ ~ { ~ ~ ] $./ ] . + ( . . ( O ( #.` ( _ _ : _ P : P : < < < [ ^ [ / ^ ^ 0 f i n p n o n n q r j j 8 7 8 8 8 a 8 4 8 a 0 a 4 4 4 4 4 >.6 4 6 5 b 5 b c d j c d e d e f g +.f g +.g j j k j k l m l i m i i i p q o r q o n n n n s T U s t u t v t =.w w w x w W w y ",
"+ . . @ @ % @.# @ @ @ # @ . @.% @ % # % # @ @ % @ # @ # @ % @ @ # @ # @ & # @ & % & % & % & = = & = = * = = _ _ ; - ; > ; Z > > Z ~ ) ~ ! ~ ] ~ + &.{ / / O . . . . ( . ( O _ _ _ _ _ , ' , ' : < ' < $.< / $. .^ } / 0 0 3 0 3 4 g n W y n j 7 ....8 9 8 8 9 8 4 0 4 4 0 3 4 3 4 5 4 b 5 5 b b b c j d e e e f e f g j j g j g j j l j m k i k i i i i o p q o n n n n n s T s s t U u t u v w w w w w y w W w ",
". + . # @ # @ @ & # @ & @ . @ # @ # @ @ @ % # @ # % @ % @ # @ # % @ & @ # % @ @.@ % & & = & * & = * = * ; = _ _ > ; ; ; > > Z ) Z > Z > ~ ~ ~ { ] { $ ] $ & . . . #.. . #.` ( _ _ _ R _ _ : : P ' < ' < $.[ / ^ } / ( Z @ # % % & & P : < < 8 ..7 8 8 8 8 0 8 a 0 a a a 4 4 4 4 5 4 b 4 5 6 b 5 b b k e d e e e f f f f f j j j j j j k l m k i k i i i q i p q o q r n n n s T U s t U t v t v x v w x w y w y ",
"+ . . @ % @ # % # @ % # @ + # & @ % @ # % @ @ % @ # @ # @ % @ @ # @ # @ @.@ # & % & @ & % & = & = * = = = ; _ _ K - > ; Z > Z > ~ > ~ ! ~ ~ ] ~ { &.{ + & & . . + . #.. ` ( _ _ _ _ _ ' _ ' P : < ' < ' < ^ [ / ^ / } / } } | Q 2 _ + { = ; ' < ..8 8 9 8 a 8 0 a 9 0 0 4 4 3 4 6 4 5 5 b 6 b 5 %.d j c e d e f e f h j j g j g j j k j k l i m k i k o i o q p q r n n n s s s s U u U u t t w t w x w x w W w ",
". + . @ # @ % @ @ @ # @ @ . @ @ @ # @ % # @ # @ # % @ % @ # % # @ % @ @ # % @.% @ @.% & & = % & = * K - * = _ _ ; ; - ; > ; > Z ) Z ) ~ ~ ~ ~ ~ ] ~ ] ^ ] + ] . . . . ` #.O _ ` ( _ R , _ , : < : ' < < $. .$./ ^ } ^ } | } 2 1 2 Q P : ' < < < 8 ..8 8 8 8 4 8 0 0 a 4 4 4 4 6 4 5 4 5 4 5 5 b b S j d e e e f e f f f +.g j j j j m l m l i k i i i o i p o q r n q n n T s T U s U u t t v =.v w w w w x V y ",
"+ . . @ % @ # @ # % @ & # . @.# % @ # @ @ % @ % @ # @ # @ @ @ % # @ # @ @ & # & % & % & % & & = & = * = = - _ ( - ; ; > ; > Z > ) Z ) ! ~ ~ ~ + ~ &.] ^ + $ + . . #.. ( ` ( ( _ _ _ _ _ ' : P ' < < < < $.[ ^  .^ / } / } } Q } Q 2 Q 7 2 7 ....8 7 8 9 8 9 8 4 a 8 4 4 0 3 4 4 5 6 6 b 5 b 5 b b %.l e e d e e f f f g j g j g j l j j k m l i i i i p i q o o q n r n s n s s t T t t v u =.v w w x w x V x V "};
