/* XPM */
static char * Sun_titlebar_xpm[] = {
"96 23 3 1",
" 	c None",
".	c #63639C",
"+	c #433F5B",
".+...+...+...+...+...+...+...+...+...+...+...+...+...+...+...+...+...+...+...+...+...+...+...+..",
"..+...+.+.+...+...+...+.+.+...+...+...+.+.+...+...+...+.+.+...+...+...+.+.+...+...+...+.+.+...+.",
"...+...+...+...+...+...+...+...+...+...+...+...+...+...+...+...+...+...+...+...+...+...+...+...+",
"+...+.+.+...+...+...+.+.+...+...+...+.+.+...+...+...+.+.+...+...+...+.+.+...+...+...+.+.+...+...",
".+...+...+...+...+...+...+...+...+...+...+...+...+...+...+...+...+...+...+...+...+...+...+...+..",
"..+.+...+.+...+...+.+...+.+...+...+.+...+.+...+...+.+...+.+...+...+.+...+.+...+...+.+...+.+...+.",
"..++...+...+...+..++...+...+...+..++...+...+...+..++...+...+...+..++...+...+...+..++...+...+...+",
"..+...+...+++.....+...+...+++.....+...+...+++.....+...+...+++.....+...+...+++.....+...+...+++...",
".+...+...+...+...+...+...+...+...+...+...+...+...+...+...+...+...+...+...+...+...+...+...+...+..",
"+...+...+.....+++...+...+.....+++...+...+.....+++...+...+.....+++...+...+.....+++...+...+.....++",
"+..+...+...+..+++..+...+...+..+++..+...+...+..+++..+...+...+..+++..+...+...+..+++..+...+...+..++",
"+.....+...+...+++.....+...+...+++.....+...+...+++.....+...+...+++.....+...+...+++.....+...+...++",
".+...+...+...+...+...+...+...+...+...+...+...+...+...+...+...+...+...+...+...+...+...+...+...+..",
"..+++...+...+.....+++...+...+.....+++...+...+.....+++...+...+.....+++...+...+.....+++...+...+...",
"...+...+...++..+...+...+...++..+...+...+...++..+...+...+...++..+...+...+...++..+...+...+...++..+",
"+...+.+...+.+...+...+.+...+.+...+...+.+...+.+...+...+.+...+.+...+...+.+...+.+...+...+.+...+.+...",
".+...+...+...+...+...+...+...+...+...+...+...+...+...+...+...+...+...+...+...+...+...+...+...+..",
"..+...+.+.+...+...+...+.+.+...+...+...+.+.+...+...+...+.+.+...+...+...+.+.+...+...+...+.+.+...+.",
"...+...+...+...+...+...+...+...+...+...+...+...+...+...+...+...+...+...+...+...+...+...+...+...+",
"+...+.+.+...+...+...+.+.+...+...+...+.+.+...+...+...+.+.+...+...+...+.+.+...+...+...+.+.+...+...",
".....+...+...+...+...+...+...+...+...+...+...+...+...+...+...+...+...+...+...+...+...+...+...+..",
"..+.+...+.+...+...+.+...+.+...+...+.+...+.+...+...+.+...+.+...+...+.+...+.....+...+.+...+.+...+.",
"..++...+...+...+..++...+...+...+..++...+...+...+..++...+...+...+..++...+...+...+..++...+...+...+"};
