/* XPM */
static char * Sun_menuback_xpm[] = {
"40 22 3 1",
" 	c None",
".	c #60607C",
"+	c #333340",
"........................................",
"++++++++++++++++++++++++++++++++++++++++",
"........................................",
"++++++++++++++++++++++++++++++++++++++++",
"........................................",
"++++++++++++++++++++++++++++++++++++++++",
"........................................",
"++++++++++++++++++++++++++++++++++++++++",
"........................................",
"++++++++++++++++++++++++++++++++++++++++",
"........................................",
"++++++++++++++++++++++++++++++++++++++++",
"........................................",
"++++++++++++++++++++++++++++++++++++++++",
"........................................",
"++++++++++++++++++++++++++++++++++++++++",
"........................................",
"++++++++++++++++++++++++++++++++++++++++",
"........................................",
"++++++++++++++++++++++++++++++++++++++++",
"........................................",
"++++++++++++++++++++++++++++++++++++++++"};
