/* XPM */
static char * Sun_tile_xpm[] = {
"64 64 4 1",
" 	c None",
".	c #8E8EAF",
"+	c #63639C",
"@	c #433F5B",
"................................................................",
"................................................................",
"..+@@@+++@+++@+++++@@@+++@+++@+++++@@@+++@+++@+++++@@@+++@+++@@@",
"..++@+++@+++@@++@+++@+++@+++@@++@+++@+++@+++@@++@+++@+++@+++@@@@",
"..+++@+@+++@+@+++@+++@+@+++@+@+++@+++@+@+++@+@+++@+++@+@+++@+@@@",
"..@+++@+++@+++@+++@+++@+++@+++@+++@+++@+++@+++@+++@+++@+++@+++@@",
"..+@+++@+@+@+++@+++@+++@+@+@+++@+++@+++@+@+@+++@+++@+++@+@+@++@@",
"..++@+++@+++@+++@+++@+++@+++@+++@+++@+++@+++@+++@+++@+++@+++@+@@",
"..+++@+@+@+++@+++@+++@+@+@+++@+++@+++@+@+@+++@+++@+++@+@+@+++@@@",
"..@+++@+++@+++@+++@+++@+++@+++@+++@+++@+++@+++@+++@+++@+++@+++@@",
"..+@+@+++@+@+++@+++@+@+++@+@+++@+++@+@+++@+@+++@+++@+@+++@+@++@@",
"..+@@+++@+++@+++@++@@+++@+++@+++@++@@+++@+++@+++@++@@+++@+++@+@@",
"..+@+++@+++@@@+++++@+++@+++@@@+++++@+++@+++@@@+++++@+++@+++@@@@@",
"..@+++@+++@+++@+++@+++@+++@+++@+++@+++@+++@+++@+++@+++@+++@+++@@",
"..+++@+++@+++++@@@+++@+++@+++++@@@+++@+++@+++++@@@+++@+++@++++@@",
"..++@+++@+++@++@@@++@+++@+++@++@@@++@+++@+++@++@@@++@+++@+++@+@@",
"..+++++@+++@+++@@@+++++@+++@+++@@@+++++@+++@+++@@@+++++@+++@++@@",
"..@+++@+++@+++@+++@+++@+++@+++@+++@+++@+++@+++@+++@+++@+++@+++@@",
"..+@@@+++@+++@+++++@@@+++@+++@+++++@@@+++@+++@+++++@@@+++@+++@@@",
"..++@+++@+++@@++@+++@+++@+++@@++@+++@+++@+++@@++@+++@+++@+++@@@@",
"..+++@+@+++@+@+++@+++@+@+++@+@+++@+++@+@+++@+@+++@+++@+@+++@+@@@",
"..@+++@+++@+++@+++@+++@+++@+++@+++@+++@+++@+++@+++@+++@+++@+++@@",
"..+@+++@+@+@+++@+++@+++@+@+@+++@+++@+++@+@+@+++@+++@+++@+@+@++@@",
"..++@+++@+++@+++@+++@+++@+++@+++@+++@+++@+++@+++@+++@+++@+++@+@@",
"..+++@+@+@+++@+++@+++@+@+@+++@+++@+++@+@+@+++@+++@+++@+@+@+++@@@",
"..@+++@+++@+++@+++@+++@+++@+++@+++@+++@+++@+++@+++@+++@+++@+++@@",
"..+@+@+++@+@+++@+++@+@+++@+@+++@+++@+@+++@+@+++@+++@+@+++@+@++@@",
"..+@@+++@+++@+++@++@@+++@+++@+++@++@@+++@+++@+++@++@@+++@+++@+@@",
"..+@+++@+++@@@+++++@+++@+++@@@+++++@+++@+++@@@+++++@+++@+++@@@@@",
"..@+++@+++@+++@+++@+++@+++@+++@+++@+++@+++@+++@+++@+++@+++@+++@@",
"..+++@+++@+++++@@@+++@+++@+++++@@@+++@+++@+++++@@@+++@+++@++++@@",
"..++@+++@+++@++@@@++@+++@+++@++@@@++@+++@+++@++@@@++@+++@+++@+@@",
"..+++++@+++@+++@@@+++++@+++@+++@@@+++++@+++@+++@@@+++++@+++@++@@",
"..@+++@+++@+++@+++@+++@+++@+++@+++@+++@+++@+++@+++@+++@+++@+++@@",
"..+@@@+++@+++@+++++@@@+++@+++@+++++@@@+++@+++@+++++@@@+++@+++@@@",
"..++@+++@+++@@++@+++@+++@+++@@++@+++@+++@+++@@++@+++@+++@+++@@@@",
"..+++@+@+++@+@+++@+++@+@+++@+@+++@+++@+@+++@+@+++@+++@+@+++@+@@@",
"..@+++@+++@+++@+++@+++@+++@+++@+++@+++@+++@+++@+++@+++@+++@+++@@",
"..+@+++@+@+@+++@+++@+++@+@+@+++@+++@+++@+@+@+++@+++@+++@+@+@++@@",
"..++@+++@+++@+++@+++@+++@+++@+++@+++@+++@+++@+++@+++@+++@+++@+@@",
"..+++@+@+@+++@+++@+++@+@+@+++@+++@+++@+@+@+++@+++@+++@+@+@+++@@@",
"..@+++@+++@+++@+++@+++@+++@+++@+++@+++@+++@+++@+++@+++@+++@+++@@",
"..+@+@+++@+@+++@+++@+@+++@+@+++@+++@+@+++@+@+++@+++@+@+++@+@++@@",
"..+@@+++@+++@+++@++@@+++@+++@+++@++@@+++@+++@+++@++@@+++@+++@+@@",
"..+@+++@+++@@@+++++@+++@+++@@@+++++@+++@+++@@@+++++@+++@+++@@@@@",
"..@+++@+++@+++@+++@+++@+++@+++@+++@+++@+++@+++@+++@+++@+++@+++@@",
"..+++@+++@+++++@@@+++@+++@+++++@@@+++@+++@+++++@@@+++@+++@++++@@",
"..++@+++@+++@++@@@++@+++@+++@++@@@++@+++@+++@++@@@++@+++@+++@+@@",
"..+++++@+++@+++@@@+++++@+++@+++@@@+++++@+++@+++@@@+++++@+++@++@@",
"..@+++@+++@+++@+++@+++@+++@+++@+++@+++@+++@+++@+++@+++@+++@+++@@",
"..+@@@+++@+++@+++++@@@+++@+++@+++++@@@+++@+++@+++++@@@+++@+++@@@",
"..++@+++@+++@@++@+++@+++@+++@@++@+++@+++@+++@@++@+++@+++@+++@@@@",
"..+++@+@+++@+@+++@+++@+@+++@+@+++@+++@+@+++@+@+++@+++@+@+++@+@@@",
"..@+++@+++@+++@+++@+++@+++@+++@+++@+++@+++@+++@+++@+++@+++@+++@@",
"..+@+++@+@+@+++@+++@+++@+@+@+++@+++@+++@+@+@+++@+++@+++@+@+@++@@",
"..++@+++@+++@+++@+++@+++@+++@+++@+++@+++@+++@+++@+++@+++@+++@+@@",
"..+++@+@+@+++@+++@+++@+@+@+++@+++@+++@+@+@+++@+++@+++@+@+@+++@@@",
"..@+++@+++@+++@+++@+++@+++@+++@+++@+++@+++@+++@+++@+++@+++@+++@@",
"..+@+@+++@+@+++@+++@+@+++@+@+++@+++@+@+++@+@+++@+++@+@+++@+@++@@",
"..+@@+++@+++@+++@++@@+++@+++@+++@++@@+++@+++@+++@++@@+++@+++@+@@",
"..+@+++@+++@@@+++++@+++@+++@@@+++++@+++@+++@@@+++++@+++@+++@@@@@",
"..@+++@+++@+++@+++@+++@+++@+++@+++@+++@+++@+++@+++@+++@+++@+++@@",
"@@@@@@@@@@@@@@@@@@@@@@@@@@@@@@@@@@@@@@@@@@@@@@@@@@@@@@@@@@@@@@@@",
"@@@@@@@@@@@@@@@@@@@@@@@@@@@@@@@@@@@@@@@@@@@@@@@@@@@@@@@@@@@@@@@@"};
