/* XPM */
static char * synth_menutitle_xpm[] = {
"50 23 29 1",
" 	c None",
".	c #54306C",
"+	c #583470",
"@	c #522E6A",
"#	c #4F2B67",
"$	c #56326E",
"%	c #5B3773",
"&	c #512D69",
"*	c #5A3672",
"=	c #57336F",
"-	c #4D2965",
";	c #532F6B",
">	c #502C68",
",	c #55316D",
"'	c #5D3975",
")	c #4C2864",
"!	c #593571",
"~	c #4E2A66",
"{	c #5C3874",
"]	c #4B2763",
"^	c #4A2662",
"/	c #5E3A76",
"(	c #492561",
"_	c #5F3B77",
":	c #613D79",
"<	c #623E7A",
"[	c #633F7B",
"}	c #44205C",
"|	c #47235F",
".+@#+$#+$#$%&#*=-@%;>=@,*##',)!=~=%)#*;#+,-++).=>$",
";=@~+,~=$#.*>#!=->*;#$;,%>~{,)+=~=%)#*;#+,)++-.=&=",
".+;#!$~==&.*&>!+~>*.>$;.*&~%$-+=~=%->*;#+,)=!-;+&$",
".+;>*=#$=@,*&>*!#>*,>$;.*@#%=~++>+%->%.#!$)=!-;+@$",
",+@#!=#$=&.*&#!!>>!.>$..*@~*=~==#={##*.>!$]=!~@+;$",
".+@~+=#,+@;!&~!!>&!.&$..*@~*=#==#${>#!;#*=]$+-@=;,",
";+@~+=~,+@;!&~+!>&!;>$.;*@~*=#==~,%&>!;~!+)$!~&=@,",
".!;~+=~,!@.!&~=+#&*;#$.;!@~*=#++~.%@>!;~!+),*~&=@,",
",!.#++#,!;.*@~=!>&%,#$.;!;~!=#+!~;%;>!.-+!-,*~&+@.",
".+.#+!~.!@.*@~=!>>*,#$.;+@~!=#=!~@%;>!.-=+-,*~&+@.",
".+,#=!#.*;.*;-$!>>*,#$,;!;~!=~=*#@%.>+,~=!).*#>=@.",
".+,#=!~;!;.*;-,!>>*,#$,;!;#!=#$!>&%,>+.~+*-;*#>+;.",
".+,#$!~;*;.*@-,+>>*,~,,@+@#+$#$+#>%$>=;-=!);*##=;;",
",+$>=*#;%,,%;~,+>&*,#$$;+;#+$>=!#>%=>=;-+!);*##=;;",
".=,>=*~;*.,%@-,!>&*.#=$;=;>!=>=*>>{+&!.)+%-;%##=.;",
",+$>=*~;*;,%@).!>&*;-$,@$@>+$#$!##%+>+.)=%);*#~$;@",
"$!=&={>.%.='.),*&;'.~=$@$@@!$#=!#~%!>+,)=%)@*#~,&>",
",+$&$%#,*@$'.).*>;'.~+=.=@@*,#+*#~%%&+,-={-;{>#$&>",
".+,#.*#$*>;%@^@=~&{&)=,;=#>!;-+!))%*&=;)${-@%#~$>~",
",*!>,%&+'@,/;(@=)&_@^=.@=#>!@-*%]^!!&$;^,{~@{~-$#)",
"$!';,!>!_;=:=^&=)&<,($$;+&@%@)*/-(+!@!$),{~;_&#!&)",
"!+_,$*#!:;.<%~>,(~:+(;,&.~@{&(=/#(++#!$^,{-@/>~*&]",
"%='**_,!<=,[:$$%--:/-.!,,~&',($/&^!$^=.}&*]&%)^+~|"};
