/* XPM */
static char * synth_titlebardark_xpm[] = {
"50 23 19 1",
" 	c None",
".	c #002C3A",
"+	c #002F3B",
"@	c #002B38",
"#	c #002A36",
"$	c #002C3B",
"%	c #02303C",
"&	c #002B37",
"*	c #01303B",
"=	c #002E3B",
"-	c #03303F",
";	c #002834",
">	c #012F3B",
",	c #02303B",
"'	c #002733",
")	c #03333F",
"!	c #053340",
"~	c #063440",
"{	c #002330",
".+@#+$#+$#$%&#*=#@%.&=@$*##-$;>=#=%;#*.#+$#++;.=&$",
".=@#+$#=$#.,&#>=#&,.#$.$%&#%$;+=#=%;#*.#+$;++#.=&=",
".+.#+$#==&.*&&>+#&,.&$..*&#%$#+=#=%#&*.#+$;=+#.+&$",
".+.&*=#$=@$,&&*>#&*$&$..*@#%=#++&+%#&%.#+$;=+#.+@$",
"$+@#+=#$=&.,&#>>&&>.&$..*@#*=#==#=%##,.&>$'=+#@+.$",
".+@#+=#$+@.>&#+>&&+.&$..*@#*=#==#$%&#>.#*='$+#@=.$",
".+@#+=#$+@.+&#++&&>.&$..*@#*=#==#$%&&>.#>+;$+#&=@$",
".+.#+=#$+@.>&#=+#&*.#$..+@#*=#++#.%@&>.#++;$*#&=@$",
"$+.#++#$>..,@#=>&&%$#$..+.#+=#+>#.%.&>.#+>#$*#&+@.",
".+.#++#.>@.*@#=>&&,$#$..+@#+=#=>#@%.&>.#=+#$*#&+@.",
".+$#=>#.,..,.#$>&&,$#$$.+.#+=#=*#@%.&+$#=>;.*#&=@.",
".+$#=>#.>..,.#$+&&,$#$$.+.#+=#$>&&%$&+.#+*#.*#&+..",
".+$#$>#.*..*@#$+&&,$#$$@+@#+$#$+#&%$&=.#=>;.*##=..",
"$+$&=*#.%$$%.#$+&&,$#$$.+.#+$&=>#&%=&=.#+>;.*##=..",
".=$&=*#.,.$%@#$>&&,.#=$.=.&+=&=*&&%+&+.;+%#.%##=..",
"$+$&=*#.*.$%@;.>&&,.#$$@$@&+$#$+##%+&+.;=%;.*##$.@",
"$+=&=%&.%.=-.;$,&.-.#=$@$@@+$#=>##%+&+$;=%;@*##$&&",
"$+$&$%#$,@$-.;.,&.-.#+=.=@@*$#+,##%%&+$#=%#.%&#$&&",
".+$#.*#$,&.%@'@=#&%&;=$.=#&+.#+>;;%*&=.;$%#@%##$&#",
"$*>&$%&+-@$).'@=;&)@'=.@=#&+@#*%''++&$.'$%#@%##$#;",
"$+-.$+&+).=!='&=;&!$'$$.+&@%@;*)#'++@+$;$%#.)&#+&;",
"++)$$*#+!..!%#&$'#!+'.$&.#@%&'=)#'++#+$'$%#@)&#*&'",
"%=-**)$+!=$~!$$%##!)#.+$$#&-$'$)&'+$'=.{&*'&%;'+#'"};
