/* XPM */
static char * synth_menuback_xpm[] = {
"50 21 3 1",
" 	c None",
".	c #000000",
"+	c #785293",
"..................................................",
"++++++++++++++++++++++++++++++++++++++++++++++++++",
"..................................................",
"++++++++++++++++++++++++++++++++++++++++++++++++++",
"..................................................",
"++++++++++++++++++++++++++++++++++++++++++++++++++",
"..................................................",
"++++++++++++++++++++++++++++++++++++++++++++++++++",
"..................................................",
"++++++++++++++++++++++++++++++++++++++++++++++++++",
"..................................................",
"++++++++++++++++++++++++++++++++++++++++++++++++++",
"..................................................",
"++++++++++++++++++++++++++++++++++++++++++++++++++",
"..................................................",
"++++++++++++++++++++++++++++++++++++++++++++++++++",
"..................................................",
"++++++++++++++++++++++++++++++++++++++++++++++++++",
"..................................................",
"++++++++++++++++++++++++++++++++++++++++++++++++++",
".................................................."};
