/* XPM */
static char * synth_titlebar_xpm[] = {
"50 23 63 1",
" 	c None",
".	c #02556C",
"+	c #055970",
"@	c #01536A",
"#	c #005067",
"$	c #065970",
"%	c #03576E",
"&	c #04576E",
"*	c #015067",
"=	c #085C73",
"-	c #015269",
";	c #075B72",
">	c #05586F",
",	c #004E65",
"'	c #03546B",
")	c #015168",
"!	c #02536A",
"~	c #03566D",
"{	c #0A5E75",
"]	c #02566D",
"^	c #004D64",
"/	c #075A71",
"(	c #004F66",
"_	c #02546B",
":	c #03556C",
"<	c #085B72",
"[	c #095D74",
"}	c #04566D",
"|	c #065A71",
"1	c #025269",
"2	c #005168",
"3	c #04586F",
"4	c #05576E",
"5	c #03536A",
"6	c #04556C",
"7	c #01546B",
"8	c #035269",
"9	c #014F66",
"0	c #004C63",
"a	c #005269",
"b	c #025168",
"c	c #06586F",
"d	c #014E65",
"e	c #05566D",
"f	c #04546B",
"g	c #06576E",
"h	c #095C73",
"i	c #014D64",
"j	c #025067",
"k	c #06566D",
"l	c #004B62",
"m	c #00536A",
"n	c #0B5F76",
"o	c #004A61",
"p	c #0C6077",
"q	c #0E6279",
"r	c #014B62",
"s	c #0F637A",
"t	c #01556C",
"u	c #00546B",
"v	c #10647B",
"w	c #00455C",
"x	c #00485F",
".+@#$%#+&*&=-#;>,@=')>!~;*#{]^/>(>=^*;'*+~,$+^.>)&",
"_>@(+~(>&*:<)#/>,)<'*&_~=)([~^$>(>=^*;'*$}^+$,.>->",
":$_#|&(>>1:;-2/+(2<:)&_.;-(=%,$>(>=,);'*$}^>|,_+-&",
":$_);3#4>5}<-);/*2;~)&_.;!*=3($$)+=,)=6*|&^>|,7+!&",
"~$!*|>#&>86<-#//)2/:)&:.;!9;3(>>*>[*#<:)/&03|(@+_&",
":$!9$>#}+5'/-(|/)a|:-&:.;!9;3#>>*&[b#/'*;>0&+,@>_}",
"_$!(+>(~+5'|-(+|)-/')&:_;!9;3#c>9}=1)/'9/$^%|(-3!~",
".|'(+>(}|5:/-(>$*-;'*&._|!(;3#$$96=5)/'(|$^~;(->!~",
"~|6*+$#}/':<!9>/)-=}*&:_|_(|>#$/9'=')/:,+/,~;(-+!:",
":$6*+|(:/5:;!(>/)2<~*&:_$!(|3#c/9!=')/:,3$,~;(-+!:",
":$}*>/#:<':<_d&/))<}*&~_|_(|3(>;*!=:)$}(>/^.;#2>!:",
":+}*3/(_/':<'d}|))<}*&}_|_*|3#4/)1=})$6(+;,7;#2+_:",
":+e*&/(_;f:;5d~$))<}9~~!+!*+&*&$*)=&)>',>/^7;##>_'",
"}$4)3;#'=}}='9}$)-<}*&&_+_*+&)>/*)=>)c_,+/^7;##>''",
":>eb3;(_<6}=5d}/)-<6*3&_>_)|3)>;)b[+-|:^+=,7=##>:'",
"}+gb3;(_;f}h5^:/)-<',&~@%!)+%#&|**=$)$:^>=^7;#(&_!",
"&|c1>[2:=6>{6i~<17{:(3&!%!@|%#>/*9=|)+~^3=^@;#(}-)",
"~+g1&=#~<!&{6i:<b_{6(+>.3!!;~*$<j9==-$},3[,7[)#&-)",
".+k*.;#&<)_=5l@>(-[1^3~_3*2|7,$/^^=;->'^&[,m=#(4)(",
"~;/)]=a+{@~nfo@>^-p!l3.@3*2|@,;=0l||-4_l][(m[(,4#^",
"&|{_]|2|p73q>r->^-s~o%%_+-m=m^;n,o+|!|%^~[(7pa#|a^",
"|+p~%;*|q_ts=9)}o(q+ou~-t(m[-o3n#o++#|%l~[,mn2(;a0",
"=3{;;p]|s3]vq%%=,,qn,t|]](a{]o%nal|%l3twa;0a=^l+(x"};
