/* XPM */
static char * rip_xpm[] = {
"19 19 5 1",
" 	c #D0D09090F8F8",
".	c #606013139090",
"X	c purple",
"o	c white",
"O	c black",
"                  .",
"                 ..",
"  XXXXXXXXXXXXXXX..",
"  XXXXoooooooXXXX..",
"  XXoooooooooooXX..",
"  XXoooooooooooXX..",
"  XoooooooooooooX..",
"  XoOOOooOoOOOooX..",
"  XoOooOoOoOooOoX..",
"  XoOooOoOoOooOoX..",
"  XoOOOooOoOOOooX..",
"  XoOOoooOoOooooX..",
"  XoOoOooOoOooooX..",
"  XoOooOoOoOooooX..",
"  XoooooooooooooX..",
"  XoooooooooooooX..",
"  XXXXXXXXXXXXXXX..",
" ..................",
"..................."};
